<?xml version="1.0" encoding="utf-8" standalone="no"?>
<!DOCTYPE svg PUBLIC "-//W3C//DTD SVG 1.1//EN"
  "http://www.w3.org/Graphics/SVG/1.1/DTD/svg11.dtd">
<svg xmlns:xlink="http://www.w3.org/1999/xlink" width="999.42625pt" height="495.352167pt" viewBox="0 0 999.42625 495.352167" xmlns="http://www.w3.org/2000/svg" version="1.1">
 <metadata>
  <rdf:RDF xmlns:dc="http://purl.org/dc/elements/1.1/" xmlns:cc="http://creativecommons.org/ns#" xmlns:rdf="http://www.w3.org/1999/02/22-rdf-syntax-ns#">
   <cc:Work>
    <dc:type rdf:resource="http://purl.org/dc/dcmitype/StillImage"/>
    <dc:date>2025-12-03T16:50:26.676699</dc:date>
    <dc:format>image/svg+xml</dc:format>
    <dc:creator>
     <cc:Agent>
      <dc:title>Matplotlib v3.10.7, https://matplotlib.org/</dc:title>
     </cc:Agent>
    </dc:creator>
   </cc:Work>
  </rdf:RDF>
 </metadata>
 <defs>
  <style type="text/css">*{stroke-linejoin: round; stroke-linecap: butt}</style>
 </defs>
 <g id="figure_1">
  <g id="patch_1">
   <path d="M 0 495.352167 
L 999.42625 495.352167 
L 999.42625 0 
L 0 0 
z
" style="fill: #ffffff"/>
  </g>
  <g id="axes_1">
   <g id="patch_2">
    <path d="M 36.17625 413.61153 
L 992.22625 413.61153 
L 992.22625 23.837812 
L 36.17625 23.837812 
z
" style="fill: #ffffff"/>
   </g>
   <g id="matplotlib.axis_1">
    <g id="xtick_1">
     <g id="line2d_1">
      <defs>
       <path id="m5691fe91f8" d="M 0 0 
L 0 3.5 
" style="stroke: #000000; stroke-width: 0.8"/>
      </defs>
      <g>
       <use xlink:href="#m5691fe91f8" x="124.204164" y="413.61153" style="stroke: #000000; stroke-width: 0.8"/>
      </g>
     </g>
     <g id="text_1">
      <!-- 474360 -->
      <g transform="translate(95.739801 452.978238) rotate(-45) scale(0.1 -0.1)">
       <defs>
        <path id="DejaVuSans-34" d="M 2419 4116 
L 825 1625 
L 2419 1625 
L 2419 4116 
z
M 2253 4666 
L 3047 4666 
L 3047 1625 
L 3713 1625 
L 3713 1100 
L 3047 1100 
L 3047 0 
L 2419 0 
L 2419 1100 
L 313 1100 
L 313 1709 
L 2253 4666 
z
" transform="scale(0.015625)"/>
        <path id="DejaVuSans-37" d="M 525 4666 
L 3525 4666 
L 3525 4397 
L 1831 0 
L 1172 0 
L 2766 4134 
L 525 4134 
L 525 4666 
z
" transform="scale(0.015625)"/>
        <path id="DejaVuSans-33" d="M 2597 2516 
Q 3050 2419 3304 2112 
Q 3559 1806 3559 1356 
Q 3559 666 3084 287 
Q 2609 -91 1734 -91 
Q 1441 -91 1130 -33 
Q 819 25 488 141 
L 488 750 
Q 750 597 1062 519 
Q 1375 441 1716 441 
Q 2309 441 2620 675 
Q 2931 909 2931 1356 
Q 2931 1769 2642 2001 
Q 2353 2234 1838 2234 
L 1294 2234 
L 1294 2753 
L 1863 2753 
Q 2328 2753 2575 2939 
Q 2822 3125 2822 3475 
Q 2822 3834 2567 4026 
Q 2313 4219 1838 4219 
Q 1578 4219 1281 4162 
Q 984 4106 628 3988 
L 628 4550 
Q 988 4650 1302 4700 
Q 1616 4750 1894 4750 
Q 2613 4750 3031 4423 
Q 3450 4097 3450 3541 
Q 3450 3153 3228 2886 
Q 3006 2619 2597 2516 
z
" transform="scale(0.015625)"/>
        <path id="DejaVuSans-36" d="M 2113 2584 
Q 1688 2584 1439 2293 
Q 1191 2003 1191 1497 
Q 1191 994 1439 701 
Q 1688 409 2113 409 
Q 2538 409 2786 701 
Q 3034 994 3034 1497 
Q 3034 2003 2786 2293 
Q 2538 2584 2113 2584 
z
M 3366 4563 
L 3366 3988 
Q 3128 4100 2886 4159 
Q 2644 4219 2406 4219 
Q 1781 4219 1451 3797 
Q 1122 3375 1075 2522 
Q 1259 2794 1537 2939 
Q 1816 3084 2150 3084 
Q 2853 3084 3261 2657 
Q 3669 2231 3669 1497 
Q 3669 778 3244 343 
Q 2819 -91 2113 -91 
Q 1303 -91 875 529 
Q 447 1150 447 2328 
Q 447 3434 972 4092 
Q 1497 4750 2381 4750 
Q 2619 4750 2861 4703 
Q 3103 4656 3366 4563 
z
" transform="scale(0.015625)"/>
        <path id="DejaVuSans-30" d="M 2034 4250 
Q 1547 4250 1301 3770 
Q 1056 3291 1056 2328 
Q 1056 1369 1301 889 
Q 1547 409 2034 409 
Q 2525 409 2770 889 
Q 3016 1369 3016 2328 
Q 3016 3291 2770 3770 
Q 2525 4250 2034 4250 
z
M 2034 4750 
Q 2819 4750 3233 4129 
Q 3647 3509 3647 2328 
Q 3647 1150 3233 529 
Q 2819 -91 2034 -91 
Q 1250 -91 836 529 
Q 422 1150 422 2328 
Q 422 3509 836 4129 
Q 1250 4750 2034 4750 
z
" transform="scale(0.015625)"/>
       </defs>
       <use xlink:href="#DejaVuSans-34"/>
       <use xlink:href="#DejaVuSans-37" transform="translate(63.623047 0)"/>
       <use xlink:href="#DejaVuSans-34" transform="translate(127.246094 0)"/>
       <use xlink:href="#DejaVuSans-33" transform="translate(190.869141 0)"/>
       <use xlink:href="#DejaVuSans-36" transform="translate(254.492188 0)"/>
       <use xlink:href="#DejaVuSans-30" transform="translate(318.115234 0)"/>
      </g>
     </g>
    </g>
    <g id="xtick_2">
     <g id="line2d_2">
      <g>
       <use xlink:href="#m5691fe91f8" x="235.631903" y="413.61153" style="stroke: #000000; stroke-width: 0.8"/>
      </g>
     </g>
     <g id="text_2">
      <!-- 7625520 -->
      <g transform="translate(202.668573 457.477205) rotate(-45) scale(0.1 -0.1)">
       <defs>
        <path id="DejaVuSans-32" d="M 1228 531 
L 3431 531 
L 3431 0 
L 469 0 
L 469 531 
Q 828 903 1448 1529 
Q 2069 2156 2228 2338 
Q 2531 2678 2651 2914 
Q 2772 3150 2772 3378 
Q 2772 3750 2511 3984 
Q 2250 4219 1831 4219 
Q 1534 4219 1204 4116 
Q 875 4013 500 3803 
L 500 4441 
Q 881 4594 1212 4672 
Q 1544 4750 1819 4750 
Q 2544 4750 2975 4387 
Q 3406 4025 3406 3419 
Q 3406 3131 3298 2873 
Q 3191 2616 2906 2266 
Q 2828 2175 2409 1742 
Q 1991 1309 1228 531 
z
" transform="scale(0.015625)"/>
        <path id="DejaVuSans-35" d="M 691 4666 
L 3169 4666 
L 3169 4134 
L 1269 4134 
L 1269 2991 
Q 1406 3038 1543 3061 
Q 1681 3084 1819 3084 
Q 2600 3084 3056 2656 
Q 3513 2228 3513 1497 
Q 3513 744 3044 326 
Q 2575 -91 1722 -91 
Q 1428 -91 1123 -41 
Q 819 9 494 109 
L 494 744 
Q 775 591 1075 516 
Q 1375 441 1709 441 
Q 2250 441 2565 725 
Q 2881 1009 2881 1497 
Q 2881 1984 2565 2268 
Q 2250 2553 1709 2553 
Q 1456 2553 1204 2497 
Q 953 2441 691 2322 
L 691 4666 
z
" transform="scale(0.015625)"/>
       </defs>
       <use xlink:href="#DejaVuSans-37"/>
       <use xlink:href="#DejaVuSans-36" transform="translate(63.623047 0)"/>
       <use xlink:href="#DejaVuSans-32" transform="translate(127.246094 0)"/>
       <use xlink:href="#DejaVuSans-35" transform="translate(190.869141 0)"/>
       <use xlink:href="#DejaVuSans-35" transform="translate(254.492188 0)"/>
       <use xlink:href="#DejaVuSans-32" transform="translate(318.115234 0)"/>
       <use xlink:href="#DejaVuSans-30" transform="translate(381.738281 0)"/>
      </g>
     </g>
    </g>
    <g id="xtick_3">
     <g id="line2d_3">
      <g>
       <use xlink:href="#m5691fe91f8" x="347.059642" y="413.61153" style="stroke: #000000; stroke-width: 0.8"/>
      </g>
     </g>
     <g id="text_3">
      <!-- 38685480 -->
      <g transform="translate(309.597345 461.976172) rotate(-45) scale(0.1 -0.1)">
       <defs>
        <path id="DejaVuSans-38" d="M 2034 2216 
Q 1584 2216 1326 1975 
Q 1069 1734 1069 1313 
Q 1069 891 1326 650 
Q 1584 409 2034 409 
Q 2484 409 2743 651 
Q 3003 894 3003 1313 
Q 3003 1734 2745 1975 
Q 2488 2216 2034 2216 
z
M 1403 2484 
Q 997 2584 770 2862 
Q 544 3141 544 3541 
Q 544 4100 942 4425 
Q 1341 4750 2034 4750 
Q 2731 4750 3128 4425 
Q 3525 4100 3525 3541 
Q 3525 3141 3298 2862 
Q 3072 2584 2669 2484 
Q 3125 2378 3379 2068 
Q 3634 1759 3634 1313 
Q 3634 634 3220 271 
Q 2806 -91 2034 -91 
Q 1263 -91 848 271 
Q 434 634 434 1313 
Q 434 1759 690 2068 
Q 947 2378 1403 2484 
z
M 1172 3481 
Q 1172 3119 1398 2916 
Q 1625 2713 2034 2713 
Q 2441 2713 2670 2916 
Q 2900 3119 2900 3481 
Q 2900 3844 2670 4047 
Q 2441 4250 2034 4250 
Q 1625 4250 1398 4047 
Q 1172 3844 1172 3481 
z
" transform="scale(0.015625)"/>
       </defs>
       <use xlink:href="#DejaVuSans-33"/>
       <use xlink:href="#DejaVuSans-38" transform="translate(63.623047 0)"/>
       <use xlink:href="#DejaVuSans-36" transform="translate(127.246094 0)"/>
       <use xlink:href="#DejaVuSans-38" transform="translate(190.869141 0)"/>
       <use xlink:href="#DejaVuSans-35" transform="translate(254.492188 0)"/>
       <use xlink:href="#DejaVuSans-34" transform="translate(318.115234 0)"/>
       <use xlink:href="#DejaVuSans-38" transform="translate(381.738281 0)"/>
       <use xlink:href="#DejaVuSans-30" transform="translate(445.361328 0)"/>
      </g>
     </g>
    </g>
    <g id="xtick_4">
     <g id="line2d_4">
      <g>
       <use xlink:href="#m5691fe91f8" x="458.487381" y="413.61153" style="stroke: #000000; stroke-width: 0.8"/>
      </g>
     </g>
     <g id="text_4">
      <!-- 122406240 -->
      <g transform="translate(416.526117 466.475139) rotate(-45) scale(0.1 -0.1)">
       <defs>
        <path id="DejaVuSans-31" d="M 794 531 
L 1825 531 
L 1825 4091 
L 703 3866 
L 703 4441 
L 1819 4666 
L 2450 4666 
L 2450 531 
L 3481 531 
L 3481 0 
L 794 0 
L 794 531 
z
" transform="scale(0.015625)"/>
       </defs>
       <use xlink:href="#DejaVuSans-31"/>
       <use xlink:href="#DejaVuSans-32" transform="translate(63.623047 0)"/>
       <use xlink:href="#DejaVuSans-32" transform="translate(127.246094 0)"/>
       <use xlink:href="#DejaVuSans-34" transform="translate(190.869141 0)"/>
       <use xlink:href="#DejaVuSans-30" transform="translate(254.492188 0)"/>
       <use xlink:href="#DejaVuSans-36" transform="translate(318.115234 0)"/>
       <use xlink:href="#DejaVuSans-32" transform="translate(381.738281 0)"/>
       <use xlink:href="#DejaVuSans-34" transform="translate(445.361328 0)"/>
       <use xlink:href="#DejaVuSans-30" transform="translate(508.984375 0)"/>
      </g>
     </g>
    </g>
    <g id="xtick_5">
     <g id="line2d_5">
      <g>
       <use xlink:href="#m5691fe91f8" x="569.915119" y="413.61153" style="stroke: #000000; stroke-width: 0.8"/>
      </g>
     </g>
     <g id="text_5">
      <!-- 299059800 -->
      <g transform="translate(527.953856 466.475139) rotate(-45) scale(0.1 -0.1)">
       <defs>
        <path id="DejaVuSans-39" d="M 703 97 
L 703 672 
Q 941 559 1184 500 
Q 1428 441 1663 441 
Q 2288 441 2617 861 
Q 2947 1281 2994 2138 
Q 2813 1869 2534 1725 
Q 2256 1581 1919 1581 
Q 1219 1581 811 2004 
Q 403 2428 403 3163 
Q 403 3881 828 4315 
Q 1253 4750 1959 4750 
Q 2769 4750 3195 4129 
Q 3622 3509 3622 2328 
Q 3622 1225 3098 567 
Q 2575 -91 1691 -91 
Q 1453 -91 1209 -44 
Q 966 3 703 97 
z
M 1959 2075 
Q 2384 2075 2632 2365 
Q 2881 2656 2881 3163 
Q 2881 3666 2632 3958 
Q 2384 4250 1959 4250 
Q 1534 4250 1286 3958 
Q 1038 3666 1038 3163 
Q 1038 2656 1286 2365 
Q 1534 2075 1959 2075 
z
" transform="scale(0.015625)"/>
       </defs>
       <use xlink:href="#DejaVuSans-32"/>
       <use xlink:href="#DejaVuSans-39" transform="translate(63.623047 0)"/>
       <use xlink:href="#DejaVuSans-39" transform="translate(127.246094 0)"/>
       <use xlink:href="#DejaVuSans-30" transform="translate(190.869141 0)"/>
       <use xlink:href="#DejaVuSans-35" transform="translate(254.492188 0)"/>
       <use xlink:href="#DejaVuSans-39" transform="translate(318.115234 0)"/>
       <use xlink:href="#DejaVuSans-38" transform="translate(381.738281 0)"/>
       <use xlink:href="#DejaVuSans-30" transform="translate(445.361328 0)"/>
       <use xlink:href="#DejaVuSans-30" transform="translate(508.984375 0)"/>
      </g>
     </g>
    </g>
    <g id="xtick_6">
     <g id="line2d_6">
      <g>
       <use xlink:href="#m5691fe91f8" x="681.342858" y="413.61153" style="stroke: #000000; stroke-width: 0.8"/>
      </g>
     </g>
     <g id="text_6">
      <!-- 730562250 -->
      <g transform="translate(639.381595 466.475139) rotate(-45) scale(0.1 -0.1)">
       <use xlink:href="#DejaVuSans-37"/>
       <use xlink:href="#DejaVuSans-33" transform="translate(63.623047 0)"/>
       <use xlink:href="#DejaVuSans-30" transform="translate(127.246094 0)"/>
       <use xlink:href="#DejaVuSans-35" transform="translate(190.869141 0)"/>
       <use xlink:href="#DejaVuSans-36" transform="translate(254.492188 0)"/>
       <use xlink:href="#DejaVuSans-32" transform="translate(318.115234 0)"/>
       <use xlink:href="#DejaVuSans-32" transform="translate(381.738281 0)"/>
       <use xlink:href="#DejaVuSans-35" transform="translate(445.361328 0)"/>
       <use xlink:href="#DejaVuSans-30" transform="translate(508.984375 0)"/>
      </g>
     </g>
    </g>
    <g id="xtick_7">
     <g id="line2d_7">
      <g>
       <use xlink:href="#m5691fe91f8" x="792.770597" y="413.61153" style="stroke: #000000; stroke-width: 0.8"/>
      </g>
     </g>
     <g id="text_7">
      <!-- 1515509700 -->
      <g transform="translate(746.310367 470.974106) rotate(-45) scale(0.1 -0.1)">
       <use xlink:href="#DejaVuSans-31"/>
       <use xlink:href="#DejaVuSans-35" transform="translate(63.623047 0)"/>
       <use xlink:href="#DejaVuSans-31" transform="translate(127.246094 0)"/>
       <use xlink:href="#DejaVuSans-35" transform="translate(190.869141 0)"/>
       <use xlink:href="#DejaVuSans-35" transform="translate(254.492188 0)"/>
       <use xlink:href="#DejaVuSans-30" transform="translate(318.115234 0)"/>
       <use xlink:href="#DejaVuSans-39" transform="translate(381.738281 0)"/>
       <use xlink:href="#DejaVuSans-37" transform="translate(445.361328 0)"/>
       <use xlink:href="#DejaVuSans-30" transform="translate(508.984375 0)"/>
       <use xlink:href="#DejaVuSans-30" transform="translate(572.607422 0)"/>
      </g>
     </g>
    </g>
    <g id="xtick_8">
     <g id="line2d_8">
      <g>
       <use xlink:href="#m5691fe91f8" x="904.198336" y="413.61153" style="stroke: #000000; stroke-width: 0.8"/>
      </g>
     </g>
     <g id="text_8">
      <!-- 4792239600 -->
      <g transform="translate(857.738106 470.974106) rotate(-45) scale(0.1 -0.1)">
       <use xlink:href="#DejaVuSans-34"/>
       <use xlink:href="#DejaVuSans-37" transform="translate(63.623047 0)"/>
       <use xlink:href="#DejaVuSans-39" transform="translate(127.246094 0)"/>
       <use xlink:href="#DejaVuSans-32" transform="translate(190.869141 0)"/>
       <use xlink:href="#DejaVuSans-32" transform="translate(254.492188 0)"/>
       <use xlink:href="#DejaVuSans-33" transform="translate(318.115234 0)"/>
       <use xlink:href="#DejaVuSans-39" transform="translate(381.738281 0)"/>
       <use xlink:href="#DejaVuSans-36" transform="translate(445.361328 0)"/>
       <use xlink:href="#DejaVuSans-30" transform="translate(508.984375 0)"/>
       <use xlink:href="#DejaVuSans-30" transform="translate(572.607422 0)"/>
      </g>
     </g>
    </g>
    <g id="text_9">
     <!-- Input Size (vertices × edges) -->
     <g transform="translate(416.095625 485.562792) scale(0.12 -0.12)">
      <defs>
       <path id="DejaVuSans-Bold-49" d="M 588 4666 
L 1791 4666 
L 1791 0 
L 588 0 
L 588 4666 
z
" transform="scale(0.015625)"/>
       <path id="DejaVuSans-Bold-6e" d="M 4056 2131 
L 4056 0 
L 2931 0 
L 2931 347 
L 2931 1631 
Q 2931 2084 2911 2256 
Q 2891 2428 2841 2509 
Q 2775 2619 2662 2680 
Q 2550 2741 2406 2741 
Q 2056 2741 1856 2470 
Q 1656 2200 1656 1722 
L 1656 0 
L 538 0 
L 538 3500 
L 1656 3500 
L 1656 2988 
Q 1909 3294 2193 3439 
Q 2478 3584 2822 3584 
Q 3428 3584 3742 3212 
Q 4056 2841 4056 2131 
z
" transform="scale(0.015625)"/>
       <path id="DejaVuSans-Bold-70" d="M 1656 506 
L 1656 -1331 
L 538 -1331 
L 538 3500 
L 1656 3500 
L 1656 2988 
Q 1888 3294 2169 3439 
Q 2450 3584 2816 3584 
Q 3463 3584 3878 3070 
Q 4294 2556 4294 1747 
Q 4294 938 3878 423 
Q 3463 -91 2816 -91 
Q 2450 -91 2169 54 
Q 1888 200 1656 506 
z
M 2400 2772 
Q 2041 2772 1848 2508 
Q 1656 2244 1656 1747 
Q 1656 1250 1848 986 
Q 2041 722 2400 722 
Q 2759 722 2948 984 
Q 3138 1247 3138 1747 
Q 3138 2247 2948 2509 
Q 2759 2772 2400 2772 
z
" transform="scale(0.015625)"/>
       <path id="DejaVuSans-Bold-75" d="M 500 1363 
L 500 3500 
L 1625 3500 
L 1625 3150 
Q 1625 2866 1622 2436 
Q 1619 2006 1619 1863 
Q 1619 1441 1641 1255 
Q 1663 1069 1716 984 
Q 1784 875 1895 815 
Q 2006 756 2150 756 
Q 2500 756 2700 1025 
Q 2900 1294 2900 1772 
L 2900 3500 
L 4019 3500 
L 4019 0 
L 2900 0 
L 2900 506 
Q 2647 200 2364 54 
Q 2081 -91 1741 -91 
Q 1134 -91 817 281 
Q 500 653 500 1363 
z
" transform="scale(0.015625)"/>
       <path id="DejaVuSans-Bold-74" d="M 1759 4494 
L 1759 3500 
L 2913 3500 
L 2913 2700 
L 1759 2700 
L 1759 1216 
Q 1759 972 1856 886 
Q 1953 800 2241 800 
L 2816 800 
L 2816 0 
L 1856 0 
Q 1194 0 917 276 
Q 641 553 641 1216 
L 641 2700 
L 84 2700 
L 84 3500 
L 641 3500 
L 641 4494 
L 1759 4494 
z
" transform="scale(0.015625)"/>
       <path id="DejaVuSans-Bold-20" transform="scale(0.015625)"/>
       <path id="DejaVuSans-Bold-53" d="M 3834 4519 
L 3834 3531 
Q 3450 3703 3084 3790 
Q 2719 3878 2394 3878 
Q 1963 3878 1756 3759 
Q 1550 3641 1550 3391 
Q 1550 3203 1689 3098 
Q 1828 2994 2194 2919 
L 2706 2816 
Q 3484 2659 3812 2340 
Q 4141 2022 4141 1434 
Q 4141 663 3683 286 
Q 3225 -91 2284 -91 
Q 1841 -91 1394 -6 
Q 947 78 500 244 
L 500 1259 
Q 947 1022 1364 901 
Q 1781 781 2169 781 
Q 2563 781 2772 912 
Q 2981 1044 2981 1288 
Q 2981 1506 2839 1625 
Q 2697 1744 2272 1838 
L 1806 1941 
Q 1106 2091 782 2419 
Q 459 2747 459 3303 
Q 459 4000 909 4375 
Q 1359 4750 2203 4750 
Q 2588 4750 2994 4692 
Q 3400 4634 3834 4519 
z
" transform="scale(0.015625)"/>
       <path id="DejaVuSans-Bold-69" d="M 538 3500 
L 1656 3500 
L 1656 0 
L 538 0 
L 538 3500 
z
M 538 4863 
L 1656 4863 
L 1656 3950 
L 538 3950 
L 538 4863 
z
" transform="scale(0.015625)"/>
       <path id="DejaVuSans-Bold-7a" d="M 366 3500 
L 3419 3500 
L 3419 2719 
L 1575 800 
L 3419 800 
L 3419 0 
L 288 0 
L 288 781 
L 2131 2700 
L 366 2700 
L 366 3500 
z
" transform="scale(0.015625)"/>
       <path id="DejaVuSans-Bold-65" d="M 4031 1759 
L 4031 1441 
L 1416 1441 
Q 1456 1047 1700 850 
Q 1944 653 2381 653 
Q 2734 653 3104 758 
Q 3475 863 3866 1075 
L 3866 213 
Q 3469 63 3072 -14 
Q 2675 -91 2278 -91 
Q 1328 -91 801 392 
Q 275 875 275 1747 
Q 275 2603 792 3093 
Q 1309 3584 2216 3584 
Q 3041 3584 3536 3087 
Q 4031 2591 4031 1759 
z
M 2881 2131 
Q 2881 2450 2695 2645 
Q 2509 2841 2209 2841 
Q 1884 2841 1681 2658 
Q 1478 2475 1428 2131 
L 2881 2131 
z
" transform="scale(0.015625)"/>
       <path id="DejaVuSans-Bold-28" d="M 2413 -844 
L 1484 -844 
Q 1006 -72 778 623 
Q 550 1319 550 2003 
Q 550 2688 779 3389 
Q 1009 4091 1484 4856 
L 2413 4856 
Q 2013 4116 1813 3408 
Q 1613 2700 1613 2009 
Q 1613 1319 1811 609 
Q 2009 -100 2413 -844 
z
" transform="scale(0.015625)"/>
       <path id="DejaVuSans-Bold-76" d="M 97 3500 
L 1216 3500 
L 2088 1081 
L 2956 3500 
L 4078 3500 
L 2700 0 
L 1472 0 
L 97 3500 
z
" transform="scale(0.015625)"/>
       <path id="DejaVuSans-Bold-72" d="M 3138 2547 
Q 2991 2616 2845 2648 
Q 2700 2681 2553 2681 
Q 2122 2681 1889 2404 
Q 1656 2128 1656 1613 
L 1656 0 
L 538 0 
L 538 3500 
L 1656 3500 
L 1656 2925 
Q 1872 3269 2151 3426 
Q 2431 3584 2822 3584 
Q 2878 3584 2943 3579 
Q 3009 3575 3134 3559 
L 3138 2547 
z
" transform="scale(0.015625)"/>
       <path id="DejaVuSans-Bold-63" d="M 3366 3391 
L 3366 2478 
Q 3138 2634 2908 2709 
Q 2678 2784 2431 2784 
Q 1963 2784 1702 2511 
Q 1441 2238 1441 1747 
Q 1441 1256 1702 982 
Q 1963 709 2431 709 
Q 2694 709 2930 787 
Q 3166 866 3366 1019 
L 3366 103 
Q 3103 6 2833 -42 
Q 2563 -91 2291 -91 
Q 1344 -91 809 395 
Q 275 881 275 1747 
Q 275 2613 809 3098 
Q 1344 3584 2291 3584 
Q 2566 3584 2833 3536 
Q 3100 3488 3366 3391 
z
" transform="scale(0.015625)"/>
       <path id="DejaVuSans-Bold-73" d="M 3272 3391 
L 3272 2541 
Q 2913 2691 2578 2766 
Q 2244 2841 1947 2841 
Q 1628 2841 1473 2761 
Q 1319 2681 1319 2516 
Q 1319 2381 1436 2309 
Q 1553 2238 1856 2203 
L 2053 2175 
Q 2913 2066 3209 1816 
Q 3506 1566 3506 1031 
Q 3506 472 3093 190 
Q 2681 -91 1863 -91 
Q 1516 -91 1145 -36 
Q 775 19 384 128 
L 384 978 
Q 719 816 1070 734 
Q 1422 653 1784 653 
Q 2113 653 2278 743 
Q 2444 834 2444 1013 
Q 2444 1163 2330 1236 
Q 2216 1309 1875 1350 
L 1678 1375 
Q 931 1469 631 1722 
Q 331 1975 331 2491 
Q 331 3047 712 3315 
Q 1094 3584 1881 3584 
Q 2191 3584 2531 3537 
Q 2872 3491 3272 3391 
z
" transform="scale(0.015625)"/>
       <path id="DejaVuSans-Bold-d7" d="M 4563 3359 
L 3206 2003 
L 4563 653 
L 4038 128 
L 2681 1478 
L 1325 128 
L 800 653 
L 2156 2003 
L 800 3359 
L 1325 3884 
L 2681 2528 
L 4038 3884 
L 4563 3359 
z
" transform="scale(0.015625)"/>
       <path id="DejaVuSans-Bold-64" d="M 2919 2988 
L 2919 4863 
L 4044 4863 
L 4044 0 
L 2919 0 
L 2919 506 
Q 2688 197 2409 53 
Q 2131 -91 1766 -91 
Q 1119 -91 703 423 
Q 288 938 288 1747 
Q 288 2556 703 3070 
Q 1119 3584 1766 3584 
Q 2128 3584 2408 3439 
Q 2688 3294 2919 2988 
z
M 2181 722 
Q 2541 722 2730 984 
Q 2919 1247 2919 1747 
Q 2919 2247 2730 2509 
Q 2541 2772 2181 2772 
Q 1825 2772 1636 2509 
Q 1447 2247 1447 1747 
Q 1447 1247 1636 984 
Q 1825 722 2181 722 
z
" transform="scale(0.015625)"/>
       <path id="DejaVuSans-Bold-67" d="M 2919 594 
Q 2688 288 2409 144 
Q 2131 0 1766 0 
Q 1125 0 706 504 
Q 288 1009 288 1791 
Q 288 2575 706 3076 
Q 1125 3578 1766 3578 
Q 2131 3578 2409 3434 
Q 2688 3291 2919 2981 
L 2919 3500 
L 4044 3500 
L 4044 353 
Q 4044 -491 3511 -936 
Q 2978 -1381 1966 -1381 
Q 1638 -1381 1331 -1331 
Q 1025 -1281 716 -1178 
L 716 -306 
Q 1009 -475 1290 -558 
Q 1572 -641 1856 -641 
Q 2406 -641 2662 -400 
Q 2919 -159 2919 353 
L 2919 594 
z
M 2181 2772 
Q 1834 2772 1640 2515 
Q 1447 2259 1447 1791 
Q 1447 1309 1634 1061 
Q 1822 813 2181 813 
Q 2531 813 2725 1069 
Q 2919 1325 2919 1791 
Q 2919 2259 2725 2515 
Q 2531 2772 2181 2772 
z
" transform="scale(0.015625)"/>
       <path id="DejaVuSans-Bold-29" d="M 513 -844 
Q 913 -100 1113 609 
Q 1313 1319 1313 2009 
Q 1313 2700 1113 3408 
Q 913 4116 513 4856 
L 1441 4856 
Q 1916 4091 2145 3389 
Q 2375 2688 2375 2003 
Q 2375 1319 2147 623 
Q 1919 -72 1441 -844 
L 513 -844 
z
" transform="scale(0.015625)"/>
      </defs>
      <use xlink:href="#DejaVuSans-Bold-49"/>
      <use xlink:href="#DejaVuSans-Bold-6e" transform="translate(37.207031 0)"/>
      <use xlink:href="#DejaVuSans-Bold-70" transform="translate(108.398438 0)"/>
      <use xlink:href="#DejaVuSans-Bold-75" transform="translate(179.980469 0)"/>
      <use xlink:href="#DejaVuSans-Bold-74" transform="translate(251.171875 0)"/>
      <use xlink:href="#DejaVuSans-Bold-20" transform="translate(298.974609 0)"/>
      <use xlink:href="#DejaVuSans-Bold-53" transform="translate(333.789062 0)"/>
      <use xlink:href="#DejaVuSans-Bold-69" transform="translate(405.810547 0)"/>
      <use xlink:href="#DejaVuSans-Bold-7a" transform="translate(440.087891 0)"/>
      <use xlink:href="#DejaVuSans-Bold-65" transform="translate(498.291016 0)"/>
      <use xlink:href="#DejaVuSans-Bold-20" transform="translate(566.113281 0)"/>
      <use xlink:href="#DejaVuSans-Bold-28" transform="translate(600.927734 0)"/>
      <use xlink:href="#DejaVuSans-Bold-76" transform="translate(646.630859 0)"/>
      <use xlink:href="#DejaVuSans-Bold-65" transform="translate(711.816406 0)"/>
      <use xlink:href="#DejaVuSans-Bold-72" transform="translate(779.638672 0)"/>
      <use xlink:href="#DejaVuSans-Bold-74" transform="translate(828.955078 0)"/>
      <use xlink:href="#DejaVuSans-Bold-69" transform="translate(876.757812 0)"/>
      <use xlink:href="#DejaVuSans-Bold-63" transform="translate(911.035156 0)"/>
      <use xlink:href="#DejaVuSans-Bold-65" transform="translate(970.3125 0)"/>
      <use xlink:href="#DejaVuSans-Bold-73" transform="translate(1038.134766 0)"/>
      <use xlink:href="#DejaVuSans-Bold-20" transform="translate(1097.65625 0)"/>
      <use xlink:href="#DejaVuSans-Bold-d7" transform="translate(1132.470703 0)"/>
      <use xlink:href="#DejaVuSans-Bold-20" transform="translate(1216.259766 0)"/>
      <use xlink:href="#DejaVuSans-Bold-65" transform="translate(1251.074219 0)"/>
      <use xlink:href="#DejaVuSans-Bold-64" transform="translate(1318.896484 0)"/>
      <use xlink:href="#DejaVuSans-Bold-67" transform="translate(1390.478516 0)"/>
      <use xlink:href="#DejaVuSans-Bold-65" transform="translate(1462.060547 0)"/>
      <use xlink:href="#DejaVuSans-Bold-73" transform="translate(1529.882812 0)"/>
      <use xlink:href="#DejaVuSans-Bold-29" transform="translate(1589.404297 0)"/>
     </g>
    </g>
   </g>
   <g id="matplotlib.axis_2">
    <g id="ytick_1">
     <g id="line2d_9">
      <path d="M 36.17625 413.61153 
L 992.22625 413.61153 
" clip-path="url(#p94e1eb1ad1)" style="fill: none; stroke-dasharray: 2.96,1.28; stroke-dashoffset: 0; stroke: #b0b0b0; stroke-opacity: 0.3; stroke-width: 0.8"/>
     </g>
     <g id="line2d_10">
      <defs>
       <path id="mf274389b3d" d="M 0 0 
L -3.5 0 
" style="stroke: #000000; stroke-width: 0.8"/>
      </defs>
      <g>
       <use xlink:href="#mf274389b3d" x="36.17625" y="413.61153" style="stroke: #000000; stroke-width: 0.8"/>
      </g>
     </g>
     <g id="text_10">
      <!-- 0 -->
      <g transform="translate(22.81375 417.410749) scale(0.1 -0.1)">
       <use xlink:href="#DejaVuSans-30"/>
      </g>
     </g>
    </g>
    <g id="ytick_2">
     <g id="line2d_11">
      <path d="M 36.17625 357.281908 
L 992.22625 357.281908 
" clip-path="url(#p94e1eb1ad1)" style="fill: none; stroke-dasharray: 2.96,1.28; stroke-dashoffset: 0; stroke: #b0b0b0; stroke-opacity: 0.3; stroke-width: 0.8"/>
     </g>
     <g id="line2d_12">
      <g>
       <use xlink:href="#mf274389b3d" x="36.17625" y="357.281908" style="stroke: #000000; stroke-width: 0.8"/>
      </g>
     </g>
     <g id="text_11">
      <!-- 1 -->
      <g transform="translate(22.81375 361.081126) scale(0.1 -0.1)">
       <use xlink:href="#DejaVuSans-31"/>
      </g>
     </g>
    </g>
    <g id="ytick_3">
     <g id="line2d_13">
      <path d="M 36.17625 300.952285 
L 992.22625 300.952285 
" clip-path="url(#p94e1eb1ad1)" style="fill: none; stroke-dasharray: 2.96,1.28; stroke-dashoffset: 0; stroke: #b0b0b0; stroke-opacity: 0.3; stroke-width: 0.8"/>
     </g>
     <g id="line2d_14">
      <g>
       <use xlink:href="#mf274389b3d" x="36.17625" y="300.952285" style="stroke: #000000; stroke-width: 0.8"/>
      </g>
     </g>
     <g id="text_12">
      <!-- 2 -->
      <g transform="translate(22.81375 304.751504) scale(0.1 -0.1)">
       <use xlink:href="#DejaVuSans-32"/>
      </g>
     </g>
    </g>
    <g id="ytick_4">
     <g id="line2d_15">
      <path d="M 36.17625 244.622663 
L 992.22625 244.622663 
" clip-path="url(#p94e1eb1ad1)" style="fill: none; stroke-dasharray: 2.96,1.28; stroke-dashoffset: 0; stroke: #b0b0b0; stroke-opacity: 0.3; stroke-width: 0.8"/>
     </g>
     <g id="line2d_16">
      <g>
       <use xlink:href="#mf274389b3d" x="36.17625" y="244.622663" style="stroke: #000000; stroke-width: 0.8"/>
      </g>
     </g>
     <g id="text_13">
      <!-- 3 -->
      <g transform="translate(22.81375 248.421881) scale(0.1 -0.1)">
       <use xlink:href="#DejaVuSans-33"/>
      </g>
     </g>
    </g>
    <g id="ytick_5">
     <g id="line2d_17">
      <path d="M 36.17625 188.29304 
L 992.22625 188.29304 
" clip-path="url(#p94e1eb1ad1)" style="fill: none; stroke-dasharray: 2.96,1.28; stroke-dashoffset: 0; stroke: #b0b0b0; stroke-opacity: 0.3; stroke-width: 0.8"/>
     </g>
     <g id="line2d_18">
      <g>
       <use xlink:href="#mf274389b3d" x="36.17625" y="188.29304" style="stroke: #000000; stroke-width: 0.8"/>
      </g>
     </g>
     <g id="text_14">
      <!-- 4 -->
      <g transform="translate(22.81375 192.092259) scale(0.1 -0.1)">
       <use xlink:href="#DejaVuSans-34"/>
      </g>
     </g>
    </g>
    <g id="ytick_6">
     <g id="line2d_19">
      <path d="M 36.17625 131.963418 
L 992.22625 131.963418 
" clip-path="url(#p94e1eb1ad1)" style="fill: none; stroke-dasharray: 2.96,1.28; stroke-dashoffset: 0; stroke: #b0b0b0; stroke-opacity: 0.3; stroke-width: 0.8"/>
     </g>
     <g id="line2d_20">
      <g>
       <use xlink:href="#mf274389b3d" x="36.17625" y="131.963418" style="stroke: #000000; stroke-width: 0.8"/>
      </g>
     </g>
     <g id="text_15">
      <!-- 5 -->
      <g transform="translate(22.81375 135.762636) scale(0.1 -0.1)">
       <use xlink:href="#DejaVuSans-35"/>
      </g>
     </g>
    </g>
    <g id="ytick_7">
     <g id="line2d_21">
      <path d="M 36.17625 75.633795 
L 992.22625 75.633795 
" clip-path="url(#p94e1eb1ad1)" style="fill: none; stroke-dasharray: 2.96,1.28; stroke-dashoffset: 0; stroke: #b0b0b0; stroke-opacity: 0.3; stroke-width: 0.8"/>
     </g>
     <g id="line2d_22">
      <g>
       <use xlink:href="#mf274389b3d" x="36.17625" y="75.633795" style="stroke: #000000; stroke-width: 0.8"/>
      </g>
     </g>
     <g id="text_16">
      <!-- 6 -->
      <g transform="translate(22.81375 79.433014) scale(0.1 -0.1)">
       <use xlink:href="#DejaVuSans-36"/>
      </g>
     </g>
    </g>
    <g id="text_17">
     <!-- Max Runtime (seconds) -->
     <g transform="translate(16.318125 298.142171) rotate(-90) scale(0.12 -0.12)">
      <defs>
       <path id="DejaVuSans-Bold-4d" d="M 588 4666 
L 2119 4666 
L 3181 2169 
L 4250 4666 
L 5778 4666 
L 5778 0 
L 4641 0 
L 4641 3413 
L 3566 897 
L 2803 897 
L 1728 3413 
L 1728 0 
L 588 0 
L 588 4666 
z
" transform="scale(0.015625)"/>
       <path id="DejaVuSans-Bold-61" d="M 2106 1575 
Q 1756 1575 1579 1456 
Q 1403 1338 1403 1106 
Q 1403 894 1545 773 
Q 1688 653 1941 653 
Q 2256 653 2472 879 
Q 2688 1106 2688 1447 
L 2688 1575 
L 2106 1575 
z
M 3816 1997 
L 3816 0 
L 2688 0 
L 2688 519 
Q 2463 200 2181 54 
Q 1900 -91 1497 -91 
Q 953 -91 614 226 
Q 275 544 275 1050 
Q 275 1666 698 1953 
Q 1122 2241 2028 2241 
L 2688 2241 
L 2688 2328 
Q 2688 2594 2478 2717 
Q 2269 2841 1825 2841 
Q 1466 2841 1156 2769 
Q 847 2697 581 2553 
L 581 3406 
Q 941 3494 1303 3539 
Q 1666 3584 2028 3584 
Q 2975 3584 3395 3211 
Q 3816 2838 3816 1997 
z
" transform="scale(0.015625)"/>
       <path id="DejaVuSans-Bold-78" d="M 1422 1791 
L 159 3500 
L 1344 3500 
L 2059 2463 
L 2784 3500 
L 3969 3500 
L 2706 1797 
L 4031 0 
L 2847 0 
L 2059 1106 
L 1281 0 
L 97 0 
L 1422 1791 
z
" transform="scale(0.015625)"/>
       <path id="DejaVuSans-Bold-52" d="M 2297 2597 
Q 2675 2597 2839 2737 
Q 3003 2878 3003 3200 
Q 3003 3519 2839 3656 
Q 2675 3794 2297 3794 
L 1791 3794 
L 1791 2597 
L 2297 2597 
z
M 1791 1766 
L 1791 0 
L 588 0 
L 588 4666 
L 2425 4666 
Q 3347 4666 3776 4356 
Q 4206 4047 4206 3378 
Q 4206 2916 3982 2619 
Q 3759 2322 3309 2181 
Q 3556 2125 3751 1926 
Q 3947 1728 4147 1325 
L 4800 0 
L 3519 0 
L 2950 1159 
Q 2778 1509 2601 1637 
Q 2425 1766 2131 1766 
L 1791 1766 
z
" transform="scale(0.015625)"/>
       <path id="DejaVuSans-Bold-6d" d="M 3781 2919 
Q 3994 3244 4286 3414 
Q 4578 3584 4928 3584 
Q 5531 3584 5847 3212 
Q 6163 2841 6163 2131 
L 6163 0 
L 5038 0 
L 5038 1825 
Q 5041 1866 5042 1909 
Q 5044 1953 5044 2034 
Q 5044 2406 4934 2573 
Q 4825 2741 4581 2741 
Q 4263 2741 4089 2478 
Q 3916 2216 3909 1719 
L 3909 0 
L 2784 0 
L 2784 1825 
Q 2784 2406 2684 2573 
Q 2584 2741 2328 2741 
Q 2006 2741 1831 2477 
Q 1656 2213 1656 1722 
L 1656 0 
L 531 0 
L 531 3500 
L 1656 3500 
L 1656 2988 
Q 1863 3284 2130 3434 
Q 2397 3584 2719 3584 
Q 3081 3584 3359 3409 
Q 3638 3234 3781 2919 
z
" transform="scale(0.015625)"/>
       <path id="DejaVuSans-Bold-6f" d="M 2203 2784 
Q 1831 2784 1636 2517 
Q 1441 2250 1441 1747 
Q 1441 1244 1636 976 
Q 1831 709 2203 709 
Q 2569 709 2762 976 
Q 2956 1244 2956 1747 
Q 2956 2250 2762 2517 
Q 2569 2784 2203 2784 
z
M 2203 3584 
Q 3106 3584 3614 3096 
Q 4122 2609 4122 1747 
Q 4122 884 3614 396 
Q 3106 -91 2203 -91 
Q 1297 -91 786 396 
Q 275 884 275 1747 
Q 275 2609 786 3096 
Q 1297 3584 2203 3584 
z
" transform="scale(0.015625)"/>
      </defs>
      <use xlink:href="#DejaVuSans-Bold-4d"/>
      <use xlink:href="#DejaVuSans-Bold-61" transform="translate(99.511719 0)"/>
      <use xlink:href="#DejaVuSans-Bold-78" transform="translate(166.992188 0)"/>
      <use xlink:href="#DejaVuSans-Bold-20" transform="translate(231.494141 0)"/>
      <use xlink:href="#DejaVuSans-Bold-52" transform="translate(266.308594 0)"/>
      <use xlink:href="#DejaVuSans-Bold-75" transform="translate(343.310547 0)"/>
      <use xlink:href="#DejaVuSans-Bold-6e" transform="translate(414.501953 0)"/>
      <use xlink:href="#DejaVuSans-Bold-74" transform="translate(485.693359 0)"/>
      <use xlink:href="#DejaVuSans-Bold-69" transform="translate(533.496094 0)"/>
      <use xlink:href="#DejaVuSans-Bold-6d" transform="translate(567.773438 0)"/>
      <use xlink:href="#DejaVuSans-Bold-65" transform="translate(671.972656 0)"/>
      <use xlink:href="#DejaVuSans-Bold-20" transform="translate(739.794922 0)"/>
      <use xlink:href="#DejaVuSans-Bold-28" transform="translate(774.609375 0)"/>
      <use xlink:href="#DejaVuSans-Bold-73" transform="translate(820.3125 0)"/>
      <use xlink:href="#DejaVuSans-Bold-65" transform="translate(879.833984 0)"/>
      <use xlink:href="#DejaVuSans-Bold-63" transform="translate(947.65625 0)"/>
      <use xlink:href="#DejaVuSans-Bold-6f" transform="translate(1006.933594 0)"/>
      <use xlink:href="#DejaVuSans-Bold-6e" transform="translate(1075.634766 0)"/>
      <use xlink:href="#DejaVuSans-Bold-64" transform="translate(1146.826172 0)"/>
      <use xlink:href="#DejaVuSans-Bold-73" transform="translate(1218.408203 0)"/>
      <use xlink:href="#DejaVuSans-Bold-29" transform="translate(1277.929688 0)"/>
     </g>
    </g>
   </g>
   <g id="patch_3">
    <path d="M 79.633068 413.61153 
L 168.775259 413.61153 
L 168.775259 407.709697 
L 79.633068 407.709697 
z
" clip-path="url(#p94e1eb1ad1)" style="fill: #4682b4; opacity: 0.8"/>
   </g>
   <g id="patch_4">
    <path d="M 191.060807 413.61153 
L 280.202998 413.61153 
L 280.202998 406.580159 
L 191.060807 406.580159 
z
" clip-path="url(#p94e1eb1ad1)" style="fill: #4682b4; opacity: 0.8"/>
   </g>
   <g id="patch_5">
    <path d="M 302.488546 413.61153 
L 391.630737 413.61153 
L 391.630737 401.888125 
L 302.488546 401.888125 
z
" clip-path="url(#p94e1eb1ad1)" style="fill: #4682b4; opacity: 0.8"/>
   </g>
   <g id="patch_6">
    <path d="M 413.916285 413.61153 
L 503.058476 413.61153 
L 503.058476 384.076491 
L 413.916285 384.076491 
z
" clip-path="url(#p94e1eb1ad1)" style="fill: #4682b4; opacity: 0.8"/>
   </g>
   <g id="patch_7">
    <path d="M 525.344024 413.61153 
L 614.486215 413.61153 
L 614.486215 378.755743 
L 525.344024 378.755743 
z
" clip-path="url(#p94e1eb1ad1)" style="fill: #4682b4; opacity: 0.8"/>
   </g>
   <g id="patch_8">
    <path d="M 636.771763 413.61153 
L 725.913954 413.61153 
L 725.913954 331.060374 
L 636.771763 331.060374 
z
" clip-path="url(#p94e1eb1ad1)" style="fill: #4682b4; opacity: 0.8"/>
   </g>
   <g id="patch_9">
    <path d="M 748.199502 413.61153 
L 837.341693 413.61153 
L 837.341693 261.678925 
L 748.199502 261.678925 
z
" clip-path="url(#p94e1eb1ad1)" style="fill: #4682b4; opacity: 0.8"/>
   </g>
   <g id="patch_10">
    <path d="M 859.627241 413.61153 
L 948.769432 413.61153 
L 948.769432 42.398466 
L 859.627241 42.398466 
z
" clip-path="url(#p94e1eb1ad1)" style="fill: #4682b4; opacity: 0.8"/>
   </g>
   <g id="patch_11">
    <path d="M 36.17625 413.61153 
L 36.17625 23.837812 
" style="fill: none; stroke: #000000; stroke-width: 0.8; stroke-linejoin: miter; stroke-linecap: square"/>
   </g>
   <g id="patch_12">
    <path d="M 992.22625 413.61153 
L 992.22625 23.837812 
" style="fill: none; stroke: #000000; stroke-width: 0.8; stroke-linejoin: miter; stroke-linecap: square"/>
   </g>
   <g id="patch_13">
    <path d="M 36.17625 413.61153 
L 992.22625 413.61153 
" style="fill: none; stroke: #000000; stroke-width: 0.8; stroke-linejoin: miter; stroke-linecap: square"/>
   </g>
   <g id="patch_14">
    <path d="M 36.17625 23.837812 
L 992.22625 23.837812 
" style="fill: none; stroke: #000000; stroke-width: 0.8; stroke-linejoin: miter; stroke-linecap: square"/>
   </g>
   <g id="text_18">
    <!-- 0.1048s -->
    <g transform="translate(108.124164 406.045947) scale(0.08 -0.08)">
     <defs>
      <path id="DejaVuSans-2e" d="M 684 794 
L 1344 794 
L 1344 0 
L 684 0 
L 684 794 
z
" transform="scale(0.015625)"/>
      <path id="DejaVuSans-73" d="M 2834 3397 
L 2834 2853 
Q 2591 2978 2328 3040 
Q 2066 3103 1784 3103 
Q 1356 3103 1142 2972 
Q 928 2841 928 2578 
Q 928 2378 1081 2264 
Q 1234 2150 1697 2047 
L 1894 2003 
Q 2506 1872 2764 1633 
Q 3022 1394 3022 966 
Q 3022 478 2636 193 
Q 2250 -91 1575 -91 
Q 1294 -91 989 -36 
Q 684 19 347 128 
L 347 722 
Q 666 556 975 473 
Q 1284 391 1588 391 
Q 1994 391 2212 530 
Q 2431 669 2431 922 
Q 2431 1156 2273 1281 
Q 2116 1406 1581 1522 
L 1381 1569 
Q 847 1681 609 1914 
Q 372 2147 372 2553 
Q 372 3047 722 3315 
Q 1072 3584 1716 3584 
Q 2034 3584 2315 3537 
Q 2597 3491 2834 3397 
z
" transform="scale(0.015625)"/>
     </defs>
     <use xlink:href="#DejaVuSans-30"/>
     <use xlink:href="#DejaVuSans-2e" transform="translate(63.623047 0)"/>
     <use xlink:href="#DejaVuSans-31" transform="translate(95.410156 0)"/>
     <use xlink:href="#DejaVuSans-30" transform="translate(159.033203 0)"/>
     <use xlink:href="#DejaVuSans-34" transform="translate(222.65625 0)"/>
     <use xlink:href="#DejaVuSans-38" transform="translate(286.279297 0)"/>
     <use xlink:href="#DejaVuSans-73" transform="translate(349.902344 0)"/>
    </g>
   </g>
   <g id="text_19">
    <!-- 0.1248s -->
    <g transform="translate(219.551903 404.916409) scale(0.08 -0.08)">
     <use xlink:href="#DejaVuSans-30"/>
     <use xlink:href="#DejaVuSans-2e" transform="translate(63.623047 0)"/>
     <use xlink:href="#DejaVuSans-31" transform="translate(95.410156 0)"/>
     <use xlink:href="#DejaVuSans-32" transform="translate(159.033203 0)"/>
     <use xlink:href="#DejaVuSans-34" transform="translate(222.65625 0)"/>
     <use xlink:href="#DejaVuSans-38" transform="translate(286.279297 0)"/>
     <use xlink:href="#DejaVuSans-73" transform="translate(349.902344 0)"/>
    </g>
   </g>
   <g id="text_20">
    <!-- 0.2081s -->
    <g transform="translate(330.979642 400.224375) scale(0.08 -0.08)">
     <use xlink:href="#DejaVuSans-30"/>
     <use xlink:href="#DejaVuSans-2e" transform="translate(63.623047 0)"/>
     <use xlink:href="#DejaVuSans-32" transform="translate(95.410156 0)"/>
     <use xlink:href="#DejaVuSans-30" transform="translate(159.033203 0)"/>
     <use xlink:href="#DejaVuSans-38" transform="translate(222.65625 0)"/>
     <use xlink:href="#DejaVuSans-31" transform="translate(286.279297 0)"/>
     <use xlink:href="#DejaVuSans-73" transform="translate(349.902344 0)"/>
    </g>
   </g>
   <g id="text_21">
    <!-- 0.5243s -->
    <g transform="translate(442.407381 382.412741) scale(0.08 -0.08)">
     <use xlink:href="#DejaVuSans-30"/>
     <use xlink:href="#DejaVuSans-2e" transform="translate(63.623047 0)"/>
     <use xlink:href="#DejaVuSans-35" transform="translate(95.410156 0)"/>
     <use xlink:href="#DejaVuSans-32" transform="translate(159.033203 0)"/>
     <use xlink:href="#DejaVuSans-34" transform="translate(222.65625 0)"/>
     <use xlink:href="#DejaVuSans-33" transform="translate(286.279297 0)"/>
     <use xlink:href="#DejaVuSans-73" transform="translate(349.902344 0)"/>
    </g>
   </g>
   <g id="text_22">
    <!-- 0.6188s -->
    <g transform="translate(553.835119 377.091993) scale(0.08 -0.08)">
     <use xlink:href="#DejaVuSans-30"/>
     <use xlink:href="#DejaVuSans-2e" transform="translate(63.623047 0)"/>
     <use xlink:href="#DejaVuSans-36" transform="translate(95.410156 0)"/>
     <use xlink:href="#DejaVuSans-31" transform="translate(159.033203 0)"/>
     <use xlink:href="#DejaVuSans-38" transform="translate(222.65625 0)"/>
     <use xlink:href="#DejaVuSans-38" transform="translate(286.279297 0)"/>
     <use xlink:href="#DejaVuSans-73" transform="translate(349.902344 0)"/>
    </g>
   </g>
   <g id="text_23">
    <!-- 1.4655s -->
    <g transform="translate(665.262858 329.396624) scale(0.08 -0.08)">
     <use xlink:href="#DejaVuSans-31"/>
     <use xlink:href="#DejaVuSans-2e" transform="translate(63.623047 0)"/>
     <use xlink:href="#DejaVuSans-34" transform="translate(95.410156 0)"/>
     <use xlink:href="#DejaVuSans-36" transform="translate(159.033203 0)"/>
     <use xlink:href="#DejaVuSans-35" transform="translate(222.65625 0)"/>
     <use xlink:href="#DejaVuSans-35" transform="translate(286.279297 0)"/>
     <use xlink:href="#DejaVuSans-73" transform="translate(349.902344 0)"/>
    </g>
   </g>
   <g id="text_24">
    <!-- 2.6972s -->
    <g transform="translate(776.690597 260.015175) scale(0.08 -0.08)">
     <use xlink:href="#DejaVuSans-32"/>
     <use xlink:href="#DejaVuSans-2e" transform="translate(63.623047 0)"/>
     <use xlink:href="#DejaVuSans-36" transform="translate(95.410156 0)"/>
     <use xlink:href="#DejaVuSans-39" transform="translate(159.033203 0)"/>
     <use xlink:href="#DejaVuSans-37" transform="translate(222.65625 0)"/>
     <use xlink:href="#DejaVuSans-32" transform="translate(286.279297 0)"/>
     <use xlink:href="#DejaVuSans-73" transform="translate(349.902344 0)"/>
    </g>
   </g>
   <g id="text_25">
    <!-- 6.5900s -->
    <g transform="translate(888.118336 40.734716) scale(0.08 -0.08)">
     <use xlink:href="#DejaVuSans-36"/>
     <use xlink:href="#DejaVuSans-2e" transform="translate(63.623047 0)"/>
     <use xlink:href="#DejaVuSans-35" transform="translate(95.410156 0)"/>
     <use xlink:href="#DejaVuSans-39" transform="translate(159.033203 0)"/>
     <use xlink:href="#DejaVuSans-30" transform="translate(222.65625 0)"/>
     <use xlink:href="#DejaVuSans-30" transform="translate(286.279297 0)"/>
     <use xlink:href="#DejaVuSans-73" transform="translate(349.902344 0)"/>
    </g>
   </g>
   <g id="text_26">
    <g id="patch_15">
     <path d="M 108.954554 387.536913 
L 139.453773 387.536913 
Q 141.553773 387.536913 141.553773 385.436913 
L 141.553773 370.823757 
Q 141.553773 368.723757 139.453773 368.723757 
L 108.954554 368.723757 
Q 106.854554 368.723757 106.854554 370.823757 
L 106.854554 385.436913 
Q 106.854554 387.536913 108.954554 387.536913 
z
" style="fill: #ffffe0; opacity: 0.9; stroke: #ffa500; stroke-linejoin: miter"/>
    </g>
    <!-- n=402 -->
    <g transform="translate(112.372523 376.142663) scale(0.07 -0.07)">
     <defs>
      <path id="DejaVuSans-6e" d="M 3513 2113 
L 3513 0 
L 2938 0 
L 2938 2094 
Q 2938 2591 2744 2837 
Q 2550 3084 2163 3084 
Q 1697 3084 1428 2787 
Q 1159 2491 1159 1978 
L 1159 0 
L 581 0 
L 581 3500 
L 1159 3500 
L 1159 2956 
Q 1366 3272 1645 3428 
Q 1925 3584 2291 3584 
Q 2894 3584 3203 3211 
Q 3513 2838 3513 2113 
z
" transform="scale(0.015625)"/>
      <path id="DejaVuSans-3d" d="M 678 2906 
L 4684 2906 
L 4684 2381 
L 678 2381 
L 678 2906 
z
M 678 1631 
L 4684 1631 
L 4684 1100 
L 678 1100 
L 678 1631 
z
" transform="scale(0.015625)"/>
     </defs>
     <use xlink:href="#DejaVuSans-6e"/>
     <use xlink:href="#DejaVuSans-3d" transform="translate(63.378906 0)"/>
     <use xlink:href="#DejaVuSans-34" transform="translate(147.167969 0)"/>
     <use xlink:href="#DejaVuSans-30" transform="translate(210.791016 0)"/>
     <use xlink:href="#DejaVuSans-32" transform="translate(274.414062 0)"/>
    </g>
    <!-- m=1180 -->
    <g transform="translate(108.954554 383.981132) scale(0.07 -0.07)">
     <defs>
      <path id="DejaVuSans-6d" d="M 3328 2828 
Q 3544 3216 3844 3400 
Q 4144 3584 4550 3584 
Q 5097 3584 5394 3201 
Q 5691 2819 5691 2113 
L 5691 0 
L 5113 0 
L 5113 2094 
Q 5113 2597 4934 2840 
Q 4756 3084 4391 3084 
Q 3944 3084 3684 2787 
Q 3425 2491 3425 1978 
L 3425 0 
L 2847 0 
L 2847 2094 
Q 2847 2600 2669 2842 
Q 2491 3084 2119 3084 
Q 1678 3084 1418 2786 
Q 1159 2488 1159 1978 
L 1159 0 
L 581 0 
L 581 3500 
L 1159 3500 
L 1159 2956 
Q 1356 3278 1631 3431 
Q 1906 3584 2284 3584 
Q 2666 3584 2933 3390 
Q 3200 3197 3328 2828 
z
" transform="scale(0.015625)"/>
     </defs>
     <use xlink:href="#DejaVuSans-6d"/>
     <use xlink:href="#DejaVuSans-3d" transform="translate(97.412109 0)"/>
     <use xlink:href="#DejaVuSans-31" transform="translate(181.201172 0)"/>
     <use xlink:href="#DejaVuSans-31" transform="translate(244.824219 0)"/>
     <use xlink:href="#DejaVuSans-38" transform="translate(308.447266 0)"/>
     <use xlink:href="#DejaVuSans-30" transform="translate(372.070312 0)"/>
    </g>
   </g>
   <g id="text_27">
    <g id="patch_16">
     <path d="M 220.382293 386.407375 
L 250.881512 386.407375 
Q 252.981512 386.407375 252.981512 384.307375 
L 252.981512 369.694219 
Q 252.981512 367.594219 250.881512 367.594219 
L 220.382293 367.594219 
Q 218.282293 367.594219 218.282293 369.694219 
L 218.282293 384.307375 
Q 218.282293 386.407375 220.382293 386.407375 
z
" style="fill: #ffffe0; opacity: 0.9; stroke: #ffa500; stroke-linejoin: miter"/>
    </g>
    <!-- n=1602 -->
    <g transform="translate(221.573387 375.013125) scale(0.07 -0.07)">
     <use xlink:href="#DejaVuSans-6e"/>
     <use xlink:href="#DejaVuSans-3d" transform="translate(63.378906 0)"/>
     <use xlink:href="#DejaVuSans-31" transform="translate(147.167969 0)"/>
     <use xlink:href="#DejaVuSans-36" transform="translate(210.791016 0)"/>
     <use xlink:href="#DejaVuSans-30" transform="translate(274.414062 0)"/>
     <use xlink:href="#DejaVuSans-32" transform="translate(338.037109 0)"/>
    </g>
    <!-- m=4760 -->
    <g transform="translate(220.382293 382.851594) scale(0.07 -0.07)">
     <use xlink:href="#DejaVuSans-6d"/>
     <use xlink:href="#DejaVuSans-3d" transform="translate(97.412109 0)"/>
     <use xlink:href="#DejaVuSans-34" transform="translate(181.201172 0)"/>
     <use xlink:href="#DejaVuSans-37" transform="translate(244.824219 0)"/>
     <use xlink:href="#DejaVuSans-36" transform="translate(308.447266 0)"/>
     <use xlink:href="#DejaVuSans-30" transform="translate(372.070312 0)"/>
    </g>
   </g>
   <g id="text_28">
    <g id="patch_17">
     <path d="M 329.583157 381.715341 
L 364.536126 381.715341 
Q 366.636126 381.715341 366.636126 379.615341 
L 366.636126 365.002184 
Q 366.636126 362.902184 364.536126 362.902184 
L 329.583157 362.902184 
Q 327.483157 362.902184 327.483157 365.002184 
L 327.483157 379.615341 
Q 327.483157 381.715341 329.583157 381.715341 
z
" style="fill: #ffffe0; opacity: 0.9; stroke: #ffa500; stroke-linejoin: miter"/>
    </g>
    <!-- n=3602 -->
    <g transform="translate(333.001126 370.321091) scale(0.07 -0.07)">
     <use xlink:href="#DejaVuSans-6e"/>
     <use xlink:href="#DejaVuSans-3d" transform="translate(63.378906 0)"/>
     <use xlink:href="#DejaVuSans-33" transform="translate(147.167969 0)"/>
     <use xlink:href="#DejaVuSans-36" transform="translate(210.791016 0)"/>
     <use xlink:href="#DejaVuSans-30" transform="translate(274.414062 0)"/>
     <use xlink:href="#DejaVuSans-32" transform="translate(338.037109 0)"/>
    </g>
    <!-- m=10740 -->
    <g transform="translate(329.583157 378.159559) scale(0.07 -0.07)">
     <use xlink:href="#DejaVuSans-6d"/>
     <use xlink:href="#DejaVuSans-3d" transform="translate(97.412109 0)"/>
     <use xlink:href="#DejaVuSans-31" transform="translate(181.201172 0)"/>
     <use xlink:href="#DejaVuSans-30" transform="translate(244.824219 0)"/>
     <use xlink:href="#DejaVuSans-37" transform="translate(308.447266 0)"/>
     <use xlink:href="#DejaVuSans-34" transform="translate(372.070312 0)"/>
     <use xlink:href="#DejaVuSans-30" transform="translate(435.693359 0)"/>
    </g>
   </g>
   <g id="text_29">
    <g id="patch_18">
     <path d="M 441.010896 363.903707 
L 475.963865 363.903707 
Q 478.063865 363.903707 478.063865 361.803707 
L 478.063865 347.190551 
Q 478.063865 345.090551 475.963865 345.090551 
L 441.010896 345.090551 
Q 438.910896 345.090551 438.910896 347.190551 
L 438.910896 361.803707 
Q 438.910896 363.903707 441.010896 363.903707 
z
" style="fill: #ffffe0; opacity: 0.9; stroke: #ffa500; stroke-linejoin: miter"/>
    </g>
    <!-- n=6402 -->
    <g transform="translate(444.428865 352.509457) scale(0.07 -0.07)">
     <use xlink:href="#DejaVuSans-6e"/>
     <use xlink:href="#DejaVuSans-3d" transform="translate(63.378906 0)"/>
     <use xlink:href="#DejaVuSans-36" transform="translate(147.167969 0)"/>
     <use xlink:href="#DejaVuSans-34" transform="translate(210.791016 0)"/>
     <use xlink:href="#DejaVuSans-30" transform="translate(274.414062 0)"/>
     <use xlink:href="#DejaVuSans-32" transform="translate(338.037109 0)"/>
    </g>
    <!-- m=19120 -->
    <g transform="translate(441.010896 360.347926) scale(0.07 -0.07)">
     <use xlink:href="#DejaVuSans-6d"/>
     <use xlink:href="#DejaVuSans-3d" transform="translate(97.412109 0)"/>
     <use xlink:href="#DejaVuSans-31" transform="translate(181.201172 0)"/>
     <use xlink:href="#DejaVuSans-39" transform="translate(244.824219 0)"/>
     <use xlink:href="#DejaVuSans-31" transform="translate(308.447266 0)"/>
     <use xlink:href="#DejaVuSans-32" transform="translate(372.070312 0)"/>
     <use xlink:href="#DejaVuSans-30" transform="translate(435.693359 0)"/>
    </g>
   </g>
   <g id="text_30">
    <g id="patch_19">
     <path d="M 552.438635 358.582959 
L 587.391604 358.582959 
Q 589.491604 358.582959 589.491604 356.482959 
L 589.491604 341.869803 
Q 589.491604 339.769803 587.391604 339.769803 
L 552.438635 339.769803 
Q 550.338635 339.769803 550.338635 341.869803 
L 550.338635 356.482959 
Q 550.338635 358.582959 552.438635 358.582959 
z
" style="fill: #ffffe0; opacity: 0.9; stroke: #ffa500; stroke-linejoin: miter"/>
    </g>
    <!-- n=10002 -->
    <g transform="translate(553.629729 347.188709) scale(0.07 -0.07)">
     <use xlink:href="#DejaVuSans-6e"/>
     <use xlink:href="#DejaVuSans-3d" transform="translate(63.378906 0)"/>
     <use xlink:href="#DejaVuSans-31" transform="translate(147.167969 0)"/>
     <use xlink:href="#DejaVuSans-30" transform="translate(210.791016 0)"/>
     <use xlink:href="#DejaVuSans-30" transform="translate(274.414062 0)"/>
     <use xlink:href="#DejaVuSans-30" transform="translate(338.037109 0)"/>
     <use xlink:href="#DejaVuSans-32" transform="translate(401.660156 0)"/>
    </g>
    <!-- m=29900 -->
    <g transform="translate(552.438635 355.027178) scale(0.07 -0.07)">
     <use xlink:href="#DejaVuSans-6d"/>
     <use xlink:href="#DejaVuSans-3d" transform="translate(97.412109 0)"/>
     <use xlink:href="#DejaVuSans-32" transform="translate(181.201172 0)"/>
     <use xlink:href="#DejaVuSans-39" transform="translate(244.824219 0)"/>
     <use xlink:href="#DejaVuSans-39" transform="translate(308.447266 0)"/>
     <use xlink:href="#DejaVuSans-30" transform="translate(372.070312 0)"/>
     <use xlink:href="#DejaVuSans-30" transform="translate(435.693359 0)"/>
    </g>
   </g>
   <g id="text_31">
    <g id="patch_20">
     <path d="M 663.866374 381.74253 
L 698.819343 381.74253 
Q 700.919343 381.74253 700.919343 379.64253 
L 700.919343 365.029374 
Q 700.919343 362.929374 698.819343 362.929374 
L 663.866374 362.929374 
Q 661.766374 362.929374 661.766374 365.029374 
L 661.766374 379.64253 
Q 661.766374 381.74253 663.866374 381.74253 
z
" style="fill: #ffffe0; opacity: 0.9; stroke: #ffa500; stroke-linejoin: miter"/>
    </g>
    <!-- n=15627 -->
    <g transform="translate(665.057468 370.34828) scale(0.07 -0.07)">
     <use xlink:href="#DejaVuSans-6e"/>
     <use xlink:href="#DejaVuSans-3d" transform="translate(63.378906 0)"/>
     <use xlink:href="#DejaVuSans-31" transform="translate(147.167969 0)"/>
     <use xlink:href="#DejaVuSans-35" transform="translate(210.791016 0)"/>
     <use xlink:href="#DejaVuSans-36" transform="translate(274.414062 0)"/>
     <use xlink:href="#DejaVuSans-32" transform="translate(338.037109 0)"/>
     <use xlink:href="#DejaVuSans-37" transform="translate(401.660156 0)"/>
    </g>
    <!-- m=46750 -->
    <g transform="translate(663.866374 378.186749) scale(0.07 -0.07)">
     <use xlink:href="#DejaVuSans-6d"/>
     <use xlink:href="#DejaVuSans-3d" transform="translate(97.412109 0)"/>
     <use xlink:href="#DejaVuSans-34" transform="translate(181.201172 0)"/>
     <use xlink:href="#DejaVuSans-36" transform="translate(244.824219 0)"/>
     <use xlink:href="#DejaVuSans-37" transform="translate(308.447266 0)"/>
     <use xlink:href="#DejaVuSans-35" transform="translate(372.070312 0)"/>
     <use xlink:href="#DejaVuSans-30" transform="translate(435.693359 0)"/>
    </g>
   </g>
   <g id="text_32">
    <g id="patch_21">
     <path d="M 775.294113 347.051806 
L 810.247082 347.051806 
Q 812.347082 347.051806 812.347082 344.951806 
L 812.347082 330.338649 
Q 812.347082 328.238649 810.247082 328.238649 
L 775.294113 328.238649 
Q 773.194113 328.238649 773.194113 330.338649 
L 773.194113 344.951806 
Q 773.194113 347.051806 775.294113 347.051806 
z
" style="fill: #ffffe0; opacity: 0.9; stroke: #ffa500; stroke-linejoin: miter"/>
    </g>
    <!-- n=22502 -->
    <g transform="translate(776.485207 335.657556) scale(0.07 -0.07)">
     <use xlink:href="#DejaVuSans-6e"/>
     <use xlink:href="#DejaVuSans-3d" transform="translate(63.378906 0)"/>
     <use xlink:href="#DejaVuSans-32" transform="translate(147.167969 0)"/>
     <use xlink:href="#DejaVuSans-32" transform="translate(210.791016 0)"/>
     <use xlink:href="#DejaVuSans-35" transform="translate(274.414062 0)"/>
     <use xlink:href="#DejaVuSans-30" transform="translate(338.037109 0)"/>
     <use xlink:href="#DejaVuSans-32" transform="translate(401.660156 0)"/>
    </g>
    <!-- m=67350 -->
    <g transform="translate(775.294113 343.496024) scale(0.07 -0.07)">
     <use xlink:href="#DejaVuSans-6d"/>
     <use xlink:href="#DejaVuSans-3d" transform="translate(97.412109 0)"/>
     <use xlink:href="#DejaVuSans-36" transform="translate(181.201172 0)"/>
     <use xlink:href="#DejaVuSans-37" transform="translate(244.824219 0)"/>
     <use xlink:href="#DejaVuSans-33" transform="translate(308.447266 0)"/>
     <use xlink:href="#DejaVuSans-35" transform="translate(372.070312 0)"/>
     <use xlink:href="#DejaVuSans-30" transform="translate(435.693359 0)"/>
    </g>
   </g>
   <g id="text_33">
    <g id="patch_22">
     <path d="M 884.494977 237.411576 
L 923.901696 237.411576 
Q 926.001696 237.411576 926.001696 235.311576 
L 926.001696 220.69842 
Q 926.001696 218.59842 923.901696 218.59842 
L 884.494977 218.59842 
Q 882.394977 218.59842 882.394977 220.69842 
L 882.394977 235.311576 
Q 882.394977 237.411576 884.494977 237.411576 
z
" style="fill: #ffffe0; opacity: 0.9; stroke: #ffa500; stroke-linejoin: miter"/>
    </g>
    <!-- n=40002 -->
    <g transform="translate(887.912946 226.017326) scale(0.07 -0.07)">
     <use xlink:href="#DejaVuSans-6e"/>
     <use xlink:href="#DejaVuSans-3d" transform="translate(63.378906 0)"/>
     <use xlink:href="#DejaVuSans-34" transform="translate(147.167969 0)"/>
     <use xlink:href="#DejaVuSans-30" transform="translate(210.791016 0)"/>
     <use xlink:href="#DejaVuSans-30" transform="translate(274.414062 0)"/>
     <use xlink:href="#DejaVuSans-30" transform="translate(338.037109 0)"/>
     <use xlink:href="#DejaVuSans-32" transform="translate(401.660156 0)"/>
    </g>
    <!-- m=119800 -->
    <g transform="translate(884.494977 233.855795) scale(0.07 -0.07)">
     <use xlink:href="#DejaVuSans-6d"/>
     <use xlink:href="#DejaVuSans-3d" transform="translate(97.412109 0)"/>
     <use xlink:href="#DejaVuSans-31" transform="translate(181.201172 0)"/>
     <use xlink:href="#DejaVuSans-31" transform="translate(244.824219 0)"/>
     <use xlink:href="#DejaVuSans-39" transform="translate(308.447266 0)"/>
     <use xlink:href="#DejaVuSans-38" transform="translate(372.070312 0)"/>
     <use xlink:href="#DejaVuSans-30" transform="translate(435.693359 0)"/>
     <use xlink:href="#DejaVuSans-30" transform="translate(499.316406 0)"/>
    </g>
   </g>
   <g id="text_34">
    <g id="patch_23">
     <path d="M 108.809008 349.515607 
L 139.59932 349.515607 
Q 140.79932 349.515607 140.79932 348.315607 
L 140.79932 342.508732 
Q 140.79932 341.308732 139.59932 341.308732 
L 108.809008 341.308732 
Q 107.609008 341.308732 107.609008 342.508732 
L 107.609008 348.315607 
Q 107.609008 349.515607 108.809008 349.515607 
z
" style="fill: #006400; opacity: 0.9; stroke: #000000; stroke-linejoin: miter"/>
    </g>
    <!-- f=20,000 -->
    <g style="fill: #ffffff" transform="translate(108.809008 347.067794) scale(0.06 -0.06)">
     <defs>
      <path id="DejaVuSans-Bold-66" d="M 2841 4863 
L 2841 4128 
L 2222 4128 
Q 1984 4128 1890 4042 
Q 1797 3956 1797 3744 
L 1797 3500 
L 2753 3500 
L 2753 2700 
L 1797 2700 
L 1797 0 
L 678 0 
L 678 2700 
L 122 2700 
L 122 3500 
L 678 3500 
L 678 3744 
Q 678 4316 997 4589 
Q 1316 4863 1984 4863 
L 2841 4863 
z
" transform="scale(0.015625)"/>
      <path id="DejaVuSans-Bold-3d" d="M 678 3084 
L 4684 3084 
L 4684 2350 
L 678 2350 
L 678 3084 
z
M 678 1663 
L 4684 1663 
L 4684 922 
L 678 922 
L 678 1663 
z
" transform="scale(0.015625)"/>
      <path id="DejaVuSans-Bold-32" d="M 1844 884 
L 3897 884 
L 3897 0 
L 506 0 
L 506 884 
L 2209 2388 
Q 2438 2594 2547 2791 
Q 2656 2988 2656 3200 
Q 2656 3528 2436 3728 
Q 2216 3928 1850 3928 
Q 1569 3928 1234 3808 
Q 900 3688 519 3450 
L 519 4475 
Q 925 4609 1322 4679 
Q 1719 4750 2100 4750 
Q 2938 4750 3402 4381 
Q 3866 4013 3866 3353 
Q 3866 2972 3669 2642 
Q 3472 2313 2841 1759 
L 1844 884 
z
" transform="scale(0.015625)"/>
      <path id="DejaVuSans-Bold-30" d="M 2944 2338 
Q 2944 3213 2780 3570 
Q 2616 3928 2228 3928 
Q 1841 3928 1675 3570 
Q 1509 3213 1509 2338 
Q 1509 1453 1675 1090 
Q 1841 728 2228 728 
Q 2613 728 2778 1090 
Q 2944 1453 2944 2338 
z
M 4147 2328 
Q 4147 1169 3647 539 
Q 3147 -91 2228 -91 
Q 1306 -91 806 539 
Q 306 1169 306 2328 
Q 306 3491 806 4120 
Q 1306 4750 2228 4750 
Q 3147 4750 3647 4120 
Q 4147 3491 4147 2328 
z
" transform="scale(0.015625)"/>
      <path id="DejaVuSans-Bold-2c" d="M 653 1209 
L 1778 1209 
L 1778 256 
L 1006 -909 
L 341 -909 
L 653 256 
L 653 1209 
z
" transform="scale(0.015625)"/>
     </defs>
     <use xlink:href="#DejaVuSans-Bold-66"/>
     <use xlink:href="#DejaVuSans-Bold-3d" transform="translate(43.505859 0)"/>
     <use xlink:href="#DejaVuSans-Bold-32" transform="translate(127.294922 0)"/>
     <use xlink:href="#DejaVuSans-Bold-30" transform="translate(196.875 0)"/>
     <use xlink:href="#DejaVuSans-Bold-2c" transform="translate(266.455078 0)"/>
     <use xlink:href="#DejaVuSans-Bold-30" transform="translate(304.443359 0)"/>
     <use xlink:href="#DejaVuSans-Bold-30" transform="translate(374.023438 0)"/>
     <use xlink:href="#DejaVuSans-Bold-30" transform="translate(443.603516 0)"/>
    </g>
   </g>
   <g id="text_35">
    <g id="patch_24">
     <path d="M 220.236746 348.386069 
L 251.027059 348.386069 
Q 252.227059 348.386069 252.227059 347.186069 
L 252.227059 341.379194 
Q 252.227059 340.179194 251.027059 340.179194 
L 220.236746 340.179194 
Q 219.036746 340.179194 219.036746 341.379194 
L 219.036746 347.186069 
Q 219.036746 348.386069 220.236746 348.386069 
z
" style="fill: #006400; opacity: 0.9; stroke: #000000; stroke-linejoin: miter"/>
    </g>
    <!-- f=40,000 -->
    <g style="fill: #ffffff" transform="translate(220.236746 345.938256) scale(0.06 -0.06)">
     <defs>
      <path id="DejaVuSans-Bold-34" d="M 2356 3675 
L 1038 1722 
L 2356 1722 
L 2356 3675 
z
M 2156 4666 
L 3494 4666 
L 3494 1722 
L 4159 1722 
L 4159 850 
L 3494 850 
L 3494 0 
L 2356 0 
L 2356 850 
L 288 850 
L 288 1881 
L 2156 4666 
z
" transform="scale(0.015625)"/>
     </defs>
     <use xlink:href="#DejaVuSans-Bold-66"/>
     <use xlink:href="#DejaVuSans-Bold-3d" transform="translate(43.505859 0)"/>
     <use xlink:href="#DejaVuSans-Bold-34" transform="translate(127.294922 0)"/>
     <use xlink:href="#DejaVuSans-Bold-30" transform="translate(196.875 0)"/>
     <use xlink:href="#DejaVuSans-Bold-2c" transform="translate(266.455078 0)"/>
     <use xlink:href="#DejaVuSans-Bold-30" transform="translate(304.443359 0)"/>
     <use xlink:href="#DejaVuSans-Bold-30" transform="translate(374.023438 0)"/>
     <use xlink:href="#DejaVuSans-Bold-30" transform="translate(443.603516 0)"/>
    </g>
   </g>
   <g id="text_36">
    <g id="patch_25">
     <path d="M 331.664485 343.694034 
L 362.454798 343.694034 
Q 363.654798 343.694034 363.654798 342.494034 
L 363.654798 336.687159 
Q 363.654798 335.487159 362.454798 335.487159 
L 331.664485 335.487159 
Q 330.464485 335.487159 330.464485 336.687159 
L 330.464485 342.494034 
Q 330.464485 343.694034 331.664485 343.694034 
z
" style="fill: #006400; opacity: 0.9; stroke: #000000; stroke-linejoin: miter"/>
    </g>
    <!-- f=60,000 -->
    <g style="fill: #ffffff" transform="translate(331.664485 341.246222) scale(0.06 -0.06)">
     <defs>
      <path id="DejaVuSans-Bold-36" d="M 2316 2303 
Q 2000 2303 1842 2098 
Q 1684 1894 1684 1484 
Q 1684 1075 1842 870 
Q 2000 666 2316 666 
Q 2634 666 2792 870 
Q 2950 1075 2950 1484 
Q 2950 1894 2792 2098 
Q 2634 2303 2316 2303 
z
M 3803 4544 
L 3803 3681 
Q 3506 3822 3243 3889 
Q 2981 3956 2731 3956 
Q 2194 3956 1894 3657 
Q 1594 3359 1544 2772 
Q 1750 2925 1990 3001 
Q 2231 3078 2516 3078 
Q 3231 3078 3670 2659 
Q 4109 2241 4109 1563 
Q 4109 813 3618 361 
Q 3128 -91 2303 -91 
Q 1394 -91 895 523 
Q 397 1138 397 2266 
Q 397 3422 980 4083 
Q 1563 4744 2578 4744 
Q 2900 4744 3203 4694 
Q 3506 4644 3803 4544 
z
" transform="scale(0.015625)"/>
     </defs>
     <use xlink:href="#DejaVuSans-Bold-66"/>
     <use xlink:href="#DejaVuSans-Bold-3d" transform="translate(43.505859 0)"/>
     <use xlink:href="#DejaVuSans-Bold-36" transform="translate(127.294922 0)"/>
     <use xlink:href="#DejaVuSans-Bold-30" transform="translate(196.875 0)"/>
     <use xlink:href="#DejaVuSans-Bold-2c" transform="translate(266.455078 0)"/>
     <use xlink:href="#DejaVuSans-Bold-30" transform="translate(304.443359 0)"/>
     <use xlink:href="#DejaVuSans-Bold-30" transform="translate(374.023438 0)"/>
     <use xlink:href="#DejaVuSans-Bold-30" transform="translate(443.603516 0)"/>
    </g>
   </g>
   <g id="text_37">
    <g id="patch_26">
     <path d="M 443.092224 325.882401 
L 473.882537 325.882401 
Q 475.082537 325.882401 475.082537 324.682401 
L 475.082537 318.875526 
Q 475.082537 317.675526 473.882537 317.675526 
L 443.092224 317.675526 
Q 441.892224 317.675526 441.892224 318.875526 
L 441.892224 324.682401 
Q 441.892224 325.882401 443.092224 325.882401 
z
" style="fill: #006400; opacity: 0.9; stroke: #000000; stroke-linejoin: miter"/>
    </g>
    <!-- f=80,000 -->
    <g style="fill: #ffffff" transform="translate(443.092224 323.434589) scale(0.06 -0.06)">
     <defs>
      <path id="DejaVuSans-Bold-38" d="M 2228 2088 
Q 1891 2088 1709 1903 
Q 1528 1719 1528 1375 
Q 1528 1031 1709 848 
Q 1891 666 2228 666 
Q 2563 666 2741 848 
Q 2919 1031 2919 1375 
Q 2919 1722 2741 1905 
Q 2563 2088 2228 2088 
z
M 1350 2484 
Q 925 2613 709 2878 
Q 494 3144 494 3541 
Q 494 4131 934 4440 
Q 1375 4750 2228 4750 
Q 3075 4750 3515 4442 
Q 3956 4134 3956 3541 
Q 3956 3144 3739 2878 
Q 3522 2613 3097 2484 
Q 3572 2353 3814 2058 
Q 4056 1763 4056 1313 
Q 4056 619 3595 264 
Q 3134 -91 2228 -91 
Q 1319 -91 855 264 
Q 391 619 391 1313 
Q 391 1763 633 2058 
Q 875 2353 1350 2484 
z
M 1631 3419 
Q 1631 3141 1786 2991 
Q 1941 2841 2228 2841 
Q 2509 2841 2662 2991 
Q 2816 3141 2816 3419 
Q 2816 3697 2662 3845 
Q 2509 3994 2228 3994 
Q 1941 3994 1786 3844 
Q 1631 3694 1631 3419 
z
" transform="scale(0.015625)"/>
     </defs>
     <use xlink:href="#DejaVuSans-Bold-66"/>
     <use xlink:href="#DejaVuSans-Bold-3d" transform="translate(43.505859 0)"/>
     <use xlink:href="#DejaVuSans-Bold-38" transform="translate(127.294922 0)"/>
     <use xlink:href="#DejaVuSans-Bold-30" transform="translate(196.875 0)"/>
     <use xlink:href="#DejaVuSans-Bold-2c" transform="translate(266.455078 0)"/>
     <use xlink:href="#DejaVuSans-Bold-30" transform="translate(304.443359 0)"/>
     <use xlink:href="#DejaVuSans-Bold-30" transform="translate(374.023438 0)"/>
     <use xlink:href="#DejaVuSans-Bold-30" transform="translate(443.603516 0)"/>
    </g>
   </g>
   <g id="text_38">
    <g id="patch_27">
     <path d="M 552.432619 320.561653 
L 587.397619 320.561653 
Q 588.597619 320.561653 588.597619 319.361653 
L 588.597619 313.554778 
Q 588.597619 312.354778 587.397619 312.354778 
L 552.432619 312.354778 
Q 551.232619 312.354778 551.232619 313.554778 
L 551.232619 319.361653 
Q 551.232619 320.561653 552.432619 320.561653 
z
" style="fill: #006400; opacity: 0.9; stroke: #000000; stroke-linejoin: miter"/>
    </g>
    <!-- f=100,000 -->
    <g style="fill: #ffffff" transform="translate(552.432619 318.11384) scale(0.06 -0.06)">
     <defs>
      <path id="DejaVuSans-Bold-31" d="M 750 831 
L 1813 831 
L 1813 3847 
L 722 3622 
L 722 4441 
L 1806 4666 
L 2950 4666 
L 2950 831 
L 4013 831 
L 4013 0 
L 750 0 
L 750 831 
z
" transform="scale(0.015625)"/>
     </defs>
     <use xlink:href="#DejaVuSans-Bold-66"/>
     <use xlink:href="#DejaVuSans-Bold-3d" transform="translate(43.505859 0)"/>
     <use xlink:href="#DejaVuSans-Bold-31" transform="translate(127.294922 0)"/>
     <use xlink:href="#DejaVuSans-Bold-30" transform="translate(196.875 0)"/>
     <use xlink:href="#DejaVuSans-Bold-30" transform="translate(266.455078 0)"/>
     <use xlink:href="#DejaVuSans-Bold-2c" transform="translate(336.035156 0)"/>
     <use xlink:href="#DejaVuSans-Bold-30" transform="translate(374.023438 0)"/>
     <use xlink:href="#DejaVuSans-Bold-30" transform="translate(443.603516 0)"/>
     <use xlink:href="#DejaVuSans-Bold-30" transform="translate(513.183594 0)"/>
    </g>
   </g>
   <g id="text_39">
    <g id="patch_28">
     <path d="M 663.860358 409.039872 
L 698.825358 409.039872 
Q 700.025358 409.039872 700.025358 407.839872 
L 700.025358 402.032997 
Q 700.025358 400.832997 698.825358 400.832997 
L 663.860358 400.832997 
Q 662.660358 400.832997 662.660358 402.032997 
L 662.660358 407.839872 
Q 662.660358 409.039872 663.860358 409.039872 
z
" style="fill: #006400; opacity: 0.9; stroke: #000000; stroke-linejoin: miter"/>
    </g>
    <!-- f=125,000 -->
    <g style="fill: #ffffff" transform="translate(663.860358 406.59206) scale(0.06 -0.06)">
     <defs>
      <path id="DejaVuSans-Bold-35" d="M 678 4666 
L 3669 4666 
L 3669 3781 
L 1638 3781 
L 1638 3059 
Q 1775 3097 1914 3117 
Q 2053 3138 2203 3138 
Q 3056 3138 3531 2711 
Q 4006 2284 4006 1522 
Q 4006 766 3489 337 
Q 2972 -91 2053 -91 
Q 1656 -91 1267 -14 
Q 878 63 494 219 
L 494 1166 
Q 875 947 1217 837 
Q 1559 728 1863 728 
Q 2300 728 2551 942 
Q 2803 1156 2803 1522 
Q 2803 1891 2551 2103 
Q 2300 2316 1863 2316 
Q 1603 2316 1309 2248 
Q 1016 2181 678 2041 
L 678 4666 
z
" transform="scale(0.015625)"/>
     </defs>
     <use xlink:href="#DejaVuSans-Bold-66"/>
     <use xlink:href="#DejaVuSans-Bold-3d" transform="translate(43.505859 0)"/>
     <use xlink:href="#DejaVuSans-Bold-31" transform="translate(127.294922 0)"/>
     <use xlink:href="#DejaVuSans-Bold-32" transform="translate(196.875 0)"/>
     <use xlink:href="#DejaVuSans-Bold-35" transform="translate(266.455078 0)"/>
     <use xlink:href="#DejaVuSans-Bold-2c" transform="translate(336.035156 0)"/>
     <use xlink:href="#DejaVuSans-Bold-30" transform="translate(374.023438 0)"/>
     <use xlink:href="#DejaVuSans-Bold-30" transform="translate(443.603516 0)"/>
     <use xlink:href="#DejaVuSans-Bold-30" transform="translate(513.183594 0)"/>
    </g>
   </g>
   <g id="text_40">
    <g id="patch_29">
     <path d="M 775.288097 374.349148 
L 810.253097 374.349148 
Q 811.453097 374.349148 811.453097 373.149148 
L 811.453097 367.342273 
Q 811.453097 366.142273 810.253097 366.142273 
L 775.288097 366.142273 
Q 774.088097 366.142273 774.088097 367.342273 
L 774.088097 373.149148 
Q 774.088097 374.349148 775.288097 374.349148 
z
" style="fill: #006400; opacity: 0.9; stroke: #000000; stroke-linejoin: miter"/>
    </g>
    <!-- f=150,000 -->
    <g style="fill: #ffffff" transform="translate(775.288097 371.901335) scale(0.06 -0.06)">
     <use xlink:href="#DejaVuSans-Bold-66"/>
     <use xlink:href="#DejaVuSans-Bold-3d" transform="translate(43.505859 0)"/>
     <use xlink:href="#DejaVuSans-Bold-31" transform="translate(127.294922 0)"/>
     <use xlink:href="#DejaVuSans-Bold-35" transform="translate(196.875 0)"/>
     <use xlink:href="#DejaVuSans-Bold-30" transform="translate(266.455078 0)"/>
     <use xlink:href="#DejaVuSans-Bold-2c" transform="translate(336.035156 0)"/>
     <use xlink:href="#DejaVuSans-Bold-30" transform="translate(374.023438 0)"/>
     <use xlink:href="#DejaVuSans-Bold-30" transform="translate(443.603516 0)"/>
     <use xlink:href="#DejaVuSans-Bold-30" transform="translate(513.183594 0)"/>
    </g>
   </g>
   <g id="text_41">
    <g id="patch_30">
     <path d="M 886.715836 264.708918 
L 921.680836 264.708918 
Q 922.880836 264.708918 922.880836 263.508918 
L 922.880836 257.702043 
Q 922.880836 256.502043 921.680836 256.502043 
L 886.715836 256.502043 
Q 885.515836 256.502043 885.515836 257.702043 
L 885.515836 263.508918 
Q 885.515836 264.708918 886.715836 264.708918 
z
" style="fill: #006400; opacity: 0.9; stroke: #000000; stroke-linejoin: miter"/>
    </g>
    <!-- f=200,000 -->
    <g style="fill: #ffffff" transform="translate(886.715836 262.261106) scale(0.06 -0.06)">
     <use xlink:href="#DejaVuSans-Bold-66"/>
     <use xlink:href="#DejaVuSans-Bold-3d" transform="translate(43.505859 0)"/>
     <use xlink:href="#DejaVuSans-Bold-32" transform="translate(127.294922 0)"/>
     <use xlink:href="#DejaVuSans-Bold-30" transform="translate(196.875 0)"/>
     <use xlink:href="#DejaVuSans-Bold-30" transform="translate(266.455078 0)"/>
     <use xlink:href="#DejaVuSans-Bold-2c" transform="translate(336.035156 0)"/>
     <use xlink:href="#DejaVuSans-Bold-30" transform="translate(374.023438 0)"/>
     <use xlink:href="#DejaVuSans-Bold-30" transform="translate(443.603516 0)"/>
     <use xlink:href="#DejaVuSans-Bold-30" transform="translate(513.183594 0)"/>
    </g>
   </g>
   <g id="text_42">
    <!-- Scaling Ford Fulkerson - Mesh - Max Runtime vs Input Size (n×m) -->
    <g transform="translate(255.987656 17.837812) scale(0.14 -0.14)">
     <defs>
      <path id="DejaVuSans-Bold-6c" d="M 538 4863 
L 1656 4863 
L 1656 0 
L 538 0 
L 538 4863 
z
" transform="scale(0.015625)"/>
      <path id="DejaVuSans-Bold-46" d="M 588 4666 
L 3834 4666 
L 3834 3756 
L 1791 3756 
L 1791 2888 
L 3713 2888 
L 3713 1978 
L 1791 1978 
L 1791 0 
L 588 0 
L 588 4666 
z
" transform="scale(0.015625)"/>
      <path id="DejaVuSans-Bold-6b" d="M 538 4863 
L 1656 4863 
L 1656 2216 
L 2944 3500 
L 4244 3500 
L 2534 1894 
L 4378 0 
L 3022 0 
L 1656 1459 
L 1656 0 
L 538 0 
L 538 4863 
z
" transform="scale(0.015625)"/>
      <path id="DejaVuSans-Bold-2d" d="M 347 2297 
L 2309 2297 
L 2309 1388 
L 347 1388 
L 347 2297 
z
" transform="scale(0.015625)"/>
      <path id="DejaVuSans-Bold-68" d="M 4056 2131 
L 4056 0 
L 2931 0 
L 2931 347 
L 2931 1625 
Q 2931 2084 2911 2256 
Q 2891 2428 2841 2509 
Q 2775 2619 2662 2680 
Q 2550 2741 2406 2741 
Q 2056 2741 1856 2470 
Q 1656 2200 1656 1722 
L 1656 0 
L 538 0 
L 538 4863 
L 1656 4863 
L 1656 2988 
Q 1909 3294 2193 3439 
Q 2478 3584 2822 3584 
Q 3428 3584 3742 3212 
Q 4056 2841 4056 2131 
z
" transform="scale(0.015625)"/>
     </defs>
     <use xlink:href="#DejaVuSans-Bold-53"/>
     <use xlink:href="#DejaVuSans-Bold-63" transform="translate(72.021484 0)"/>
     <use xlink:href="#DejaVuSans-Bold-61" transform="translate(131.298828 0)"/>
     <use xlink:href="#DejaVuSans-Bold-6c" transform="translate(198.779297 0)"/>
     <use xlink:href="#DejaVuSans-Bold-69" transform="translate(233.056641 0)"/>
     <use xlink:href="#DejaVuSans-Bold-6e" transform="translate(267.333984 0)"/>
     <use xlink:href="#DejaVuSans-Bold-67" transform="translate(338.525391 0)"/>
     <use xlink:href="#DejaVuSans-Bold-20" transform="translate(410.107422 0)"/>
     <use xlink:href="#DejaVuSans-Bold-46" transform="translate(444.921875 0)"/>
     <use xlink:href="#DejaVuSans-Bold-6f" transform="translate(509.232422 0)"/>
     <use xlink:href="#DejaVuSans-Bold-72" transform="translate(577.933594 0)"/>
     <use xlink:href="#DejaVuSans-Bold-64" transform="translate(627.25 0)"/>
     <use xlink:href="#DejaVuSans-Bold-20" transform="translate(698.832031 0)"/>
     <use xlink:href="#DejaVuSans-Bold-46" transform="translate(733.646484 0)"/>
     <use xlink:href="#DejaVuSans-Bold-75" transform="translate(796.957031 0)"/>
     <use xlink:href="#DejaVuSans-Bold-6c" transform="translate(868.148438 0)"/>
     <use xlink:href="#DejaVuSans-Bold-6b" transform="translate(902.425781 0)"/>
     <use xlink:href="#DejaVuSans-Bold-65" transform="translate(966.304688 0)"/>
     <use xlink:href="#DejaVuSans-Bold-72" transform="translate(1034.126953 0)"/>
     <use xlink:href="#DejaVuSans-Bold-73" transform="translate(1083.443359 0)"/>
     <use xlink:href="#DejaVuSans-Bold-6f" transform="translate(1142.964844 0)"/>
     <use xlink:href="#DejaVuSans-Bold-6e" transform="translate(1211.666016 0)"/>
     <use xlink:href="#DejaVuSans-Bold-20" transform="translate(1282.857422 0)"/>
     <use xlink:href="#DejaVuSans-Bold-2d" transform="translate(1317.671875 0)"/>
     <use xlink:href="#DejaVuSans-Bold-20" transform="translate(1359.175781 0)"/>
     <use xlink:href="#DejaVuSans-Bold-4d" transform="translate(1393.990234 0)"/>
     <use xlink:href="#DejaVuSans-Bold-65" transform="translate(1493.501953 0)"/>
     <use xlink:href="#DejaVuSans-Bold-73" transform="translate(1561.324219 0)"/>
     <use xlink:href="#DejaVuSans-Bold-68" transform="translate(1620.845703 0)"/>
     <use xlink:href="#DejaVuSans-Bold-20" transform="translate(1692.037109 0)"/>
     <use xlink:href="#DejaVuSans-Bold-2d" transform="translate(1726.851562 0)"/>
     <use xlink:href="#DejaVuSans-Bold-20" transform="translate(1768.355469 0)"/>
     <use xlink:href="#DejaVuSans-Bold-4d" transform="translate(1803.169922 0)"/>
     <use xlink:href="#DejaVuSans-Bold-61" transform="translate(1902.681641 0)"/>
     <use xlink:href="#DejaVuSans-Bold-78" transform="translate(1970.162109 0)"/>
     <use xlink:href="#DejaVuSans-Bold-20" transform="translate(2034.664062 0)"/>
     <use xlink:href="#DejaVuSans-Bold-52" transform="translate(2069.478516 0)"/>
     <use xlink:href="#DejaVuSans-Bold-75" transform="translate(2146.480469 0)"/>
     <use xlink:href="#DejaVuSans-Bold-6e" transform="translate(2217.671875 0)"/>
     <use xlink:href="#DejaVuSans-Bold-74" transform="translate(2288.863281 0)"/>
     <use xlink:href="#DejaVuSans-Bold-69" transform="translate(2336.666016 0)"/>
     <use xlink:href="#DejaVuSans-Bold-6d" transform="translate(2370.943359 0)"/>
     <use xlink:href="#DejaVuSans-Bold-65" transform="translate(2475.142578 0)"/>
     <use xlink:href="#DejaVuSans-Bold-20" transform="translate(2542.964844 0)"/>
     <use xlink:href="#DejaVuSans-Bold-76" transform="translate(2577.779297 0)"/>
     <use xlink:href="#DejaVuSans-Bold-73" transform="translate(2642.964844 0)"/>
     <use xlink:href="#DejaVuSans-Bold-20" transform="translate(2702.486328 0)"/>
     <use xlink:href="#DejaVuSans-Bold-49" transform="translate(2737.300781 0)"/>
     <use xlink:href="#DejaVuSans-Bold-6e" transform="translate(2774.507812 0)"/>
     <use xlink:href="#DejaVuSans-Bold-70" transform="translate(2845.699219 0)"/>
     <use xlink:href="#DejaVuSans-Bold-75" transform="translate(2917.28125 0)"/>
     <use xlink:href="#DejaVuSans-Bold-74" transform="translate(2988.472656 0)"/>
     <use xlink:href="#DejaVuSans-Bold-20" transform="translate(3036.275391 0)"/>
     <use xlink:href="#DejaVuSans-Bold-53" transform="translate(3071.089844 0)"/>
     <use xlink:href="#DejaVuSans-Bold-69" transform="translate(3143.111328 0)"/>
     <use xlink:href="#DejaVuSans-Bold-7a" transform="translate(3177.388672 0)"/>
     <use xlink:href="#DejaVuSans-Bold-65" transform="translate(3235.591797 0)"/>
     <use xlink:href="#DejaVuSans-Bold-20" transform="translate(3303.414062 0)"/>
     <use xlink:href="#DejaVuSans-Bold-28" transform="translate(3338.228516 0)"/>
     <use xlink:href="#DejaVuSans-Bold-6e" transform="translate(3383.931641 0)"/>
     <use xlink:href="#DejaVuSans-Bold-d7" transform="translate(3455.123047 0)"/>
     <use xlink:href="#DejaVuSans-Bold-6d" transform="translate(3538.912109 0)"/>
     <use xlink:href="#DejaVuSans-Bold-29" transform="translate(3643.111328 0)"/>
    </g>
   </g>
  </g>
 </g>
 <defs>
  <clipPath id="p94e1eb1ad1">
   <rect x="36.17625" y="23.837812" width="956.05" height="389.773718"/>
  </clipPath>
 </defs>
</svg>
