<?xml version="1.0" encoding="utf-8" standalone="no"?>
<!DOCTYPE svg PUBLIC "-//W3C//DTD SVG 1.1//EN"
  "http://www.w3.org/Graphics/SVG/1.1/DTD/svg11.dtd">
<svg xmlns:xlink="http://www.w3.org/1999/xlink" width="999.641875pt" height="495.263779pt" viewBox="0 0 999.641875 495.263779" xmlns="http://www.w3.org/2000/svg" version="1.1">
 <metadata>
  <rdf:RDF xmlns:dc="http://purl.org/dc/elements/1.1/" xmlns:cc="http://creativecommons.org/ns#" xmlns:rdf="http://www.w3.org/1999/02/22-rdf-syntax-ns#">
   <cc:Work>
    <dc:type rdf:resource="http://purl.org/dc/dcmitype/StillImage"/>
    <dc:date>2025-12-03T17:03:23.037937</dc:date>
    <dc:format>image/svg+xml</dc:format>
    <dc:creator>
     <cc:Agent>
      <dc:title>Matplotlib v3.10.7, https://matplotlib.org/</dc:title>
     </cc:Agent>
    </dc:creator>
   </cc:Work>
  </rdf:RDF>
 </metadata>
 <defs>
  <style type="text/css">*{stroke-linejoin: round; stroke-linecap: butt}</style>
 </defs>
 <g id="figure_1">
  <g id="patch_1">
   <path d="M 0 495.263779 
L 999.641875 495.263779 
L 999.641875 0 
L 0 0 
z
" style="fill: #ffffff"/>
  </g>
  <g id="axes_1">
   <g id="patch_2">
    <path d="M 58.441875 422.521076 
L 992.441875 422.521076 
L 992.441875 23.837812 
L 58.441875 23.837812 
z
" style="fill: #ffffff"/>
   </g>
   <g id="matplotlib.axis_1">
    <g id="xtick_1">
     <g id="line2d_1">
      <defs>
       <path id="m5b94e83eef" d="M 0 0 
L 0 3.5 
" style="stroke: #000000; stroke-width: 0.8"/>
      </defs>
      <g>
       <use xlink:href="#m5b94e83eef" x="159.454414" y="422.521076" style="stroke: #000000; stroke-width: 0.8"/>
      </g>
     </g>
     <g id="text_1">
      <!-- 149820 -->
      <g transform="translate(130.990052 461.887784) rotate(-45) scale(0.1 -0.1)">
       <defs>
        <path id="DejaVuSans-31" d="M 794 531 
L 1825 531 
L 1825 4091 
L 703 3866 
L 703 4441 
L 1819 4666 
L 2450 4666 
L 2450 531 
L 3481 531 
L 3481 0 
L 794 0 
L 794 531 
z
" transform="scale(0.015625)"/>
        <path id="DejaVuSans-34" d="M 2419 4116 
L 825 1625 
L 2419 1625 
L 2419 4116 
z
M 2253 4666 
L 3047 4666 
L 3047 1625 
L 3713 1625 
L 3713 1100 
L 3047 1100 
L 3047 0 
L 2419 0 
L 2419 1100 
L 313 1100 
L 313 1709 
L 2253 4666 
z
" transform="scale(0.015625)"/>
        <path id="DejaVuSans-39" d="M 703 97 
L 703 672 
Q 941 559 1184 500 
Q 1428 441 1663 441 
Q 2288 441 2617 861 
Q 2947 1281 2994 2138 
Q 2813 1869 2534 1725 
Q 2256 1581 1919 1581 
Q 1219 1581 811 2004 
Q 403 2428 403 3163 
Q 403 3881 828 4315 
Q 1253 4750 1959 4750 
Q 2769 4750 3195 4129 
Q 3622 3509 3622 2328 
Q 3622 1225 3098 567 
Q 2575 -91 1691 -91 
Q 1453 -91 1209 -44 
Q 966 3 703 97 
z
M 1959 2075 
Q 2384 2075 2632 2365 
Q 2881 2656 2881 3163 
Q 2881 3666 2632 3958 
Q 2384 4250 1959 4250 
Q 1534 4250 1286 3958 
Q 1038 3666 1038 3163 
Q 1038 2656 1286 2365 
Q 1534 2075 1959 2075 
z
" transform="scale(0.015625)"/>
        <path id="DejaVuSans-38" d="M 2034 2216 
Q 1584 2216 1326 1975 
Q 1069 1734 1069 1313 
Q 1069 891 1326 650 
Q 1584 409 2034 409 
Q 2484 409 2743 651 
Q 3003 894 3003 1313 
Q 3003 1734 2745 1975 
Q 2488 2216 2034 2216 
z
M 1403 2484 
Q 997 2584 770 2862 
Q 544 3141 544 3541 
Q 544 4100 942 4425 
Q 1341 4750 2034 4750 
Q 2731 4750 3128 4425 
Q 3525 4100 3525 3541 
Q 3525 3141 3298 2862 
Q 3072 2584 2669 2484 
Q 3125 2378 3379 2068 
Q 3634 1759 3634 1313 
Q 3634 634 3220 271 
Q 2806 -91 2034 -91 
Q 1263 -91 848 271 
Q 434 634 434 1313 
Q 434 1759 690 2068 
Q 947 2378 1403 2484 
z
M 1172 3481 
Q 1172 3119 1398 2916 
Q 1625 2713 2034 2713 
Q 2441 2713 2670 2916 
Q 2900 3119 2900 3481 
Q 2900 3844 2670 4047 
Q 2441 4250 2034 4250 
Q 1625 4250 1398 4047 
Q 1172 3844 1172 3481 
z
" transform="scale(0.015625)"/>
        <path id="DejaVuSans-32" d="M 1228 531 
L 3431 531 
L 3431 0 
L 469 0 
L 469 531 
Q 828 903 1448 1529 
Q 2069 2156 2228 2338 
Q 2531 2678 2651 2914 
Q 2772 3150 2772 3378 
Q 2772 3750 2511 3984 
Q 2250 4219 1831 4219 
Q 1534 4219 1204 4116 
Q 875 4013 500 3803 
L 500 4441 
Q 881 4594 1212 4672 
Q 1544 4750 1819 4750 
Q 2544 4750 2975 4387 
Q 3406 4025 3406 3419 
Q 3406 3131 3298 2873 
Q 3191 2616 2906 2266 
Q 2828 2175 2409 1742 
Q 1991 1309 1228 531 
z
" transform="scale(0.015625)"/>
        <path id="DejaVuSans-30" d="M 2034 4250 
Q 1547 4250 1301 3770 
Q 1056 3291 1056 2328 
Q 1056 1369 1301 889 
Q 1547 409 2034 409 
Q 2525 409 2770 889 
Q 3016 1369 3016 2328 
Q 3016 3291 2770 3770 
Q 2525 4250 2034 4250 
z
M 2034 4750 
Q 2819 4750 3233 4129 
Q 3647 3509 3647 2328 
Q 3647 1150 3233 529 
Q 2819 -91 2034 -91 
Q 1250 -91 836 529 
Q 422 1150 422 2328 
Q 422 3509 836 4129 
Q 1250 4750 2034 4750 
z
" transform="scale(0.015625)"/>
       </defs>
       <use xlink:href="#DejaVuSans-31"/>
       <use xlink:href="#DejaVuSans-34" transform="translate(63.623047 0)"/>
       <use xlink:href="#DejaVuSans-39" transform="translate(127.246094 0)"/>
       <use xlink:href="#DejaVuSans-38" transform="translate(190.869141 0)"/>
       <use xlink:href="#DejaVuSans-32" transform="translate(254.492188 0)"/>
       <use xlink:href="#DejaVuSans-30" transform="translate(318.115234 0)"/>
      </g>
     </g>
    </g>
    <g id="xtick_2">
     <g id="line2d_2">
      <g>
       <use xlink:href="#m5b94e83eef" x="305.849399" y="422.521076" style="stroke: #000000; stroke-width: 0.8"/>
      </g>
     </g>
     <g id="text_2">
      <!-- 1159950 -->
      <g transform="translate(272.886069 466.38675) rotate(-45) scale(0.1 -0.1)">
       <defs>
        <path id="DejaVuSans-35" d="M 691 4666 
L 3169 4666 
L 3169 4134 
L 1269 4134 
L 1269 2991 
Q 1406 3038 1543 3061 
Q 1681 3084 1819 3084 
Q 2600 3084 3056 2656 
Q 3513 2228 3513 1497 
Q 3513 744 3044 326 
Q 2575 -91 1722 -91 
Q 1428 -91 1123 -41 
Q 819 9 494 109 
L 494 744 
Q 775 591 1075 516 
Q 1375 441 1709 441 
Q 2250 441 2565 725 
Q 2881 1009 2881 1497 
Q 2881 1984 2565 2268 
Q 2250 2553 1709 2553 
Q 1456 2553 1204 2497 
Q 953 2441 691 2322 
L 691 4666 
z
" transform="scale(0.015625)"/>
       </defs>
       <use xlink:href="#DejaVuSans-31"/>
       <use xlink:href="#DejaVuSans-31" transform="translate(63.623047 0)"/>
       <use xlink:href="#DejaVuSans-35" transform="translate(127.246094 0)"/>
       <use xlink:href="#DejaVuSans-39" transform="translate(190.869141 0)"/>
       <use xlink:href="#DejaVuSans-39" transform="translate(254.492188 0)"/>
       <use xlink:href="#DejaVuSans-35" transform="translate(318.115234 0)"/>
       <use xlink:href="#DejaVuSans-30" transform="translate(381.738281 0)"/>
      </g>
     </g>
    </g>
    <g id="xtick_3">
     <g id="line2d_3">
      <g>
       <use xlink:href="#m5b94e83eef" x="452.244383" y="422.521076" style="stroke: #000000; stroke-width: 0.8"/>
      </g>
     </g>
     <g id="text_3">
      <!-- 4466280 -->
      <g transform="translate(419.281053 466.38675) rotate(-45) scale(0.1 -0.1)">
       <defs>
        <path id="DejaVuSans-36" d="M 2113 2584 
Q 1688 2584 1439 2293 
Q 1191 2003 1191 1497 
Q 1191 994 1439 701 
Q 1688 409 2113 409 
Q 2538 409 2786 701 
Q 3034 994 3034 1497 
Q 3034 2003 2786 2293 
Q 2538 2584 2113 2584 
z
M 3366 4563 
L 3366 3988 
Q 3128 4100 2886 4159 
Q 2644 4219 2406 4219 
Q 1781 4219 1451 3797 
Q 1122 3375 1075 2522 
Q 1259 2794 1537 2939 
Q 1816 3084 2150 3084 
Q 2853 3084 3261 2657 
Q 3669 2231 3669 1497 
Q 3669 778 3244 343 
Q 2819 -91 2113 -91 
Q 1303 -91 875 529 
Q 447 1150 447 2328 
Q 447 3434 972 4092 
Q 1497 4750 2381 4750 
Q 2619 4750 2861 4703 
Q 3103 4656 3366 4563 
z
" transform="scale(0.015625)"/>
       </defs>
       <use xlink:href="#DejaVuSans-34"/>
       <use xlink:href="#DejaVuSans-34" transform="translate(63.623047 0)"/>
       <use xlink:href="#DejaVuSans-36" transform="translate(127.246094 0)"/>
       <use xlink:href="#DejaVuSans-36" transform="translate(190.869141 0)"/>
       <use xlink:href="#DejaVuSans-32" transform="translate(254.492188 0)"/>
       <use xlink:href="#DejaVuSans-38" transform="translate(318.115234 0)"/>
       <use xlink:href="#DejaVuSans-30" transform="translate(381.738281 0)"/>
      </g>
     </g>
    </g>
    <g id="xtick_4">
     <g id="line2d_4">
      <g>
       <use xlink:href="#m5b94e83eef" x="598.639367" y="422.521076" style="stroke: #000000; stroke-width: 0.8"/>
      </g>
     </g>
     <g id="text_4">
      <!-- 12222810 -->
      <g transform="translate(561.177071 470.885717) rotate(-45) scale(0.1 -0.1)">
       <use xlink:href="#DejaVuSans-31"/>
       <use xlink:href="#DejaVuSans-32" transform="translate(63.623047 0)"/>
       <use xlink:href="#DejaVuSans-32" transform="translate(127.246094 0)"/>
       <use xlink:href="#DejaVuSans-32" transform="translate(190.869141 0)"/>
       <use xlink:href="#DejaVuSans-32" transform="translate(254.492188 0)"/>
       <use xlink:href="#DejaVuSans-38" transform="translate(318.115234 0)"/>
       <use xlink:href="#DejaVuSans-31" transform="translate(381.738281 0)"/>
       <use xlink:href="#DejaVuSans-30" transform="translate(445.361328 0)"/>
      </g>
     </g>
    </g>
    <g id="xtick_5">
     <g id="line2d_5">
      <g>
       <use xlink:href="#m5b94e83eef" x="745.034351" y="422.521076" style="stroke: #000000; stroke-width: 0.8"/>
      </g>
     </g>
     <g id="text_5">
      <!-- 27303540 -->
      <g transform="translate(707.572055 470.885717) rotate(-45) scale(0.1 -0.1)">
       <defs>
        <path id="DejaVuSans-37" d="M 525 4666 
L 3525 4666 
L 3525 4397 
L 1831 0 
L 1172 0 
L 2766 4134 
L 525 4134 
L 525 4666 
z
" transform="scale(0.015625)"/>
        <path id="DejaVuSans-33" d="M 2597 2516 
Q 3050 2419 3304 2112 
Q 3559 1806 3559 1356 
Q 3559 666 3084 287 
Q 2609 -91 1734 -91 
Q 1441 -91 1130 -33 
Q 819 25 488 141 
L 488 750 
Q 750 597 1062 519 
Q 1375 441 1716 441 
Q 2309 441 2620 675 
Q 2931 909 2931 1356 
Q 2931 1769 2642 2001 
Q 2353 2234 1838 2234 
L 1294 2234 
L 1294 2753 
L 1863 2753 
Q 2328 2753 2575 2939 
Q 2822 3125 2822 3475 
Q 2822 3834 2567 4026 
Q 2313 4219 1838 4219 
Q 1578 4219 1281 4162 
Q 984 4106 628 3988 
L 628 4550 
Q 988 4650 1302 4700 
Q 1616 4750 1894 4750 
Q 2613 4750 3031 4423 
Q 3450 4097 3450 3541 
Q 3450 3153 3228 2886 
Q 3006 2619 2597 2516 
z
" transform="scale(0.015625)"/>
       </defs>
       <use xlink:href="#DejaVuSans-32"/>
       <use xlink:href="#DejaVuSans-37" transform="translate(63.623047 0)"/>
       <use xlink:href="#DejaVuSans-33" transform="translate(127.246094 0)"/>
       <use xlink:href="#DejaVuSans-30" transform="translate(190.869141 0)"/>
       <use xlink:href="#DejaVuSans-33" transform="translate(254.492188 0)"/>
       <use xlink:href="#DejaVuSans-35" transform="translate(318.115234 0)"/>
       <use xlink:href="#DejaVuSans-34" transform="translate(381.738281 0)"/>
       <use xlink:href="#DejaVuSans-30" transform="translate(445.361328 0)"/>
      </g>
     </g>
    </g>
    <g id="xtick_6">
     <g id="line2d_6">
      <g>
       <use xlink:href="#m5b94e83eef" x="891.429336" y="422.521076" style="stroke: #000000; stroke-width: 0.8"/>
      </g>
     </g>
     <g id="text_6">
      <!-- 53302470 -->
      <g transform="translate(853.96704 470.885717) rotate(-45) scale(0.1 -0.1)">
       <use xlink:href="#DejaVuSans-35"/>
       <use xlink:href="#DejaVuSans-33" transform="translate(63.623047 0)"/>
       <use xlink:href="#DejaVuSans-33" transform="translate(127.246094 0)"/>
       <use xlink:href="#DejaVuSans-30" transform="translate(190.869141 0)"/>
       <use xlink:href="#DejaVuSans-32" transform="translate(254.492188 0)"/>
       <use xlink:href="#DejaVuSans-34" transform="translate(318.115234 0)"/>
       <use xlink:href="#DejaVuSans-37" transform="translate(381.738281 0)"/>
       <use xlink:href="#DejaVuSans-30" transform="translate(445.361328 0)"/>
      </g>
     </g>
    </g>
    <g id="text_7">
     <!-- Input Size (vertices × edges) -->
     <g transform="translate(427.33625 485.474404) scale(0.12 -0.12)">
      <defs>
       <path id="DejaVuSans-Bold-49" d="M 588 4666 
L 1791 4666 
L 1791 0 
L 588 0 
L 588 4666 
z
" transform="scale(0.015625)"/>
       <path id="DejaVuSans-Bold-6e" d="M 4056 2131 
L 4056 0 
L 2931 0 
L 2931 347 
L 2931 1631 
Q 2931 2084 2911 2256 
Q 2891 2428 2841 2509 
Q 2775 2619 2662 2680 
Q 2550 2741 2406 2741 
Q 2056 2741 1856 2470 
Q 1656 2200 1656 1722 
L 1656 0 
L 538 0 
L 538 3500 
L 1656 3500 
L 1656 2988 
Q 1909 3294 2193 3439 
Q 2478 3584 2822 3584 
Q 3428 3584 3742 3212 
Q 4056 2841 4056 2131 
z
" transform="scale(0.015625)"/>
       <path id="DejaVuSans-Bold-70" d="M 1656 506 
L 1656 -1331 
L 538 -1331 
L 538 3500 
L 1656 3500 
L 1656 2988 
Q 1888 3294 2169 3439 
Q 2450 3584 2816 3584 
Q 3463 3584 3878 3070 
Q 4294 2556 4294 1747 
Q 4294 938 3878 423 
Q 3463 -91 2816 -91 
Q 2450 -91 2169 54 
Q 1888 200 1656 506 
z
M 2400 2772 
Q 2041 2772 1848 2508 
Q 1656 2244 1656 1747 
Q 1656 1250 1848 986 
Q 2041 722 2400 722 
Q 2759 722 2948 984 
Q 3138 1247 3138 1747 
Q 3138 2247 2948 2509 
Q 2759 2772 2400 2772 
z
" transform="scale(0.015625)"/>
       <path id="DejaVuSans-Bold-75" d="M 500 1363 
L 500 3500 
L 1625 3500 
L 1625 3150 
Q 1625 2866 1622 2436 
Q 1619 2006 1619 1863 
Q 1619 1441 1641 1255 
Q 1663 1069 1716 984 
Q 1784 875 1895 815 
Q 2006 756 2150 756 
Q 2500 756 2700 1025 
Q 2900 1294 2900 1772 
L 2900 3500 
L 4019 3500 
L 4019 0 
L 2900 0 
L 2900 506 
Q 2647 200 2364 54 
Q 2081 -91 1741 -91 
Q 1134 -91 817 281 
Q 500 653 500 1363 
z
" transform="scale(0.015625)"/>
       <path id="DejaVuSans-Bold-74" d="M 1759 4494 
L 1759 3500 
L 2913 3500 
L 2913 2700 
L 1759 2700 
L 1759 1216 
Q 1759 972 1856 886 
Q 1953 800 2241 800 
L 2816 800 
L 2816 0 
L 1856 0 
Q 1194 0 917 276 
Q 641 553 641 1216 
L 641 2700 
L 84 2700 
L 84 3500 
L 641 3500 
L 641 4494 
L 1759 4494 
z
" transform="scale(0.015625)"/>
       <path id="DejaVuSans-Bold-20" transform="scale(0.015625)"/>
       <path id="DejaVuSans-Bold-53" d="M 3834 4519 
L 3834 3531 
Q 3450 3703 3084 3790 
Q 2719 3878 2394 3878 
Q 1963 3878 1756 3759 
Q 1550 3641 1550 3391 
Q 1550 3203 1689 3098 
Q 1828 2994 2194 2919 
L 2706 2816 
Q 3484 2659 3812 2340 
Q 4141 2022 4141 1434 
Q 4141 663 3683 286 
Q 3225 -91 2284 -91 
Q 1841 -91 1394 -6 
Q 947 78 500 244 
L 500 1259 
Q 947 1022 1364 901 
Q 1781 781 2169 781 
Q 2563 781 2772 912 
Q 2981 1044 2981 1288 
Q 2981 1506 2839 1625 
Q 2697 1744 2272 1838 
L 1806 1941 
Q 1106 2091 782 2419 
Q 459 2747 459 3303 
Q 459 4000 909 4375 
Q 1359 4750 2203 4750 
Q 2588 4750 2994 4692 
Q 3400 4634 3834 4519 
z
" transform="scale(0.015625)"/>
       <path id="DejaVuSans-Bold-69" d="M 538 3500 
L 1656 3500 
L 1656 0 
L 538 0 
L 538 3500 
z
M 538 4863 
L 1656 4863 
L 1656 3950 
L 538 3950 
L 538 4863 
z
" transform="scale(0.015625)"/>
       <path id="DejaVuSans-Bold-7a" d="M 366 3500 
L 3419 3500 
L 3419 2719 
L 1575 800 
L 3419 800 
L 3419 0 
L 288 0 
L 288 781 
L 2131 2700 
L 366 2700 
L 366 3500 
z
" transform="scale(0.015625)"/>
       <path id="DejaVuSans-Bold-65" d="M 4031 1759 
L 4031 1441 
L 1416 1441 
Q 1456 1047 1700 850 
Q 1944 653 2381 653 
Q 2734 653 3104 758 
Q 3475 863 3866 1075 
L 3866 213 
Q 3469 63 3072 -14 
Q 2675 -91 2278 -91 
Q 1328 -91 801 392 
Q 275 875 275 1747 
Q 275 2603 792 3093 
Q 1309 3584 2216 3584 
Q 3041 3584 3536 3087 
Q 4031 2591 4031 1759 
z
M 2881 2131 
Q 2881 2450 2695 2645 
Q 2509 2841 2209 2841 
Q 1884 2841 1681 2658 
Q 1478 2475 1428 2131 
L 2881 2131 
z
" transform="scale(0.015625)"/>
       <path id="DejaVuSans-Bold-28" d="M 2413 -844 
L 1484 -844 
Q 1006 -72 778 623 
Q 550 1319 550 2003 
Q 550 2688 779 3389 
Q 1009 4091 1484 4856 
L 2413 4856 
Q 2013 4116 1813 3408 
Q 1613 2700 1613 2009 
Q 1613 1319 1811 609 
Q 2009 -100 2413 -844 
z
" transform="scale(0.015625)"/>
       <path id="DejaVuSans-Bold-76" d="M 97 3500 
L 1216 3500 
L 2088 1081 
L 2956 3500 
L 4078 3500 
L 2700 0 
L 1472 0 
L 97 3500 
z
" transform="scale(0.015625)"/>
       <path id="DejaVuSans-Bold-72" d="M 3138 2547 
Q 2991 2616 2845 2648 
Q 2700 2681 2553 2681 
Q 2122 2681 1889 2404 
Q 1656 2128 1656 1613 
L 1656 0 
L 538 0 
L 538 3500 
L 1656 3500 
L 1656 2925 
Q 1872 3269 2151 3426 
Q 2431 3584 2822 3584 
Q 2878 3584 2943 3579 
Q 3009 3575 3134 3559 
L 3138 2547 
z
" transform="scale(0.015625)"/>
       <path id="DejaVuSans-Bold-63" d="M 3366 3391 
L 3366 2478 
Q 3138 2634 2908 2709 
Q 2678 2784 2431 2784 
Q 1963 2784 1702 2511 
Q 1441 2238 1441 1747 
Q 1441 1256 1702 982 
Q 1963 709 2431 709 
Q 2694 709 2930 787 
Q 3166 866 3366 1019 
L 3366 103 
Q 3103 6 2833 -42 
Q 2563 -91 2291 -91 
Q 1344 -91 809 395 
Q 275 881 275 1747 
Q 275 2613 809 3098 
Q 1344 3584 2291 3584 
Q 2566 3584 2833 3536 
Q 3100 3488 3366 3391 
z
" transform="scale(0.015625)"/>
       <path id="DejaVuSans-Bold-73" d="M 3272 3391 
L 3272 2541 
Q 2913 2691 2578 2766 
Q 2244 2841 1947 2841 
Q 1628 2841 1473 2761 
Q 1319 2681 1319 2516 
Q 1319 2381 1436 2309 
Q 1553 2238 1856 2203 
L 2053 2175 
Q 2913 2066 3209 1816 
Q 3506 1566 3506 1031 
Q 3506 472 3093 190 
Q 2681 -91 1863 -91 
Q 1516 -91 1145 -36 
Q 775 19 384 128 
L 384 978 
Q 719 816 1070 734 
Q 1422 653 1784 653 
Q 2113 653 2278 743 
Q 2444 834 2444 1013 
Q 2444 1163 2330 1236 
Q 2216 1309 1875 1350 
L 1678 1375 
Q 931 1469 631 1722 
Q 331 1975 331 2491 
Q 331 3047 712 3315 
Q 1094 3584 1881 3584 
Q 2191 3584 2531 3537 
Q 2872 3491 3272 3391 
z
" transform="scale(0.015625)"/>
       <path id="DejaVuSans-Bold-d7" d="M 4563 3359 
L 3206 2003 
L 4563 653 
L 4038 128 
L 2681 1478 
L 1325 128 
L 800 653 
L 2156 2003 
L 800 3359 
L 1325 3884 
L 2681 2528 
L 4038 3884 
L 4563 3359 
z
" transform="scale(0.015625)"/>
       <path id="DejaVuSans-Bold-64" d="M 2919 2988 
L 2919 4863 
L 4044 4863 
L 4044 0 
L 2919 0 
L 2919 506 
Q 2688 197 2409 53 
Q 2131 -91 1766 -91 
Q 1119 -91 703 423 
Q 288 938 288 1747 
Q 288 2556 703 3070 
Q 1119 3584 1766 3584 
Q 2128 3584 2408 3439 
Q 2688 3294 2919 2988 
z
M 2181 722 
Q 2541 722 2730 984 
Q 2919 1247 2919 1747 
Q 2919 2247 2730 2509 
Q 2541 2772 2181 2772 
Q 1825 2772 1636 2509 
Q 1447 2247 1447 1747 
Q 1447 1247 1636 984 
Q 1825 722 2181 722 
z
" transform="scale(0.015625)"/>
       <path id="DejaVuSans-Bold-67" d="M 2919 594 
Q 2688 288 2409 144 
Q 2131 0 1766 0 
Q 1125 0 706 504 
Q 288 1009 288 1791 
Q 288 2575 706 3076 
Q 1125 3578 1766 3578 
Q 2131 3578 2409 3434 
Q 2688 3291 2919 2981 
L 2919 3500 
L 4044 3500 
L 4044 353 
Q 4044 -491 3511 -936 
Q 2978 -1381 1966 -1381 
Q 1638 -1381 1331 -1331 
Q 1025 -1281 716 -1178 
L 716 -306 
Q 1009 -475 1290 -558 
Q 1572 -641 1856 -641 
Q 2406 -641 2662 -400 
Q 2919 -159 2919 353 
L 2919 594 
z
M 2181 2772 
Q 1834 2772 1640 2515 
Q 1447 2259 1447 1791 
Q 1447 1309 1634 1061 
Q 1822 813 2181 813 
Q 2531 813 2725 1069 
Q 2919 1325 2919 1791 
Q 2919 2259 2725 2515 
Q 2531 2772 2181 2772 
z
" transform="scale(0.015625)"/>
       <path id="DejaVuSans-Bold-29" d="M 513 -844 
Q 913 -100 1113 609 
Q 1313 1319 1313 2009 
Q 1313 2700 1113 3408 
Q 913 4116 513 4856 
L 1441 4856 
Q 1916 4091 2145 3389 
Q 2375 2688 2375 2003 
Q 2375 1319 2147 623 
Q 1919 -72 1441 -844 
L 513 -844 
z
" transform="scale(0.015625)"/>
      </defs>
      <use xlink:href="#DejaVuSans-Bold-49"/>
      <use xlink:href="#DejaVuSans-Bold-6e" transform="translate(37.207031 0)"/>
      <use xlink:href="#DejaVuSans-Bold-70" transform="translate(108.398438 0)"/>
      <use xlink:href="#DejaVuSans-Bold-75" transform="translate(179.980469 0)"/>
      <use xlink:href="#DejaVuSans-Bold-74" transform="translate(251.171875 0)"/>
      <use xlink:href="#DejaVuSans-Bold-20" transform="translate(298.974609 0)"/>
      <use xlink:href="#DejaVuSans-Bold-53" transform="translate(333.789062 0)"/>
      <use xlink:href="#DejaVuSans-Bold-69" transform="translate(405.810547 0)"/>
      <use xlink:href="#DejaVuSans-Bold-7a" transform="translate(440.087891 0)"/>
      <use xlink:href="#DejaVuSans-Bold-65" transform="translate(498.291016 0)"/>
      <use xlink:href="#DejaVuSans-Bold-20" transform="translate(566.113281 0)"/>
      <use xlink:href="#DejaVuSans-Bold-28" transform="translate(600.927734 0)"/>
      <use xlink:href="#DejaVuSans-Bold-76" transform="translate(646.630859 0)"/>
      <use xlink:href="#DejaVuSans-Bold-65" transform="translate(711.816406 0)"/>
      <use xlink:href="#DejaVuSans-Bold-72" transform="translate(779.638672 0)"/>
      <use xlink:href="#DejaVuSans-Bold-74" transform="translate(828.955078 0)"/>
      <use xlink:href="#DejaVuSans-Bold-69" transform="translate(876.757812 0)"/>
      <use xlink:href="#DejaVuSans-Bold-63" transform="translate(911.035156 0)"/>
      <use xlink:href="#DejaVuSans-Bold-65" transform="translate(970.3125 0)"/>
      <use xlink:href="#DejaVuSans-Bold-73" transform="translate(1038.134766 0)"/>
      <use xlink:href="#DejaVuSans-Bold-20" transform="translate(1097.65625 0)"/>
      <use xlink:href="#DejaVuSans-Bold-d7" transform="translate(1132.470703 0)"/>
      <use xlink:href="#DejaVuSans-Bold-20" transform="translate(1216.259766 0)"/>
      <use xlink:href="#DejaVuSans-Bold-65" transform="translate(1251.074219 0)"/>
      <use xlink:href="#DejaVuSans-Bold-64" transform="translate(1318.896484 0)"/>
      <use xlink:href="#DejaVuSans-Bold-67" transform="translate(1390.478516 0)"/>
      <use xlink:href="#DejaVuSans-Bold-65" transform="translate(1462.060547 0)"/>
      <use xlink:href="#DejaVuSans-Bold-73" transform="translate(1529.882812 0)"/>
      <use xlink:href="#DejaVuSans-Bold-29" transform="translate(1589.404297 0)"/>
     </g>
    </g>
   </g>
   <g id="matplotlib.axis_2">
    <g id="ytick_1">
     <g id="line2d_7">
      <path d="M 58.441875 422.521076 
L 992.441875 422.521076 
" clip-path="url(#p5cd96c93ad)" style="fill: none; stroke-dasharray: 2.96,1.28; stroke-dashoffset: 0; stroke: #b0b0b0; stroke-opacity: 0.3; stroke-width: 0.8"/>
     </g>
     <g id="line2d_8">
      <defs>
       <path id="mccbc00210f" d="M 0 0 
L -3.5 0 
" style="stroke: #000000; stroke-width: 0.8"/>
      </defs>
      <g>
       <use xlink:href="#mccbc00210f" x="58.441875" y="422.521076" style="stroke: #000000; stroke-width: 0.8"/>
      </g>
     </g>
     <g id="text_8">
      <!-- 0.000 -->
      <g transform="translate(22.81375 426.320294) scale(0.1 -0.1)">
       <defs>
        <path id="DejaVuSans-2e" d="M 684 794 
L 1344 794 
L 1344 0 
L 684 0 
L 684 794 
z
" transform="scale(0.015625)"/>
       </defs>
       <use xlink:href="#DejaVuSans-30"/>
       <use xlink:href="#DejaVuSans-2e" transform="translate(63.623047 0)"/>
       <use xlink:href="#DejaVuSans-30" transform="translate(95.410156 0)"/>
       <use xlink:href="#DejaVuSans-30" transform="translate(159.033203 0)"/>
       <use xlink:href="#DejaVuSans-30" transform="translate(222.65625 0)"/>
      </g>
     </g>
    </g>
    <g id="ytick_2">
     <g id="line2d_9">
      <path d="M 58.441875 367.957113 
L 992.441875 367.957113 
" clip-path="url(#p5cd96c93ad)" style="fill: none; stroke-dasharray: 2.96,1.28; stroke-dashoffset: 0; stroke: #b0b0b0; stroke-opacity: 0.3; stroke-width: 0.8"/>
     </g>
     <g id="line2d_10">
      <g>
       <use xlink:href="#mccbc00210f" x="58.441875" y="367.957113" style="stroke: #000000; stroke-width: 0.8"/>
      </g>
     </g>
     <g id="text_9">
      <!-- 0.025 -->
      <g transform="translate(22.81375 371.756332) scale(0.1 -0.1)">
       <use xlink:href="#DejaVuSans-30"/>
       <use xlink:href="#DejaVuSans-2e" transform="translate(63.623047 0)"/>
       <use xlink:href="#DejaVuSans-30" transform="translate(95.410156 0)"/>
       <use xlink:href="#DejaVuSans-32" transform="translate(159.033203 0)"/>
       <use xlink:href="#DejaVuSans-35" transform="translate(222.65625 0)"/>
      </g>
     </g>
    </g>
    <g id="ytick_3">
     <g id="line2d_11">
      <path d="M 58.441875 313.393151 
L 992.441875 313.393151 
" clip-path="url(#p5cd96c93ad)" style="fill: none; stroke-dasharray: 2.96,1.28; stroke-dashoffset: 0; stroke: #b0b0b0; stroke-opacity: 0.3; stroke-width: 0.8"/>
     </g>
     <g id="line2d_12">
      <g>
       <use xlink:href="#mccbc00210f" x="58.441875" y="313.393151" style="stroke: #000000; stroke-width: 0.8"/>
      </g>
     </g>
     <g id="text_10">
      <!-- 0.050 -->
      <g transform="translate(22.81375 317.19237) scale(0.1 -0.1)">
       <use xlink:href="#DejaVuSans-30"/>
       <use xlink:href="#DejaVuSans-2e" transform="translate(63.623047 0)"/>
       <use xlink:href="#DejaVuSans-30" transform="translate(95.410156 0)"/>
       <use xlink:href="#DejaVuSans-35" transform="translate(159.033203 0)"/>
       <use xlink:href="#DejaVuSans-30" transform="translate(222.65625 0)"/>
      </g>
     </g>
    </g>
    <g id="ytick_4">
     <g id="line2d_13">
      <path d="M 58.441875 258.829189 
L 992.441875 258.829189 
" clip-path="url(#p5cd96c93ad)" style="fill: none; stroke-dasharray: 2.96,1.28; stroke-dashoffset: 0; stroke: #b0b0b0; stroke-opacity: 0.3; stroke-width: 0.8"/>
     </g>
     <g id="line2d_14">
      <g>
       <use xlink:href="#mccbc00210f" x="58.441875" y="258.829189" style="stroke: #000000; stroke-width: 0.8"/>
      </g>
     </g>
     <g id="text_11">
      <!-- 0.075 -->
      <g transform="translate(22.81375 262.628408) scale(0.1 -0.1)">
       <use xlink:href="#DejaVuSans-30"/>
       <use xlink:href="#DejaVuSans-2e" transform="translate(63.623047 0)"/>
       <use xlink:href="#DejaVuSans-30" transform="translate(95.410156 0)"/>
       <use xlink:href="#DejaVuSans-37" transform="translate(159.033203 0)"/>
       <use xlink:href="#DejaVuSans-35" transform="translate(222.65625 0)"/>
      </g>
     </g>
    </g>
    <g id="ytick_5">
     <g id="line2d_15">
      <path d="M 58.441875 204.265227 
L 992.441875 204.265227 
" clip-path="url(#p5cd96c93ad)" style="fill: none; stroke-dasharray: 2.96,1.28; stroke-dashoffset: 0; stroke: #b0b0b0; stroke-opacity: 0.3; stroke-width: 0.8"/>
     </g>
     <g id="line2d_16">
      <g>
       <use xlink:href="#mccbc00210f" x="58.441875" y="204.265227" style="stroke: #000000; stroke-width: 0.8"/>
      </g>
     </g>
     <g id="text_12">
      <!-- 0.100 -->
      <g transform="translate(22.81375 208.064445) scale(0.1 -0.1)">
       <use xlink:href="#DejaVuSans-30"/>
       <use xlink:href="#DejaVuSans-2e" transform="translate(63.623047 0)"/>
       <use xlink:href="#DejaVuSans-31" transform="translate(95.410156 0)"/>
       <use xlink:href="#DejaVuSans-30" transform="translate(159.033203 0)"/>
       <use xlink:href="#DejaVuSans-30" transform="translate(222.65625 0)"/>
      </g>
     </g>
    </g>
    <g id="ytick_6">
     <g id="line2d_17">
      <path d="M 58.441875 149.701264 
L 992.441875 149.701264 
" clip-path="url(#p5cd96c93ad)" style="fill: none; stroke-dasharray: 2.96,1.28; stroke-dashoffset: 0; stroke: #b0b0b0; stroke-opacity: 0.3; stroke-width: 0.8"/>
     </g>
     <g id="line2d_18">
      <g>
       <use xlink:href="#mccbc00210f" x="58.441875" y="149.701264" style="stroke: #000000; stroke-width: 0.8"/>
      </g>
     </g>
     <g id="text_13">
      <!-- 0.125 -->
      <g transform="translate(22.81375 153.500483) scale(0.1 -0.1)">
       <use xlink:href="#DejaVuSans-30"/>
       <use xlink:href="#DejaVuSans-2e" transform="translate(63.623047 0)"/>
       <use xlink:href="#DejaVuSans-31" transform="translate(95.410156 0)"/>
       <use xlink:href="#DejaVuSans-32" transform="translate(159.033203 0)"/>
       <use xlink:href="#DejaVuSans-35" transform="translate(222.65625 0)"/>
      </g>
     </g>
    </g>
    <g id="ytick_7">
     <g id="line2d_19">
      <path d="M 58.441875 95.137302 
L 992.441875 95.137302 
" clip-path="url(#p5cd96c93ad)" style="fill: none; stroke-dasharray: 2.96,1.28; stroke-dashoffset: 0; stroke: #b0b0b0; stroke-opacity: 0.3; stroke-width: 0.8"/>
     </g>
     <g id="line2d_20">
      <g>
       <use xlink:href="#mccbc00210f" x="58.441875" y="95.137302" style="stroke: #000000; stroke-width: 0.8"/>
      </g>
     </g>
     <g id="text_14">
      <!-- 0.150 -->
      <g transform="translate(22.81375 98.936521) scale(0.1 -0.1)">
       <use xlink:href="#DejaVuSans-30"/>
       <use xlink:href="#DejaVuSans-2e" transform="translate(63.623047 0)"/>
       <use xlink:href="#DejaVuSans-31" transform="translate(95.410156 0)"/>
       <use xlink:href="#DejaVuSans-35" transform="translate(159.033203 0)"/>
       <use xlink:href="#DejaVuSans-30" transform="translate(222.65625 0)"/>
      </g>
     </g>
    </g>
    <g id="ytick_8">
     <g id="line2d_21">
      <path d="M 58.441875 40.57334 
L 992.441875 40.57334 
" clip-path="url(#p5cd96c93ad)" style="fill: none; stroke-dasharray: 2.96,1.28; stroke-dashoffset: 0; stroke: #b0b0b0; stroke-opacity: 0.3; stroke-width: 0.8"/>
     </g>
     <g id="line2d_22">
      <g>
       <use xlink:href="#mccbc00210f" x="58.441875" y="40.57334" style="stroke: #000000; stroke-width: 0.8"/>
      </g>
     </g>
     <g id="text_15">
      <!-- 0.175 -->
      <g transform="translate(22.81375 44.372559) scale(0.1 -0.1)">
       <use xlink:href="#DejaVuSans-30"/>
       <use xlink:href="#DejaVuSans-2e" transform="translate(63.623047 0)"/>
       <use xlink:href="#DejaVuSans-31" transform="translate(95.410156 0)"/>
       <use xlink:href="#DejaVuSans-37" transform="translate(159.033203 0)"/>
       <use xlink:href="#DejaVuSans-35" transform="translate(222.65625 0)"/>
      </g>
     </g>
    </g>
    <g id="text_16">
     <!-- Mean Runtime (seconds) -->
     <g transform="translate(16.318125 307.067882) rotate(-90) scale(0.12 -0.12)">
      <defs>
       <path id="DejaVuSans-Bold-4d" d="M 588 4666 
L 2119 4666 
L 3181 2169 
L 4250 4666 
L 5778 4666 
L 5778 0 
L 4641 0 
L 4641 3413 
L 3566 897 
L 2803 897 
L 1728 3413 
L 1728 0 
L 588 0 
L 588 4666 
z
" transform="scale(0.015625)"/>
       <path id="DejaVuSans-Bold-61" d="M 2106 1575 
Q 1756 1575 1579 1456 
Q 1403 1338 1403 1106 
Q 1403 894 1545 773 
Q 1688 653 1941 653 
Q 2256 653 2472 879 
Q 2688 1106 2688 1447 
L 2688 1575 
L 2106 1575 
z
M 3816 1997 
L 3816 0 
L 2688 0 
L 2688 519 
Q 2463 200 2181 54 
Q 1900 -91 1497 -91 
Q 953 -91 614 226 
Q 275 544 275 1050 
Q 275 1666 698 1953 
Q 1122 2241 2028 2241 
L 2688 2241 
L 2688 2328 
Q 2688 2594 2478 2717 
Q 2269 2841 1825 2841 
Q 1466 2841 1156 2769 
Q 847 2697 581 2553 
L 581 3406 
Q 941 3494 1303 3539 
Q 1666 3584 2028 3584 
Q 2975 3584 3395 3211 
Q 3816 2838 3816 1997 
z
" transform="scale(0.015625)"/>
       <path id="DejaVuSans-Bold-52" d="M 2297 2597 
Q 2675 2597 2839 2737 
Q 3003 2878 3003 3200 
Q 3003 3519 2839 3656 
Q 2675 3794 2297 3794 
L 1791 3794 
L 1791 2597 
L 2297 2597 
z
M 1791 1766 
L 1791 0 
L 588 0 
L 588 4666 
L 2425 4666 
Q 3347 4666 3776 4356 
Q 4206 4047 4206 3378 
Q 4206 2916 3982 2619 
Q 3759 2322 3309 2181 
Q 3556 2125 3751 1926 
Q 3947 1728 4147 1325 
L 4800 0 
L 3519 0 
L 2950 1159 
Q 2778 1509 2601 1637 
Q 2425 1766 2131 1766 
L 1791 1766 
z
" transform="scale(0.015625)"/>
       <path id="DejaVuSans-Bold-6d" d="M 3781 2919 
Q 3994 3244 4286 3414 
Q 4578 3584 4928 3584 
Q 5531 3584 5847 3212 
Q 6163 2841 6163 2131 
L 6163 0 
L 5038 0 
L 5038 1825 
Q 5041 1866 5042 1909 
Q 5044 1953 5044 2034 
Q 5044 2406 4934 2573 
Q 4825 2741 4581 2741 
Q 4263 2741 4089 2478 
Q 3916 2216 3909 1719 
L 3909 0 
L 2784 0 
L 2784 1825 
Q 2784 2406 2684 2573 
Q 2584 2741 2328 2741 
Q 2006 2741 1831 2477 
Q 1656 2213 1656 1722 
L 1656 0 
L 531 0 
L 531 3500 
L 1656 3500 
L 1656 2988 
Q 1863 3284 2130 3434 
Q 2397 3584 2719 3584 
Q 3081 3584 3359 3409 
Q 3638 3234 3781 2919 
z
" transform="scale(0.015625)"/>
       <path id="DejaVuSans-Bold-6f" d="M 2203 2784 
Q 1831 2784 1636 2517 
Q 1441 2250 1441 1747 
Q 1441 1244 1636 976 
Q 1831 709 2203 709 
Q 2569 709 2762 976 
Q 2956 1244 2956 1747 
Q 2956 2250 2762 2517 
Q 2569 2784 2203 2784 
z
M 2203 3584 
Q 3106 3584 3614 3096 
Q 4122 2609 4122 1747 
Q 4122 884 3614 396 
Q 3106 -91 2203 -91 
Q 1297 -91 786 396 
Q 275 884 275 1747 
Q 275 2609 786 3096 
Q 1297 3584 2203 3584 
z
" transform="scale(0.015625)"/>
      </defs>
      <use xlink:href="#DejaVuSans-Bold-4d"/>
      <use xlink:href="#DejaVuSans-Bold-65" transform="translate(99.511719 0)"/>
      <use xlink:href="#DejaVuSans-Bold-61" transform="translate(167.333984 0)"/>
      <use xlink:href="#DejaVuSans-Bold-6e" transform="translate(234.814453 0)"/>
      <use xlink:href="#DejaVuSans-Bold-20" transform="translate(306.005859 0)"/>
      <use xlink:href="#DejaVuSans-Bold-52" transform="translate(340.820312 0)"/>
      <use xlink:href="#DejaVuSans-Bold-75" transform="translate(417.822266 0)"/>
      <use xlink:href="#DejaVuSans-Bold-6e" transform="translate(489.013672 0)"/>
      <use xlink:href="#DejaVuSans-Bold-74" transform="translate(560.205078 0)"/>
      <use xlink:href="#DejaVuSans-Bold-69" transform="translate(608.007812 0)"/>
      <use xlink:href="#DejaVuSans-Bold-6d" transform="translate(642.285156 0)"/>
      <use xlink:href="#DejaVuSans-Bold-65" transform="translate(746.484375 0)"/>
      <use xlink:href="#DejaVuSans-Bold-20" transform="translate(814.306641 0)"/>
      <use xlink:href="#DejaVuSans-Bold-28" transform="translate(849.121094 0)"/>
      <use xlink:href="#DejaVuSans-Bold-73" transform="translate(894.824219 0)"/>
      <use xlink:href="#DejaVuSans-Bold-65" transform="translate(954.345703 0)"/>
      <use xlink:href="#DejaVuSans-Bold-63" transform="translate(1022.167969 0)"/>
      <use xlink:href="#DejaVuSans-Bold-6f" transform="translate(1081.445312 0)"/>
      <use xlink:href="#DejaVuSans-Bold-6e" transform="translate(1150.146484 0)"/>
      <use xlink:href="#DejaVuSans-Bold-64" transform="translate(1221.337891 0)"/>
      <use xlink:href="#DejaVuSans-Bold-73" transform="translate(1292.919922 0)"/>
      <use xlink:href="#DejaVuSans-Bold-29" transform="translate(1352.441406 0)"/>
     </g>
    </g>
   </g>
   <g id="patch_3">
    <path d="M 100.89642 422.521076 
L 218.012408 422.521076 
L 218.012408 275.752084 
L 100.89642 275.752084 
z
" clip-path="url(#p5cd96c93ad)" style="fill: #4682b4; opacity: 0.8"/>
   </g>
   <g id="patch_4">
    <path d="M 247.291405 422.521076 
L 364.407392 422.521076 
L 364.407392 241.137005 
L 247.291405 241.137005 
z
" clip-path="url(#p5cd96c93ad)" style="fill: #4682b4; opacity: 0.8"/>
   </g>
   <g id="patch_5">
    <path d="M 393.686389 422.521076 
L 510.802377 422.521076 
L 510.802377 218.924999 
L 393.686389 218.924999 
z
" clip-path="url(#p5cd96c93ad)" style="fill: #4682b4; opacity: 0.8"/>
   </g>
   <g id="patch_6">
    <path d="M 540.081373 422.521076 
L 657.197361 422.521076 
L 657.197361 181.310077 
L 540.081373 181.310077 
z
" clip-path="url(#p5cd96c93ad)" style="fill: #4682b4; opacity: 0.8"/>
   </g>
   <g id="patch_7">
    <path d="M 686.476358 422.521076 
L 803.592345 422.521076 
L 803.592345 107.148467 
L 686.476358 107.148467 
z
" clip-path="url(#p5cd96c93ad)" style="fill: #4682b4; opacity: 0.8"/>
   </g>
   <g id="patch_8">
    <path d="M 832.871342 422.521076 
L 949.98733 422.521076 
L 949.98733 42.82273 
L 832.871342 42.82273 
z
" clip-path="url(#p5cd96c93ad)" style="fill: #4682b4; opacity: 0.8"/>
   </g>
   <g id="patch_9">
    <path d="M 58.441875 422.521076 
L 58.441875 23.837812 
" style="fill: none; stroke: #000000; stroke-width: 0.8; stroke-linejoin: miter; stroke-linecap: square"/>
   </g>
   <g id="patch_10">
    <path d="M 992.441875 422.521076 
L 992.441875 23.837812 
" style="fill: none; stroke: #000000; stroke-width: 0.8; stroke-linejoin: miter; stroke-linecap: square"/>
   </g>
   <g id="patch_11">
    <path d="M 58.441875 422.521076 
L 992.441875 422.521076 
" style="fill: none; stroke: #000000; stroke-width: 0.8; stroke-linejoin: miter; stroke-linecap: square"/>
   </g>
   <g id="patch_12">
    <path d="M 58.441875 23.837812 
L 992.441875 23.837812 
" style="fill: none; stroke: #000000; stroke-width: 0.8; stroke-linejoin: miter; stroke-linecap: square"/>
   </g>
   <g id="text_17">
    <!-- 0.0672s -->
    <g transform="translate(143.374414 274.088334) scale(0.08 -0.08)">
     <defs>
      <path id="DejaVuSans-73" d="M 2834 3397 
L 2834 2853 
Q 2591 2978 2328 3040 
Q 2066 3103 1784 3103 
Q 1356 3103 1142 2972 
Q 928 2841 928 2578 
Q 928 2378 1081 2264 
Q 1234 2150 1697 2047 
L 1894 2003 
Q 2506 1872 2764 1633 
Q 3022 1394 3022 966 
Q 3022 478 2636 193 
Q 2250 -91 1575 -91 
Q 1294 -91 989 -36 
Q 684 19 347 128 
L 347 722 
Q 666 556 975 473 
Q 1284 391 1588 391 
Q 1994 391 2212 530 
Q 2431 669 2431 922 
Q 2431 1156 2273 1281 
Q 2116 1406 1581 1522 
L 1381 1569 
Q 847 1681 609 1914 
Q 372 2147 372 2553 
Q 372 3047 722 3315 
Q 1072 3584 1716 3584 
Q 2034 3584 2315 3537 
Q 2597 3491 2834 3397 
z
" transform="scale(0.015625)"/>
     </defs>
     <use xlink:href="#DejaVuSans-30"/>
     <use xlink:href="#DejaVuSans-2e" transform="translate(63.623047 0)"/>
     <use xlink:href="#DejaVuSans-30" transform="translate(95.410156 0)"/>
     <use xlink:href="#DejaVuSans-36" transform="translate(159.033203 0)"/>
     <use xlink:href="#DejaVuSans-37" transform="translate(222.65625 0)"/>
     <use xlink:href="#DejaVuSans-32" transform="translate(286.279297 0)"/>
     <use xlink:href="#DejaVuSans-73" transform="translate(349.902344 0)"/>
    </g>
   </g>
   <g id="text_18">
    <!-- 0.0831s -->
    <g transform="translate(289.769399 239.473255) scale(0.08 -0.08)">
     <use xlink:href="#DejaVuSans-30"/>
     <use xlink:href="#DejaVuSans-2e" transform="translate(63.623047 0)"/>
     <use xlink:href="#DejaVuSans-30" transform="translate(95.410156 0)"/>
     <use xlink:href="#DejaVuSans-38" transform="translate(159.033203 0)"/>
     <use xlink:href="#DejaVuSans-33" transform="translate(222.65625 0)"/>
     <use xlink:href="#DejaVuSans-31" transform="translate(286.279297 0)"/>
     <use xlink:href="#DejaVuSans-73" transform="translate(349.902344 0)"/>
    </g>
   </g>
   <g id="text_19">
    <!-- 0.0933s -->
    <g transform="translate(436.164383 217.261249) scale(0.08 -0.08)">
     <use xlink:href="#DejaVuSans-30"/>
     <use xlink:href="#DejaVuSans-2e" transform="translate(63.623047 0)"/>
     <use xlink:href="#DejaVuSans-30" transform="translate(95.410156 0)"/>
     <use xlink:href="#DejaVuSans-39" transform="translate(159.033203 0)"/>
     <use xlink:href="#DejaVuSans-33" transform="translate(222.65625 0)"/>
     <use xlink:href="#DejaVuSans-33" transform="translate(286.279297 0)"/>
     <use xlink:href="#DejaVuSans-73" transform="translate(349.902344 0)"/>
    </g>
   </g>
   <g id="text_20">
    <!-- 0.1105s -->
    <g transform="translate(582.559367 179.646327) scale(0.08 -0.08)">
     <use xlink:href="#DejaVuSans-30"/>
     <use xlink:href="#DejaVuSans-2e" transform="translate(63.623047 0)"/>
     <use xlink:href="#DejaVuSans-31" transform="translate(95.410156 0)"/>
     <use xlink:href="#DejaVuSans-31" transform="translate(159.033203 0)"/>
     <use xlink:href="#DejaVuSans-30" transform="translate(222.65625 0)"/>
     <use xlink:href="#DejaVuSans-35" transform="translate(286.279297 0)"/>
     <use xlink:href="#DejaVuSans-73" transform="translate(349.902344 0)"/>
    </g>
   </g>
   <g id="text_21">
    <!-- 0.1445s -->
    <g transform="translate(728.954351 105.484717) scale(0.08 -0.08)">
     <use xlink:href="#DejaVuSans-30"/>
     <use xlink:href="#DejaVuSans-2e" transform="translate(63.623047 0)"/>
     <use xlink:href="#DejaVuSans-31" transform="translate(95.410156 0)"/>
     <use xlink:href="#DejaVuSans-34" transform="translate(159.033203 0)"/>
     <use xlink:href="#DejaVuSans-34" transform="translate(222.65625 0)"/>
     <use xlink:href="#DejaVuSans-35" transform="translate(286.279297 0)"/>
     <use xlink:href="#DejaVuSans-73" transform="translate(349.902344 0)"/>
    </g>
   </g>
   <g id="text_22">
    <!-- 0.1740s -->
    <g transform="translate(875.349336 41.15898) scale(0.08 -0.08)">
     <use xlink:href="#DejaVuSans-30"/>
     <use xlink:href="#DejaVuSans-2e" transform="translate(63.623047 0)"/>
     <use xlink:href="#DejaVuSans-31" transform="translate(95.410156 0)"/>
     <use xlink:href="#DejaVuSans-37" transform="translate(159.033203 0)"/>
     <use xlink:href="#DejaVuSans-34" transform="translate(222.65625 0)"/>
     <use xlink:href="#DejaVuSans-30" transform="translate(286.279297 0)"/>
     <use xlink:href="#DejaVuSans-73" transform="translate(349.902344 0)"/>
    </g>
   </g>
   <g id="text_23">
    <g id="patch_13">
     <path d="M 146.43168 358.543158 
L 172.477149 358.543158 
Q 174.577149 358.543158 174.577149 356.443158 
L 174.577149 341.830002 
Q 174.577149 339.730002 172.477149 339.730002 
L 146.43168 339.730002 
Q 144.33168 339.730002 144.33168 341.830002 
L 144.33168 356.443158 
Q 144.33168 358.543158 146.43168 358.543158 
z
" style="fill: #ffffe0; opacity: 0.9; stroke: #ffa500; stroke-linejoin: miter"/>
    </g>
    <!-- n=227 -->
    <g transform="translate(147.622774 347.148908) scale(0.07 -0.07)">
     <defs>
      <path id="DejaVuSans-6e" d="M 3513 2113 
L 3513 0 
L 2938 0 
L 2938 2094 
Q 2938 2591 2744 2837 
Q 2550 3084 2163 3084 
Q 1697 3084 1428 2787 
Q 1159 2491 1159 1978 
L 1159 0 
L 581 0 
L 581 3500 
L 1159 3500 
L 1159 2956 
Q 1366 3272 1645 3428 
Q 1925 3584 2291 3584 
Q 2894 3584 3203 3211 
Q 3513 2838 3513 2113 
z
" transform="scale(0.015625)"/>
      <path id="DejaVuSans-3d" d="M 678 2906 
L 4684 2906 
L 4684 2381 
L 678 2381 
L 678 2906 
z
M 678 1631 
L 4684 1631 
L 4684 1100 
L 678 1100 
L 678 1631 
z
" transform="scale(0.015625)"/>
     </defs>
     <use xlink:href="#DejaVuSans-6e"/>
     <use xlink:href="#DejaVuSans-3d" transform="translate(63.378906 0)"/>
     <use xlink:href="#DejaVuSans-32" transform="translate(147.167969 0)"/>
     <use xlink:href="#DejaVuSans-32" transform="translate(210.791016 0)"/>
     <use xlink:href="#DejaVuSans-37" transform="translate(274.414062 0)"/>
    </g>
    <!-- m=660 -->
    <g transform="translate(146.43168 354.987377) scale(0.07 -0.07)">
     <defs>
      <path id="DejaVuSans-6d" d="M 3328 2828 
Q 3544 3216 3844 3400 
Q 4144 3584 4550 3584 
Q 5097 3584 5394 3201 
Q 5691 2819 5691 2113 
L 5691 0 
L 5113 0 
L 5113 2094 
Q 5113 2597 4934 2840 
Q 4756 3084 4391 3084 
Q 3944 3084 3684 2787 
Q 3425 2491 3425 1978 
L 3425 0 
L 2847 0 
L 2847 2094 
Q 2847 2600 2669 2842 
Q 2491 3084 2119 3084 
Q 1678 3084 1418 2786 
Q 1159 2488 1159 1978 
L 1159 0 
L 581 0 
L 581 3500 
L 1159 3500 
L 1159 2956 
Q 1356 3278 1631 3431 
Q 1906 3584 2284 3584 
Q 2666 3584 2933 3390 
Q 3200 3197 3328 2828 
z
" transform="scale(0.015625)"/>
     </defs>
     <use xlink:href="#DejaVuSans-6d"/>
     <use xlink:href="#DejaVuSans-3d" transform="translate(97.412109 0)"/>
     <use xlink:href="#DejaVuSans-36" transform="translate(181.201172 0)"/>
     <use xlink:href="#DejaVuSans-36" transform="translate(244.824219 0)"/>
     <use xlink:href="#DejaVuSans-30" transform="translate(308.447266 0)"/>
    </g>
   </g>
   <g id="text_24">
    <g id="patch_14">
     <path d="M 290.599789 341.235619 
L 321.099008 341.235619 
Q 323.199008 341.235619 323.199008 339.135619 
L 323.199008 324.522462 
Q 323.199008 322.422462 321.099008 322.422462 
L 290.599789 322.422462 
Q 288.499789 322.422462 288.499789 324.522462 
L 288.499789 339.135619 
Q 288.499789 341.235619 290.599789 341.235619 
z
" style="fill: #ffffe0; opacity: 0.9; stroke: #ffa500; stroke-linejoin: miter"/>
    </g>
    <!-- n=627 -->
    <g transform="translate(294.017758 329.841369) scale(0.07 -0.07)">
     <use xlink:href="#DejaVuSans-6e"/>
     <use xlink:href="#DejaVuSans-3d" transform="translate(63.378906 0)"/>
     <use xlink:href="#DejaVuSans-36" transform="translate(147.167969 0)"/>
     <use xlink:href="#DejaVuSans-32" transform="translate(210.791016 0)"/>
     <use xlink:href="#DejaVuSans-37" transform="translate(274.414062 0)"/>
    </g>
    <!-- m=1850 -->
    <g transform="translate(290.599789 337.679837) scale(0.07 -0.07)">
     <use xlink:href="#DejaVuSans-6d"/>
     <use xlink:href="#DejaVuSans-3d" transform="translate(97.412109 0)"/>
     <use xlink:href="#DejaVuSans-31" transform="translate(181.201172 0)"/>
     <use xlink:href="#DejaVuSans-38" transform="translate(244.824219 0)"/>
     <use xlink:href="#DejaVuSans-35" transform="translate(308.447266 0)"/>
     <use xlink:href="#DejaVuSans-30" transform="translate(372.070312 0)"/>
    </g>
   </g>
   <g id="text_25">
    <g id="patch_15">
     <path d="M 436.994773 330.129616 
L 467.493992 330.129616 
Q 469.593992 330.129616 469.593992 328.029616 
L 469.593992 313.416459 
Q 469.593992 311.316459 467.493992 311.316459 
L 436.994773 311.316459 
Q 434.894773 311.316459 434.894773 313.416459 
L 434.894773 328.029616 
Q 434.894773 330.129616 436.994773 330.129616 
z
" style="fill: #ffffe0; opacity: 0.9; stroke: #ffa500; stroke-linejoin: miter"/>
    </g>
    <!-- n=1227 -->
    <g transform="translate(438.185867 318.735366) scale(0.07 -0.07)">
     <use xlink:href="#DejaVuSans-6e"/>
     <use xlink:href="#DejaVuSans-3d" transform="translate(63.378906 0)"/>
     <use xlink:href="#DejaVuSans-31" transform="translate(147.167969 0)"/>
     <use xlink:href="#DejaVuSans-32" transform="translate(210.791016 0)"/>
     <use xlink:href="#DejaVuSans-32" transform="translate(274.414062 0)"/>
     <use xlink:href="#DejaVuSans-37" transform="translate(338.037109 0)"/>
    </g>
    <!-- m=3640 -->
    <g transform="translate(436.994773 326.573834) scale(0.07 -0.07)">
     <use xlink:href="#DejaVuSans-6d"/>
     <use xlink:href="#DejaVuSans-3d" transform="translate(97.412109 0)"/>
     <use xlink:href="#DejaVuSans-33" transform="translate(181.201172 0)"/>
     <use xlink:href="#DejaVuSans-36" transform="translate(244.824219 0)"/>
     <use xlink:href="#DejaVuSans-34" transform="translate(308.447266 0)"/>
     <use xlink:href="#DejaVuSans-30" transform="translate(372.070312 0)"/>
    </g>
   </g>
   <g id="text_26">
    <g id="patch_16">
     <path d="M 583.389758 311.322154 
L 613.888977 311.322154 
Q 615.988977 311.322154 615.988977 309.222154 
L 615.988977 294.608998 
Q 615.988977 292.508998 613.888977 292.508998 
L 583.389758 292.508998 
Q 581.289758 292.508998 581.289758 294.608998 
L 581.289758 309.222154 
Q 581.289758 311.322154 583.389758 311.322154 
z
" style="fill: #ffffe0; opacity: 0.9; stroke: #ffa500; stroke-linejoin: miter"/>
    </g>
    <!-- n=2027 -->
    <g transform="translate(584.580852 299.927904) scale(0.07 -0.07)">
     <use xlink:href="#DejaVuSans-6e"/>
     <use xlink:href="#DejaVuSans-3d" transform="translate(63.378906 0)"/>
     <use xlink:href="#DejaVuSans-32" transform="translate(147.167969 0)"/>
     <use xlink:href="#DejaVuSans-30" transform="translate(210.791016 0)"/>
     <use xlink:href="#DejaVuSans-32" transform="translate(274.414062 0)"/>
     <use xlink:href="#DejaVuSans-37" transform="translate(338.037109 0)"/>
    </g>
    <!-- m=6030 -->
    <g transform="translate(583.389758 307.766373) scale(0.07 -0.07)">
     <use xlink:href="#DejaVuSans-6d"/>
     <use xlink:href="#DejaVuSans-3d" transform="translate(97.412109 0)"/>
     <use xlink:href="#DejaVuSans-36" transform="translate(181.201172 0)"/>
     <use xlink:href="#DejaVuSans-30" transform="translate(244.824219 0)"/>
     <use xlink:href="#DejaVuSans-33" transform="translate(308.447266 0)"/>
     <use xlink:href="#DejaVuSans-30" transform="translate(372.070312 0)"/>
    </g>
   </g>
   <g id="text_27">
    <g id="patch_17">
     <path d="M 729.784742 274.241349 
L 760.283961 274.241349 
Q 762.383961 274.241349 762.383961 272.141349 
L 762.383961 257.528193 
Q 762.383961 255.428193 760.283961 255.428193 
L 729.784742 255.428193 
Q 727.684742 255.428193 727.684742 257.528193 
L 727.684742 272.141349 
Q 727.684742 274.241349 729.784742 274.241349 
z
" style="fill: #ffffe0; opacity: 0.9; stroke: #ffa500; stroke-linejoin: miter"/>
    </g>
    <!-- n=3027 -->
    <g transform="translate(730.975836 262.847099) scale(0.07 -0.07)">
     <use xlink:href="#DejaVuSans-6e"/>
     <use xlink:href="#DejaVuSans-3d" transform="translate(63.378906 0)"/>
     <use xlink:href="#DejaVuSans-33" transform="translate(147.167969 0)"/>
     <use xlink:href="#DejaVuSans-30" transform="translate(210.791016 0)"/>
     <use xlink:href="#DejaVuSans-32" transform="translate(274.414062 0)"/>
     <use xlink:href="#DejaVuSans-37" transform="translate(338.037109 0)"/>
    </g>
    <!-- m=9020 -->
    <g transform="translate(729.784742 270.685568) scale(0.07 -0.07)">
     <use xlink:href="#DejaVuSans-6d"/>
     <use xlink:href="#DejaVuSans-3d" transform="translate(97.412109 0)"/>
     <use xlink:href="#DejaVuSans-39" transform="translate(181.201172 0)"/>
     <use xlink:href="#DejaVuSans-30" transform="translate(244.824219 0)"/>
     <use xlink:href="#DejaVuSans-32" transform="translate(308.447266 0)"/>
     <use xlink:href="#DejaVuSans-30" transform="translate(372.070312 0)"/>
    </g>
   </g>
   <g id="text_28">
    <g id="patch_18">
     <path d="M 873.952851 242.078481 
L 908.90582 242.078481 
Q 911.00582 242.078481 911.00582 239.978481 
L 911.00582 225.365325 
Q 911.00582 223.265325 908.90582 223.265325 
L 873.952851 223.265325 
Q 871.852851 223.265325 871.852851 225.365325 
L 871.852851 239.978481 
Q 871.852851 242.078481 873.952851 242.078481 
z
" style="fill: #ffffe0; opacity: 0.9; stroke: #ffa500; stroke-linejoin: miter"/>
    </g>
    <!-- n=4227 -->
    <g transform="translate(877.37082 230.684231) scale(0.07 -0.07)">
     <use xlink:href="#DejaVuSans-6e"/>
     <use xlink:href="#DejaVuSans-3d" transform="translate(63.378906 0)"/>
     <use xlink:href="#DejaVuSans-34" transform="translate(147.167969 0)"/>
     <use xlink:href="#DejaVuSans-32" transform="translate(210.791016 0)"/>
     <use xlink:href="#DejaVuSans-32" transform="translate(274.414062 0)"/>
     <use xlink:href="#DejaVuSans-37" transform="translate(338.037109 0)"/>
    </g>
    <!-- m=12610 -->
    <g transform="translate(873.952851 238.5227) scale(0.07 -0.07)">
     <use xlink:href="#DejaVuSans-6d"/>
     <use xlink:href="#DejaVuSans-3d" transform="translate(97.412109 0)"/>
     <use xlink:href="#DejaVuSans-31" transform="translate(181.201172 0)"/>
     <use xlink:href="#DejaVuSans-32" transform="translate(244.824219 0)"/>
     <use xlink:href="#DejaVuSans-36" transform="translate(308.447266 0)"/>
     <use xlink:href="#DejaVuSans-31" transform="translate(372.070312 0)"/>
     <use xlink:href="#DejaVuSans-30" transform="translate(435.693359 0)"/>
    </g>
   </g>
   <g id="text_29">
    <g id="patch_19">
     <path d="M 144.059258 386.519322 
L 174.84957 386.519322 
Q 176.04957 386.519322 176.04957 385.319322 
L 176.04957 379.512447 
Q 176.04957 378.312447 174.84957 378.312447 
L 144.059258 378.312447 
Q 142.859258 378.312447 142.859258 379.512447 
L 142.859258 385.319322 
Q 142.859258 386.519322 144.059258 386.519322 
z
" style="fill: #006400; opacity: 0.9; stroke: #000000; stroke-linejoin: miter"/>
    </g>
    <!-- f=15,000 -->
    <g style="fill: #ffffff" transform="translate(144.059258 384.07151) scale(0.06 -0.06)">
     <defs>
      <path id="DejaVuSans-Bold-66" d="M 2841 4863 
L 2841 4128 
L 2222 4128 
Q 1984 4128 1890 4042 
Q 1797 3956 1797 3744 
L 1797 3500 
L 2753 3500 
L 2753 2700 
L 1797 2700 
L 1797 0 
L 678 0 
L 678 2700 
L 122 2700 
L 122 3500 
L 678 3500 
L 678 3744 
Q 678 4316 997 4589 
Q 1316 4863 1984 4863 
L 2841 4863 
z
" transform="scale(0.015625)"/>
      <path id="DejaVuSans-Bold-3d" d="M 678 3084 
L 4684 3084 
L 4684 2350 
L 678 2350 
L 678 3084 
z
M 678 1663 
L 4684 1663 
L 4684 922 
L 678 922 
L 678 1663 
z
" transform="scale(0.015625)"/>
      <path id="DejaVuSans-Bold-31" d="M 750 831 
L 1813 831 
L 1813 3847 
L 722 3622 
L 722 4441 
L 1806 4666 
L 2950 4666 
L 2950 831 
L 4013 831 
L 4013 0 
L 750 0 
L 750 831 
z
" transform="scale(0.015625)"/>
      <path id="DejaVuSans-Bold-35" d="M 678 4666 
L 3669 4666 
L 3669 3781 
L 1638 3781 
L 1638 3059 
Q 1775 3097 1914 3117 
Q 2053 3138 2203 3138 
Q 3056 3138 3531 2711 
Q 4006 2284 4006 1522 
Q 4006 766 3489 337 
Q 2972 -91 2053 -91 
Q 1656 -91 1267 -14 
Q 878 63 494 219 
L 494 1166 
Q 875 947 1217 837 
Q 1559 728 1863 728 
Q 2300 728 2551 942 
Q 2803 1156 2803 1522 
Q 2803 1891 2551 2103 
Q 2300 2316 1863 2316 
Q 1603 2316 1309 2248 
Q 1016 2181 678 2041 
L 678 4666 
z
" transform="scale(0.015625)"/>
      <path id="DejaVuSans-Bold-2c" d="M 653 1209 
L 1778 1209 
L 1778 256 
L 1006 -909 
L 341 -909 
L 653 256 
L 653 1209 
z
" transform="scale(0.015625)"/>
      <path id="DejaVuSans-Bold-30" d="M 2944 2338 
Q 2944 3213 2780 3570 
Q 2616 3928 2228 3928 
Q 1841 3928 1675 3570 
Q 1509 3213 1509 2338 
Q 1509 1453 1675 1090 
Q 1841 728 2228 728 
Q 2613 728 2778 1090 
Q 2944 1453 2944 2338 
z
M 4147 2328 
Q 4147 1169 3647 539 
Q 3147 -91 2228 -91 
Q 1306 -91 806 539 
Q 306 1169 306 2328 
Q 306 3491 806 4120 
Q 1306 4750 2228 4750 
Q 3147 4750 3647 4120 
Q 4147 3491 4147 2328 
z
" transform="scale(0.015625)"/>
     </defs>
     <use xlink:href="#DejaVuSans-Bold-66"/>
     <use xlink:href="#DejaVuSans-Bold-3d" transform="translate(43.505859 0)"/>
     <use xlink:href="#DejaVuSans-Bold-31" transform="translate(127.294922 0)"/>
     <use xlink:href="#DejaVuSans-Bold-35" transform="translate(196.875 0)"/>
     <use xlink:href="#DejaVuSans-Bold-2c" transform="translate(266.455078 0)"/>
     <use xlink:href="#DejaVuSans-Bold-30" transform="translate(304.443359 0)"/>
     <use xlink:href="#DejaVuSans-Bold-30" transform="translate(374.023438 0)"/>
     <use xlink:href="#DejaVuSans-Bold-30" transform="translate(443.603516 0)"/>
    </g>
   </g>
   <g id="text_30">
    <g id="patch_20">
     <path d="M 290.454242 369.211783 
L 321.244555 369.211783 
Q 322.444555 369.211783 322.444555 368.011783 
L 322.444555 362.204908 
Q 322.444555 361.004908 321.244555 361.004908 
L 290.454242 361.004908 
Q 289.254242 361.004908 289.254242 362.204908 
L 289.254242 368.011783 
Q 289.254242 369.211783 290.454242 369.211783 
z
" style="fill: #006400; opacity: 0.9; stroke: #000000; stroke-linejoin: miter"/>
    </g>
    <!-- f=25,000 -->
    <g style="fill: #ffffff" transform="translate(290.454242 366.763971) scale(0.06 -0.06)">
     <defs>
      <path id="DejaVuSans-Bold-32" d="M 1844 884 
L 3897 884 
L 3897 0 
L 506 0 
L 506 884 
L 2209 2388 
Q 2438 2594 2547 2791 
Q 2656 2988 2656 3200 
Q 2656 3528 2436 3728 
Q 2216 3928 1850 3928 
Q 1569 3928 1234 3808 
Q 900 3688 519 3450 
L 519 4475 
Q 925 4609 1322 4679 
Q 1719 4750 2100 4750 
Q 2938 4750 3402 4381 
Q 3866 4013 3866 3353 
Q 3866 2972 3669 2642 
Q 3472 2313 2841 1759 
L 1844 884 
z
" transform="scale(0.015625)"/>
     </defs>
     <use xlink:href="#DejaVuSans-Bold-66"/>
     <use xlink:href="#DejaVuSans-Bold-3d" transform="translate(43.505859 0)"/>
     <use xlink:href="#DejaVuSans-Bold-32" transform="translate(127.294922 0)"/>
     <use xlink:href="#DejaVuSans-Bold-35" transform="translate(196.875 0)"/>
     <use xlink:href="#DejaVuSans-Bold-2c" transform="translate(266.455078 0)"/>
     <use xlink:href="#DejaVuSans-Bold-30" transform="translate(304.443359 0)"/>
     <use xlink:href="#DejaVuSans-Bold-30" transform="translate(374.023438 0)"/>
     <use xlink:href="#DejaVuSans-Bold-30" transform="translate(443.603516 0)"/>
    </g>
   </g>
   <g id="text_31">
    <g id="patch_21">
     <path d="M 436.849227 358.10578 
L 467.639539 358.10578 
Q 468.839539 358.10578 468.839539 356.90578 
L 468.839539 351.098905 
Q 468.839539 349.898905 467.639539 349.898905 
L 436.849227 349.898905 
Q 435.649227 349.898905 435.649227 351.098905 
L 435.649227 356.90578 
Q 435.649227 358.10578 436.849227 358.10578 
z
" style="fill: #006400; opacity: 0.9; stroke: #000000; stroke-linejoin: miter"/>
    </g>
    <!-- f=35,000 -->
    <g style="fill: #ffffff" transform="translate(436.849227 355.657968) scale(0.06 -0.06)">
     <defs>
      <path id="DejaVuSans-Bold-33" d="M 2981 2516 
Q 3453 2394 3698 2092 
Q 3944 1791 3944 1325 
Q 3944 631 3412 270 
Q 2881 -91 1863 -91 
Q 1503 -91 1142 -33 
Q 781 25 428 141 
L 428 1069 
Q 766 900 1098 814 
Q 1431 728 1753 728 
Q 2231 728 2486 893 
Q 2741 1059 2741 1369 
Q 2741 1688 2480 1852 
Q 2219 2016 1709 2016 
L 1228 2016 
L 1228 2791 
L 1734 2791 
Q 2188 2791 2409 2933 
Q 2631 3075 2631 3366 
Q 2631 3634 2415 3781 
Q 2200 3928 1806 3928 
Q 1516 3928 1219 3862 
Q 922 3797 628 3669 
L 628 4550 
Q 984 4650 1334 4700 
Q 1684 4750 2022 4750 
Q 2931 4750 3382 4451 
Q 3834 4153 3834 3553 
Q 3834 3144 3618 2883 
Q 3403 2622 2981 2516 
z
" transform="scale(0.015625)"/>
     </defs>
     <use xlink:href="#DejaVuSans-Bold-66"/>
     <use xlink:href="#DejaVuSans-Bold-3d" transform="translate(43.505859 0)"/>
     <use xlink:href="#DejaVuSans-Bold-33" transform="translate(127.294922 0)"/>
     <use xlink:href="#DejaVuSans-Bold-35" transform="translate(196.875 0)"/>
     <use xlink:href="#DejaVuSans-Bold-2c" transform="translate(266.455078 0)"/>
     <use xlink:href="#DejaVuSans-Bold-30" transform="translate(304.443359 0)"/>
     <use xlink:href="#DejaVuSans-Bold-30" transform="translate(374.023438 0)"/>
     <use xlink:href="#DejaVuSans-Bold-30" transform="translate(443.603516 0)"/>
    </g>
   </g>
   <g id="text_32">
    <g id="patch_22">
     <path d="M 583.244211 339.298319 
L 614.034523 339.298319 
Q 615.234523 339.298319 615.234523 338.098319 
L 615.234523 332.291444 
Q 615.234523 331.091444 614.034523 331.091444 
L 583.244211 331.091444 
Q 582.044211 331.091444 582.044211 332.291444 
L 582.044211 338.098319 
Q 582.044211 339.298319 583.244211 339.298319 
z
" style="fill: #006400; opacity: 0.9; stroke: #000000; stroke-linejoin: miter"/>
    </g>
    <!-- f=45,000 -->
    <g style="fill: #ffffff" transform="translate(583.244211 336.850506) scale(0.06 -0.06)">
     <defs>
      <path id="DejaVuSans-Bold-34" d="M 2356 3675 
L 1038 1722 
L 2356 1722 
L 2356 3675 
z
M 2156 4666 
L 3494 4666 
L 3494 1722 
L 4159 1722 
L 4159 850 
L 3494 850 
L 3494 0 
L 2356 0 
L 2356 850 
L 288 850 
L 288 1881 
L 2156 4666 
z
" transform="scale(0.015625)"/>
     </defs>
     <use xlink:href="#DejaVuSans-Bold-66"/>
     <use xlink:href="#DejaVuSans-Bold-3d" transform="translate(43.505859 0)"/>
     <use xlink:href="#DejaVuSans-Bold-34" transform="translate(127.294922 0)"/>
     <use xlink:href="#DejaVuSans-Bold-35" transform="translate(196.875 0)"/>
     <use xlink:href="#DejaVuSans-Bold-2c" transform="translate(266.455078 0)"/>
     <use xlink:href="#DejaVuSans-Bold-30" transform="translate(304.443359 0)"/>
     <use xlink:href="#DejaVuSans-Bold-30" transform="translate(374.023438 0)"/>
     <use xlink:href="#DejaVuSans-Bold-30" transform="translate(443.603516 0)"/>
    </g>
   </g>
   <g id="text_33">
    <g id="patch_23">
     <path d="M 729.639195 302.217514 
L 760.429508 302.217514 
Q 761.629508 302.217514 761.629508 301.017514 
L 761.629508 295.210639 
Q 761.629508 294.010639 760.429508 294.010639 
L 729.639195 294.010639 
Q 728.439195 294.010639 728.439195 295.210639 
L 728.439195 301.017514 
Q 728.439195 302.217514 729.639195 302.217514 
z
" style="fill: #006400; opacity: 0.9; stroke: #000000; stroke-linejoin: miter"/>
    </g>
    <!-- f=55,000 -->
    <g style="fill: #ffffff" transform="translate(729.639195 299.769701) scale(0.06 -0.06)">
     <use xlink:href="#DejaVuSans-Bold-66"/>
     <use xlink:href="#DejaVuSans-Bold-3d" transform="translate(43.505859 0)"/>
     <use xlink:href="#DejaVuSans-Bold-35" transform="translate(127.294922 0)"/>
     <use xlink:href="#DejaVuSans-Bold-35" transform="translate(196.875 0)"/>
     <use xlink:href="#DejaVuSans-Bold-2c" transform="translate(266.455078 0)"/>
     <use xlink:href="#DejaVuSans-Bold-30" transform="translate(304.443359 0)"/>
     <use xlink:href="#DejaVuSans-Bold-30" transform="translate(374.023438 0)"/>
     <use xlink:href="#DejaVuSans-Bold-30" transform="translate(443.603516 0)"/>
    </g>
   </g>
   <g id="text_34">
    <g id="patch_24">
     <path d="M 876.03418 270.054645 
L 906.824492 270.054645 
Q 908.024492 270.054645 908.024492 268.854645 
L 908.024492 263.04777 
Q 908.024492 261.84777 906.824492 261.84777 
L 876.03418 261.84777 
Q 874.83418 261.84777 874.83418 263.04777 
L 874.83418 268.854645 
Q 874.83418 270.054645 876.03418 270.054645 
z
" style="fill: #006400; opacity: 0.9; stroke: #000000; stroke-linejoin: miter"/>
    </g>
    <!-- f=65,000 -->
    <g style="fill: #ffffff" transform="translate(876.03418 267.606833) scale(0.06 -0.06)">
     <defs>
      <path id="DejaVuSans-Bold-36" d="M 2316 2303 
Q 2000 2303 1842 2098 
Q 1684 1894 1684 1484 
Q 1684 1075 1842 870 
Q 2000 666 2316 666 
Q 2634 666 2792 870 
Q 2950 1075 2950 1484 
Q 2950 1894 2792 2098 
Q 2634 2303 2316 2303 
z
M 3803 4544 
L 3803 3681 
Q 3506 3822 3243 3889 
Q 2981 3956 2731 3956 
Q 2194 3956 1894 3657 
Q 1594 3359 1544 2772 
Q 1750 2925 1990 3001 
Q 2231 3078 2516 3078 
Q 3231 3078 3670 2659 
Q 4109 2241 4109 1563 
Q 4109 813 3618 361 
Q 3128 -91 2303 -91 
Q 1394 -91 895 523 
Q 397 1138 397 2266 
Q 397 3422 980 4083 
Q 1563 4744 2578 4744 
Q 2900 4744 3203 4694 
Q 3506 4644 3803 4544 
z
" transform="scale(0.015625)"/>
     </defs>
     <use xlink:href="#DejaVuSans-Bold-66"/>
     <use xlink:href="#DejaVuSans-Bold-3d" transform="translate(43.505859 0)"/>
     <use xlink:href="#DejaVuSans-Bold-36" transform="translate(127.294922 0)"/>
     <use xlink:href="#DejaVuSans-Bold-35" transform="translate(196.875 0)"/>
     <use xlink:href="#DejaVuSans-Bold-2c" transform="translate(266.455078 0)"/>
     <use xlink:href="#DejaVuSans-Bold-30" transform="translate(304.443359 0)"/>
     <use xlink:href="#DejaVuSans-Bold-30" transform="translate(374.023438 0)"/>
     <use xlink:href="#DejaVuSans-Bold-30" transform="translate(443.603516 0)"/>
    </g>
   </g>
   <g id="text_35">
    <!-- Ford Fulkerson - Mesh - Mean Runtime vs Input Size (n×m) -->
    <g transform="translate(293.156719 17.837812) scale(0.14 -0.14)">
     <defs>
      <path id="DejaVuSans-Bold-46" d="M 588 4666 
L 3834 4666 
L 3834 3756 
L 1791 3756 
L 1791 2888 
L 3713 2888 
L 3713 1978 
L 1791 1978 
L 1791 0 
L 588 0 
L 588 4666 
z
" transform="scale(0.015625)"/>
      <path id="DejaVuSans-Bold-6c" d="M 538 4863 
L 1656 4863 
L 1656 0 
L 538 0 
L 538 4863 
z
" transform="scale(0.015625)"/>
      <path id="DejaVuSans-Bold-6b" d="M 538 4863 
L 1656 4863 
L 1656 2216 
L 2944 3500 
L 4244 3500 
L 2534 1894 
L 4378 0 
L 3022 0 
L 1656 1459 
L 1656 0 
L 538 0 
L 538 4863 
z
" transform="scale(0.015625)"/>
      <path id="DejaVuSans-Bold-2d" d="M 347 2297 
L 2309 2297 
L 2309 1388 
L 347 1388 
L 347 2297 
z
" transform="scale(0.015625)"/>
      <path id="DejaVuSans-Bold-68" d="M 4056 2131 
L 4056 0 
L 2931 0 
L 2931 347 
L 2931 1625 
Q 2931 2084 2911 2256 
Q 2891 2428 2841 2509 
Q 2775 2619 2662 2680 
Q 2550 2741 2406 2741 
Q 2056 2741 1856 2470 
Q 1656 2200 1656 1722 
L 1656 0 
L 538 0 
L 538 4863 
L 1656 4863 
L 1656 2988 
Q 1909 3294 2193 3439 
Q 2478 3584 2822 3584 
Q 3428 3584 3742 3212 
Q 4056 2841 4056 2131 
z
" transform="scale(0.015625)"/>
     </defs>
     <use xlink:href="#DejaVuSans-Bold-46"/>
     <use xlink:href="#DejaVuSans-Bold-6f" transform="translate(64.310547 0)"/>
     <use xlink:href="#DejaVuSans-Bold-72" transform="translate(133.011719 0)"/>
     <use xlink:href="#DejaVuSans-Bold-64" transform="translate(182.328125 0)"/>
     <use xlink:href="#DejaVuSans-Bold-20" transform="translate(253.910156 0)"/>
     <use xlink:href="#DejaVuSans-Bold-46" transform="translate(288.724609 0)"/>
     <use xlink:href="#DejaVuSans-Bold-75" transform="translate(352.035156 0)"/>
     <use xlink:href="#DejaVuSans-Bold-6c" transform="translate(423.226562 0)"/>
     <use xlink:href="#DejaVuSans-Bold-6b" transform="translate(457.503906 0)"/>
     <use xlink:href="#DejaVuSans-Bold-65" transform="translate(521.382812 0)"/>
     <use xlink:href="#DejaVuSans-Bold-72" transform="translate(589.205078 0)"/>
     <use xlink:href="#DejaVuSans-Bold-73" transform="translate(638.521484 0)"/>
     <use xlink:href="#DejaVuSans-Bold-6f" transform="translate(698.042969 0)"/>
     <use xlink:href="#DejaVuSans-Bold-6e" transform="translate(766.744141 0)"/>
     <use xlink:href="#DejaVuSans-Bold-20" transform="translate(837.935547 0)"/>
     <use xlink:href="#DejaVuSans-Bold-2d" transform="translate(872.75 0)"/>
     <use xlink:href="#DejaVuSans-Bold-20" transform="translate(914.253906 0)"/>
     <use xlink:href="#DejaVuSans-Bold-4d" transform="translate(949.068359 0)"/>
     <use xlink:href="#DejaVuSans-Bold-65" transform="translate(1048.580078 0)"/>
     <use xlink:href="#DejaVuSans-Bold-73" transform="translate(1116.402344 0)"/>
     <use xlink:href="#DejaVuSans-Bold-68" transform="translate(1175.923828 0)"/>
     <use xlink:href="#DejaVuSans-Bold-20" transform="translate(1247.115234 0)"/>
     <use xlink:href="#DejaVuSans-Bold-2d" transform="translate(1281.929688 0)"/>
     <use xlink:href="#DejaVuSans-Bold-20" transform="translate(1323.433594 0)"/>
     <use xlink:href="#DejaVuSans-Bold-4d" transform="translate(1358.248047 0)"/>
     <use xlink:href="#DejaVuSans-Bold-65" transform="translate(1457.759766 0)"/>
     <use xlink:href="#DejaVuSans-Bold-61" transform="translate(1525.582031 0)"/>
     <use xlink:href="#DejaVuSans-Bold-6e" transform="translate(1593.0625 0)"/>
     <use xlink:href="#DejaVuSans-Bold-20" transform="translate(1664.253906 0)"/>
     <use xlink:href="#DejaVuSans-Bold-52" transform="translate(1699.068359 0)"/>
     <use xlink:href="#DejaVuSans-Bold-75" transform="translate(1776.070312 0)"/>
     <use xlink:href="#DejaVuSans-Bold-6e" transform="translate(1847.261719 0)"/>
     <use xlink:href="#DejaVuSans-Bold-74" transform="translate(1918.453125 0)"/>
     <use xlink:href="#DejaVuSans-Bold-69" transform="translate(1966.255859 0)"/>
     <use xlink:href="#DejaVuSans-Bold-6d" transform="translate(2000.533203 0)"/>
     <use xlink:href="#DejaVuSans-Bold-65" transform="translate(2104.732422 0)"/>
     <use xlink:href="#DejaVuSans-Bold-20" transform="translate(2172.554688 0)"/>
     <use xlink:href="#DejaVuSans-Bold-76" transform="translate(2207.369141 0)"/>
     <use xlink:href="#DejaVuSans-Bold-73" transform="translate(2272.554688 0)"/>
     <use xlink:href="#DejaVuSans-Bold-20" transform="translate(2332.076172 0)"/>
     <use xlink:href="#DejaVuSans-Bold-49" transform="translate(2366.890625 0)"/>
     <use xlink:href="#DejaVuSans-Bold-6e" transform="translate(2404.097656 0)"/>
     <use xlink:href="#DejaVuSans-Bold-70" transform="translate(2475.289062 0)"/>
     <use xlink:href="#DejaVuSans-Bold-75" transform="translate(2546.871094 0)"/>
     <use xlink:href="#DejaVuSans-Bold-74" transform="translate(2618.0625 0)"/>
     <use xlink:href="#DejaVuSans-Bold-20" transform="translate(2665.865234 0)"/>
     <use xlink:href="#DejaVuSans-Bold-53" transform="translate(2700.679688 0)"/>
     <use xlink:href="#DejaVuSans-Bold-69" transform="translate(2772.701172 0)"/>
     <use xlink:href="#DejaVuSans-Bold-7a" transform="translate(2806.978516 0)"/>
     <use xlink:href="#DejaVuSans-Bold-65" transform="translate(2865.181641 0)"/>
     <use xlink:href="#DejaVuSans-Bold-20" transform="translate(2933.003906 0)"/>
     <use xlink:href="#DejaVuSans-Bold-28" transform="translate(2967.818359 0)"/>
     <use xlink:href="#DejaVuSans-Bold-6e" transform="translate(3013.521484 0)"/>
     <use xlink:href="#DejaVuSans-Bold-d7" transform="translate(3084.712891 0)"/>
     <use xlink:href="#DejaVuSans-Bold-6d" transform="translate(3168.501953 0)"/>
     <use xlink:href="#DejaVuSans-Bold-29" transform="translate(3272.701172 0)"/>
    </g>
   </g>
  </g>
 </g>
 <defs>
  <clipPath id="p5cd96c93ad">
   <rect x="58.441875" y="23.837812" width="934" height="398.683263"/>
  </clipPath>
 </defs>
</svg>
