<?xml version="1.0" encoding="utf-8" standalone="no"?>
<!DOCTYPE svg PUBLIC "-//W3C//DTD SVG 1.1//EN"
  "http://www.w3.org/Graphics/SVG/1.1/DTD/svg11.dtd">
<svg xmlns:xlink="http://www.w3.org/1999/xlink" width="999.516875pt" height="495.244333pt" viewBox="0 0 999.516875 495.244333" xmlns="http://www.w3.org/2000/svg" version="1.1">
 <metadata>
  <rdf:RDF xmlns:dc="http://purl.org/dc/elements/1.1/" xmlns:cc="http://creativecommons.org/ns#" xmlns:rdf="http://www.w3.org/1999/02/22-rdf-syntax-ns#">
   <cc:Work>
    <dc:type rdf:resource="http://purl.org/dc/dcmitype/StillImage"/>
    <dc:date>2025-12-03T16:50:26.858496</dc:date>
    <dc:format>image/svg+xml</dc:format>
    <dc:creator>
     <cc:Agent>
      <dc:title>Matplotlib v3.10.7, https://matplotlib.org/</dc:title>
     </cc:Agent>
    </dc:creator>
   </cc:Work>
  </rdf:RDF>
 </metadata>
 <defs>
  <style type="text/css">*{stroke-linejoin: round; stroke-linecap: butt}</style>
 </defs>
 <g id="figure_1">
  <g id="patch_1">
   <path d="M 0 495.244333 
L 999.516875 495.244333 
L 999.516875 0 
L 0 0 
z
" style="fill: #ffffff"/>
  </g>
  <g id="axes_1">
   <g id="patch_2">
    <path d="M 45.716875 418.002663 
L 992.316875 418.002663 
L 992.316875 23.837813 
L 45.716875 23.837813 
z
" style="fill: #ffffff"/>
   </g>
   <g id="matplotlib.axis_1">
    <g id="xtick_1">
     <g id="line2d_1">
      <defs>
       <path id="m4eb82c1d2e" d="M 0 0 
L 0 3.5 
" style="stroke: #000000; stroke-width: 0.8"/>
      </defs>
      <g>
       <use xlink:href="#m4eb82c1d2e" x="132.874684" y="418.002663" style="stroke: #000000; stroke-width: 0.8"/>
      </g>
     </g>
     <g id="text_1">
      <!-- 312120 -->
      <g transform="translate(104.410321 457.369371) rotate(-45) scale(0.1 -0.1)">
       <defs>
        <path id="DejaVuSans-33" d="M 2597 2516 
Q 3050 2419 3304 2112 
Q 3559 1806 3559 1356 
Q 3559 666 3084 287 
Q 2609 -91 1734 -91 
Q 1441 -91 1130 -33 
Q 819 25 488 141 
L 488 750 
Q 750 597 1062 519 
Q 1375 441 1716 441 
Q 2309 441 2620 675 
Q 2931 909 2931 1356 
Q 2931 1769 2642 2001 
Q 2353 2234 1838 2234 
L 1294 2234 
L 1294 2753 
L 1863 2753 
Q 2328 2753 2575 2939 
Q 2822 3125 2822 3475 
Q 2822 3834 2567 4026 
Q 2313 4219 1838 4219 
Q 1578 4219 1281 4162 
Q 984 4106 628 3988 
L 628 4550 
Q 988 4650 1302 4700 
Q 1616 4750 1894 4750 
Q 2613 4750 3031 4423 
Q 3450 4097 3450 3541 
Q 3450 3153 3228 2886 
Q 3006 2619 2597 2516 
z
" transform="scale(0.015625)"/>
        <path id="DejaVuSans-31" d="M 794 531 
L 1825 531 
L 1825 4091 
L 703 3866 
L 703 4441 
L 1819 4666 
L 2450 4666 
L 2450 531 
L 3481 531 
L 3481 0 
L 794 0 
L 794 531 
z
" transform="scale(0.015625)"/>
        <path id="DejaVuSans-32" d="M 1228 531 
L 3431 531 
L 3431 0 
L 469 0 
L 469 531 
Q 828 903 1448 1529 
Q 2069 2156 2228 2338 
Q 2531 2678 2651 2914 
Q 2772 3150 2772 3378 
Q 2772 3750 2511 3984 
Q 2250 4219 1831 4219 
Q 1534 4219 1204 4116 
Q 875 4013 500 3803 
L 500 4441 
Q 881 4594 1212 4672 
Q 1544 4750 1819 4750 
Q 2544 4750 2975 4387 
Q 3406 4025 3406 3419 
Q 3406 3131 3298 2873 
Q 3191 2616 2906 2266 
Q 2828 2175 2409 1742 
Q 1991 1309 1228 531 
z
" transform="scale(0.015625)"/>
        <path id="DejaVuSans-30" d="M 2034 4250 
Q 1547 4250 1301 3770 
Q 1056 3291 1056 2328 
Q 1056 1369 1301 889 
Q 1547 409 2034 409 
Q 2525 409 2770 889 
Q 3016 1369 3016 2328 
Q 3016 3291 2770 3770 
Q 2525 4250 2034 4250 
z
M 2034 4750 
Q 2819 4750 3233 4129 
Q 3647 3509 3647 2328 
Q 3647 1150 3233 529 
Q 2819 -91 2034 -91 
Q 1250 -91 836 529 
Q 422 1150 422 2328 
Q 422 3509 836 4129 
Q 1250 4750 2034 4750 
z
" transform="scale(0.015625)"/>
       </defs>
       <use xlink:href="#DejaVuSans-33"/>
       <use xlink:href="#DejaVuSans-31" transform="translate(63.623047 0)"/>
       <use xlink:href="#DejaVuSans-32" transform="translate(127.246094 0)"/>
       <use xlink:href="#DejaVuSans-31" transform="translate(190.869141 0)"/>
       <use xlink:href="#DejaVuSans-32" transform="translate(254.492188 0)"/>
       <use xlink:href="#DejaVuSans-30" transform="translate(318.115234 0)"/>
      </g>
     </g>
    </g>
    <g id="xtick_2">
     <g id="line2d_2">
      <g>
       <use xlink:href="#m4eb82c1d2e" x="243.201024" y="418.002663" style="stroke: #000000; stroke-width: 0.8"/>
      </g>
     </g>
     <g id="text_2">
      <!-- 1905120 -->
      <g transform="translate(210.237695 461.868338) rotate(-45) scale(0.1 -0.1)">
       <defs>
        <path id="DejaVuSans-39" d="M 703 97 
L 703 672 
Q 941 559 1184 500 
Q 1428 441 1663 441 
Q 2288 441 2617 861 
Q 2947 1281 2994 2138 
Q 2813 1869 2534 1725 
Q 2256 1581 1919 1581 
Q 1219 1581 811 2004 
Q 403 2428 403 3163 
Q 403 3881 828 4315 
Q 1253 4750 1959 4750 
Q 2769 4750 3195 4129 
Q 3622 3509 3622 2328 
Q 3622 1225 3098 567 
Q 2575 -91 1691 -91 
Q 1453 -91 1209 -44 
Q 966 3 703 97 
z
M 1959 2075 
Q 2384 2075 2632 2365 
Q 2881 2656 2881 3163 
Q 2881 3666 2632 3958 
Q 2384 4250 1959 4250 
Q 1534 4250 1286 3958 
Q 1038 3666 1038 3163 
Q 1038 2656 1286 2365 
Q 1534 2075 1959 2075 
z
" transform="scale(0.015625)"/>
        <path id="DejaVuSans-35" d="M 691 4666 
L 3169 4666 
L 3169 4134 
L 1269 4134 
L 1269 2991 
Q 1406 3038 1543 3061 
Q 1681 3084 1819 3084 
Q 2600 3084 3056 2656 
Q 3513 2228 3513 1497 
Q 3513 744 3044 326 
Q 2575 -91 1722 -91 
Q 1428 -91 1123 -41 
Q 819 9 494 109 
L 494 744 
Q 775 591 1075 516 
Q 1375 441 1709 441 
Q 2250 441 2565 725 
Q 2881 1009 2881 1497 
Q 2881 1984 2565 2268 
Q 2250 2553 1709 2553 
Q 1456 2553 1204 2497 
Q 953 2441 691 2322 
L 691 4666 
z
" transform="scale(0.015625)"/>
       </defs>
       <use xlink:href="#DejaVuSans-31"/>
       <use xlink:href="#DejaVuSans-39" transform="translate(63.623047 0)"/>
       <use xlink:href="#DejaVuSans-30" transform="translate(127.246094 0)"/>
       <use xlink:href="#DejaVuSans-35" transform="translate(190.869141 0)"/>
       <use xlink:href="#DejaVuSans-31" transform="translate(254.492188 0)"/>
       <use xlink:href="#DejaVuSans-32" transform="translate(318.115234 0)"/>
       <use xlink:href="#DejaVuSans-30" transform="translate(381.738281 0)"/>
      </g>
     </g>
    </g>
    <g id="xtick_3">
     <g id="line2d_3">
      <g>
       <use xlink:href="#m4eb82c1d2e" x="353.527365" y="418.002663" style="stroke: #000000; stroke-width: 0.8"/>
      </g>
     </g>
     <g id="text_3">
      <!-- 7560120 -->
      <g transform="translate(320.564035 461.868338) rotate(-45) scale(0.1 -0.1)">
       <defs>
        <path id="DejaVuSans-37" d="M 525 4666 
L 3525 4666 
L 3525 4397 
L 1831 0 
L 1172 0 
L 2766 4134 
L 525 4134 
L 525 4666 
z
" transform="scale(0.015625)"/>
        <path id="DejaVuSans-36" d="M 2113 2584 
Q 1688 2584 1439 2293 
Q 1191 2003 1191 1497 
Q 1191 994 1439 701 
Q 1688 409 2113 409 
Q 2538 409 2786 701 
Q 3034 994 3034 1497 
Q 3034 2003 2786 2293 
Q 2538 2584 2113 2584 
z
M 3366 4563 
L 3366 3988 
Q 3128 4100 2886 4159 
Q 2644 4219 2406 4219 
Q 1781 4219 1451 3797 
Q 1122 3375 1075 2522 
Q 1259 2794 1537 2939 
Q 1816 3084 2150 3084 
Q 2853 3084 3261 2657 
Q 3669 2231 3669 1497 
Q 3669 778 3244 343 
Q 2819 -91 2113 -91 
Q 1303 -91 875 529 
Q 447 1150 447 2328 
Q 447 3434 972 4092 
Q 1497 4750 2381 4750 
Q 2619 4750 2861 4703 
Q 3103 4656 3366 4563 
z
" transform="scale(0.015625)"/>
       </defs>
       <use xlink:href="#DejaVuSans-37"/>
       <use xlink:href="#DejaVuSans-35" transform="translate(63.623047 0)"/>
       <use xlink:href="#DejaVuSans-36" transform="translate(127.246094 0)"/>
       <use xlink:href="#DejaVuSans-30" transform="translate(190.869141 0)"/>
       <use xlink:href="#DejaVuSans-31" transform="translate(254.492188 0)"/>
       <use xlink:href="#DejaVuSans-32" transform="translate(318.115234 0)"/>
       <use xlink:href="#DejaVuSans-30" transform="translate(381.738281 0)"/>
      </g>
     </g>
    </g>
    <g id="xtick_4">
     <g id="line2d_4">
      <g>
       <use xlink:href="#m4eb82c1d2e" x="463.853705" y="418.002663" style="stroke: #000000; stroke-width: 0.8"/>
      </g>
     </g>
     <g id="text_4">
      <!-- 30120120 -->
      <g transform="translate(426.391409 466.367305) rotate(-45) scale(0.1 -0.1)">
       <use xlink:href="#DejaVuSans-33"/>
       <use xlink:href="#DejaVuSans-30" transform="translate(63.623047 0)"/>
       <use xlink:href="#DejaVuSans-31" transform="translate(127.246094 0)"/>
       <use xlink:href="#DejaVuSans-32" transform="translate(190.869141 0)"/>
       <use xlink:href="#DejaVuSans-30" transform="translate(254.492188 0)"/>
       <use xlink:href="#DejaVuSans-31" transform="translate(318.115234 0)"/>
       <use xlink:href="#DejaVuSans-32" transform="translate(381.738281 0)"/>
       <use xlink:href="#DejaVuSans-30" transform="translate(445.361328 0)"/>
      </g>
     </g>
    </g>
    <g id="xtick_5">
     <g id="line2d_5">
      <g>
       <use xlink:href="#m4eb82c1d2e" x="574.180045" y="418.002663" style="stroke: #000000; stroke-width: 0.8"/>
      </g>
     </g>
     <g id="text_5">
      <!-- 67680120 -->
      <g transform="translate(536.717749 466.367305) rotate(-45) scale(0.1 -0.1)">
       <defs>
        <path id="DejaVuSans-38" d="M 2034 2216 
Q 1584 2216 1326 1975 
Q 1069 1734 1069 1313 
Q 1069 891 1326 650 
Q 1584 409 2034 409 
Q 2484 409 2743 651 
Q 3003 894 3003 1313 
Q 3003 1734 2745 1975 
Q 2488 2216 2034 2216 
z
M 1403 2484 
Q 997 2584 770 2862 
Q 544 3141 544 3541 
Q 544 4100 942 4425 
Q 1341 4750 2034 4750 
Q 2731 4750 3128 4425 
Q 3525 4100 3525 3541 
Q 3525 3141 3298 2862 
Q 3072 2584 2669 2484 
Q 3125 2378 3379 2068 
Q 3634 1759 3634 1313 
Q 3634 634 3220 271 
Q 2806 -91 2034 -91 
Q 1263 -91 848 271 
Q 434 634 434 1313 
Q 434 1759 690 2068 
Q 947 2378 1403 2484 
z
M 1172 3481 
Q 1172 3119 1398 2916 
Q 1625 2713 2034 2713 
Q 2441 2713 2670 2916 
Q 2900 3119 2900 3481 
Q 2900 3844 2670 4047 
Q 2441 4250 2034 4250 
Q 1625 4250 1398 4047 
Q 1172 3844 1172 3481 
z
" transform="scale(0.015625)"/>
       </defs>
       <use xlink:href="#DejaVuSans-36"/>
       <use xlink:href="#DejaVuSans-37" transform="translate(63.623047 0)"/>
       <use xlink:href="#DejaVuSans-36" transform="translate(127.246094 0)"/>
       <use xlink:href="#DejaVuSans-38" transform="translate(190.869141 0)"/>
       <use xlink:href="#DejaVuSans-30" transform="translate(254.492188 0)"/>
       <use xlink:href="#DejaVuSans-31" transform="translate(318.115234 0)"/>
       <use xlink:href="#DejaVuSans-32" transform="translate(381.738281 0)"/>
       <use xlink:href="#DejaVuSans-30" transform="translate(445.361328 0)"/>
      </g>
     </g>
    </g>
    <g id="xtick_6">
     <g id="line2d_6">
      <g>
       <use xlink:href="#m4eb82c1d2e" x="684.506385" y="418.002663" style="stroke: #000000; stroke-width: 0.8"/>
      </g>
     </g>
     <g id="text_6">
      <!-- 120240120 -->
      <g transform="translate(642.545122 470.866272) rotate(-45) scale(0.1 -0.1)">
       <defs>
        <path id="DejaVuSans-34" d="M 2419 4116 
L 825 1625 
L 2419 1625 
L 2419 4116 
z
M 2253 4666 
L 3047 4666 
L 3047 1625 
L 3713 1625 
L 3713 1100 
L 3047 1100 
L 3047 0 
L 2419 0 
L 2419 1100 
L 313 1100 
L 313 1709 
L 2253 4666 
z
" transform="scale(0.015625)"/>
       </defs>
       <use xlink:href="#DejaVuSans-31"/>
       <use xlink:href="#DejaVuSans-32" transform="translate(63.623047 0)"/>
       <use xlink:href="#DejaVuSans-30" transform="translate(127.246094 0)"/>
       <use xlink:href="#DejaVuSans-32" transform="translate(190.869141 0)"/>
       <use xlink:href="#DejaVuSans-34" transform="translate(254.492188 0)"/>
       <use xlink:href="#DejaVuSans-30" transform="translate(318.115234 0)"/>
       <use xlink:href="#DejaVuSans-31" transform="translate(381.738281 0)"/>
       <use xlink:href="#DejaVuSans-32" transform="translate(445.361328 0)"/>
       <use xlink:href="#DejaVuSans-30" transform="translate(508.984375 0)"/>
      </g>
     </g>
    </g>
    <g id="xtick_7">
     <g id="line2d_7">
      <g>
       <use xlink:href="#m4eb82c1d2e" x="794.832726" y="418.002663" style="stroke: #000000; stroke-width: 0.8"/>
      </g>
     </g>
     <g id="text_7">
      <!-- 187800120 -->
      <g transform="translate(752.871463 470.866272) rotate(-45) scale(0.1 -0.1)">
       <use xlink:href="#DejaVuSans-31"/>
       <use xlink:href="#DejaVuSans-38" transform="translate(63.623047 0)"/>
       <use xlink:href="#DejaVuSans-37" transform="translate(127.246094 0)"/>
       <use xlink:href="#DejaVuSans-38" transform="translate(190.869141 0)"/>
       <use xlink:href="#DejaVuSans-30" transform="translate(254.492188 0)"/>
       <use xlink:href="#DejaVuSans-30" transform="translate(318.115234 0)"/>
       <use xlink:href="#DejaVuSans-31" transform="translate(381.738281 0)"/>
       <use xlink:href="#DejaVuSans-32" transform="translate(445.361328 0)"/>
       <use xlink:href="#DejaVuSans-30" transform="translate(508.984375 0)"/>
      </g>
     </g>
    </g>
    <g id="xtick_8">
     <g id="line2d_8">
      <g>
       <use xlink:href="#m4eb82c1d2e" x="905.159066" y="418.002663" style="stroke: #000000; stroke-width: 0.8"/>
      </g>
     </g>
     <g id="text_8">
      <!-- 270360120 -->
      <g transform="translate(863.197803 470.866272) rotate(-45) scale(0.1 -0.1)">
       <use xlink:href="#DejaVuSans-32"/>
       <use xlink:href="#DejaVuSans-37" transform="translate(63.623047 0)"/>
       <use xlink:href="#DejaVuSans-30" transform="translate(127.246094 0)"/>
       <use xlink:href="#DejaVuSans-33" transform="translate(190.869141 0)"/>
       <use xlink:href="#DejaVuSans-36" transform="translate(254.492188 0)"/>
       <use xlink:href="#DejaVuSans-30" transform="translate(318.115234 0)"/>
       <use xlink:href="#DejaVuSans-31" transform="translate(381.738281 0)"/>
       <use xlink:href="#DejaVuSans-32" transform="translate(445.361328 0)"/>
       <use xlink:href="#DejaVuSans-30" transform="translate(508.984375 0)"/>
      </g>
     </g>
    </g>
    <g id="text_9">
     <!-- Input Size (vertices × edges) -->
     <g transform="translate(420.91125 485.454958) scale(0.12 -0.12)">
      <defs>
       <path id="DejaVuSans-Bold-49" d="M 588 4666 
L 1791 4666 
L 1791 0 
L 588 0 
L 588 4666 
z
" transform="scale(0.015625)"/>
       <path id="DejaVuSans-Bold-6e" d="M 4056 2131 
L 4056 0 
L 2931 0 
L 2931 347 
L 2931 1631 
Q 2931 2084 2911 2256 
Q 2891 2428 2841 2509 
Q 2775 2619 2662 2680 
Q 2550 2741 2406 2741 
Q 2056 2741 1856 2470 
Q 1656 2200 1656 1722 
L 1656 0 
L 538 0 
L 538 3500 
L 1656 3500 
L 1656 2988 
Q 1909 3294 2193 3439 
Q 2478 3584 2822 3584 
Q 3428 3584 3742 3212 
Q 4056 2841 4056 2131 
z
" transform="scale(0.015625)"/>
       <path id="DejaVuSans-Bold-70" d="M 1656 506 
L 1656 -1331 
L 538 -1331 
L 538 3500 
L 1656 3500 
L 1656 2988 
Q 1888 3294 2169 3439 
Q 2450 3584 2816 3584 
Q 3463 3584 3878 3070 
Q 4294 2556 4294 1747 
Q 4294 938 3878 423 
Q 3463 -91 2816 -91 
Q 2450 -91 2169 54 
Q 1888 200 1656 506 
z
M 2400 2772 
Q 2041 2772 1848 2508 
Q 1656 2244 1656 1747 
Q 1656 1250 1848 986 
Q 2041 722 2400 722 
Q 2759 722 2948 984 
Q 3138 1247 3138 1747 
Q 3138 2247 2948 2509 
Q 2759 2772 2400 2772 
z
" transform="scale(0.015625)"/>
       <path id="DejaVuSans-Bold-75" d="M 500 1363 
L 500 3500 
L 1625 3500 
L 1625 3150 
Q 1625 2866 1622 2436 
Q 1619 2006 1619 1863 
Q 1619 1441 1641 1255 
Q 1663 1069 1716 984 
Q 1784 875 1895 815 
Q 2006 756 2150 756 
Q 2500 756 2700 1025 
Q 2900 1294 2900 1772 
L 2900 3500 
L 4019 3500 
L 4019 0 
L 2900 0 
L 2900 506 
Q 2647 200 2364 54 
Q 2081 -91 1741 -91 
Q 1134 -91 817 281 
Q 500 653 500 1363 
z
" transform="scale(0.015625)"/>
       <path id="DejaVuSans-Bold-74" d="M 1759 4494 
L 1759 3500 
L 2913 3500 
L 2913 2700 
L 1759 2700 
L 1759 1216 
Q 1759 972 1856 886 
Q 1953 800 2241 800 
L 2816 800 
L 2816 0 
L 1856 0 
Q 1194 0 917 276 
Q 641 553 641 1216 
L 641 2700 
L 84 2700 
L 84 3500 
L 641 3500 
L 641 4494 
L 1759 4494 
z
" transform="scale(0.015625)"/>
       <path id="DejaVuSans-Bold-20" transform="scale(0.015625)"/>
       <path id="DejaVuSans-Bold-53" d="M 3834 4519 
L 3834 3531 
Q 3450 3703 3084 3790 
Q 2719 3878 2394 3878 
Q 1963 3878 1756 3759 
Q 1550 3641 1550 3391 
Q 1550 3203 1689 3098 
Q 1828 2994 2194 2919 
L 2706 2816 
Q 3484 2659 3812 2340 
Q 4141 2022 4141 1434 
Q 4141 663 3683 286 
Q 3225 -91 2284 -91 
Q 1841 -91 1394 -6 
Q 947 78 500 244 
L 500 1259 
Q 947 1022 1364 901 
Q 1781 781 2169 781 
Q 2563 781 2772 912 
Q 2981 1044 2981 1288 
Q 2981 1506 2839 1625 
Q 2697 1744 2272 1838 
L 1806 1941 
Q 1106 2091 782 2419 
Q 459 2747 459 3303 
Q 459 4000 909 4375 
Q 1359 4750 2203 4750 
Q 2588 4750 2994 4692 
Q 3400 4634 3834 4519 
z
" transform="scale(0.015625)"/>
       <path id="DejaVuSans-Bold-69" d="M 538 3500 
L 1656 3500 
L 1656 0 
L 538 0 
L 538 3500 
z
M 538 4863 
L 1656 4863 
L 1656 3950 
L 538 3950 
L 538 4863 
z
" transform="scale(0.015625)"/>
       <path id="DejaVuSans-Bold-7a" d="M 366 3500 
L 3419 3500 
L 3419 2719 
L 1575 800 
L 3419 800 
L 3419 0 
L 288 0 
L 288 781 
L 2131 2700 
L 366 2700 
L 366 3500 
z
" transform="scale(0.015625)"/>
       <path id="DejaVuSans-Bold-65" d="M 4031 1759 
L 4031 1441 
L 1416 1441 
Q 1456 1047 1700 850 
Q 1944 653 2381 653 
Q 2734 653 3104 758 
Q 3475 863 3866 1075 
L 3866 213 
Q 3469 63 3072 -14 
Q 2675 -91 2278 -91 
Q 1328 -91 801 392 
Q 275 875 275 1747 
Q 275 2603 792 3093 
Q 1309 3584 2216 3584 
Q 3041 3584 3536 3087 
Q 4031 2591 4031 1759 
z
M 2881 2131 
Q 2881 2450 2695 2645 
Q 2509 2841 2209 2841 
Q 1884 2841 1681 2658 
Q 1478 2475 1428 2131 
L 2881 2131 
z
" transform="scale(0.015625)"/>
       <path id="DejaVuSans-Bold-28" d="M 2413 -844 
L 1484 -844 
Q 1006 -72 778 623 
Q 550 1319 550 2003 
Q 550 2688 779 3389 
Q 1009 4091 1484 4856 
L 2413 4856 
Q 2013 4116 1813 3408 
Q 1613 2700 1613 2009 
Q 1613 1319 1811 609 
Q 2009 -100 2413 -844 
z
" transform="scale(0.015625)"/>
       <path id="DejaVuSans-Bold-76" d="M 97 3500 
L 1216 3500 
L 2088 1081 
L 2956 3500 
L 4078 3500 
L 2700 0 
L 1472 0 
L 97 3500 
z
" transform="scale(0.015625)"/>
       <path id="DejaVuSans-Bold-72" d="M 3138 2547 
Q 2991 2616 2845 2648 
Q 2700 2681 2553 2681 
Q 2122 2681 1889 2404 
Q 1656 2128 1656 1613 
L 1656 0 
L 538 0 
L 538 3500 
L 1656 3500 
L 1656 2925 
Q 1872 3269 2151 3426 
Q 2431 3584 2822 3584 
Q 2878 3584 2943 3579 
Q 3009 3575 3134 3559 
L 3138 2547 
z
" transform="scale(0.015625)"/>
       <path id="DejaVuSans-Bold-63" d="M 3366 3391 
L 3366 2478 
Q 3138 2634 2908 2709 
Q 2678 2784 2431 2784 
Q 1963 2784 1702 2511 
Q 1441 2238 1441 1747 
Q 1441 1256 1702 982 
Q 1963 709 2431 709 
Q 2694 709 2930 787 
Q 3166 866 3366 1019 
L 3366 103 
Q 3103 6 2833 -42 
Q 2563 -91 2291 -91 
Q 1344 -91 809 395 
Q 275 881 275 1747 
Q 275 2613 809 3098 
Q 1344 3584 2291 3584 
Q 2566 3584 2833 3536 
Q 3100 3488 3366 3391 
z
" transform="scale(0.015625)"/>
       <path id="DejaVuSans-Bold-73" d="M 3272 3391 
L 3272 2541 
Q 2913 2691 2578 2766 
Q 2244 2841 1947 2841 
Q 1628 2841 1473 2761 
Q 1319 2681 1319 2516 
Q 1319 2381 1436 2309 
Q 1553 2238 1856 2203 
L 2053 2175 
Q 2913 2066 3209 1816 
Q 3506 1566 3506 1031 
Q 3506 472 3093 190 
Q 2681 -91 1863 -91 
Q 1516 -91 1145 -36 
Q 775 19 384 128 
L 384 978 
Q 719 816 1070 734 
Q 1422 653 1784 653 
Q 2113 653 2278 743 
Q 2444 834 2444 1013 
Q 2444 1163 2330 1236 
Q 2216 1309 1875 1350 
L 1678 1375 
Q 931 1469 631 1722 
Q 331 1975 331 2491 
Q 331 3047 712 3315 
Q 1094 3584 1881 3584 
Q 2191 3584 2531 3537 
Q 2872 3491 3272 3391 
z
" transform="scale(0.015625)"/>
       <path id="DejaVuSans-Bold-d7" d="M 4563 3359 
L 3206 2003 
L 4563 653 
L 4038 128 
L 2681 1478 
L 1325 128 
L 800 653 
L 2156 2003 
L 800 3359 
L 1325 3884 
L 2681 2528 
L 4038 3884 
L 4563 3359 
z
" transform="scale(0.015625)"/>
       <path id="DejaVuSans-Bold-64" d="M 2919 2988 
L 2919 4863 
L 4044 4863 
L 4044 0 
L 2919 0 
L 2919 506 
Q 2688 197 2409 53 
Q 2131 -91 1766 -91 
Q 1119 -91 703 423 
Q 288 938 288 1747 
Q 288 2556 703 3070 
Q 1119 3584 1766 3584 
Q 2128 3584 2408 3439 
Q 2688 3294 2919 2988 
z
M 2181 722 
Q 2541 722 2730 984 
Q 2919 1247 2919 1747 
Q 2919 2247 2730 2509 
Q 2541 2772 2181 2772 
Q 1825 2772 1636 2509 
Q 1447 2247 1447 1747 
Q 1447 1247 1636 984 
Q 1825 722 2181 722 
z
" transform="scale(0.015625)"/>
       <path id="DejaVuSans-Bold-67" d="M 2919 594 
Q 2688 288 2409 144 
Q 2131 0 1766 0 
Q 1125 0 706 504 
Q 288 1009 288 1791 
Q 288 2575 706 3076 
Q 1125 3578 1766 3578 
Q 2131 3578 2409 3434 
Q 2688 3291 2919 2981 
L 2919 3500 
L 4044 3500 
L 4044 353 
Q 4044 -491 3511 -936 
Q 2978 -1381 1966 -1381 
Q 1638 -1381 1331 -1331 
Q 1025 -1281 716 -1178 
L 716 -306 
Q 1009 -475 1290 -558 
Q 1572 -641 1856 -641 
Q 2406 -641 2662 -400 
Q 2919 -159 2919 353 
L 2919 594 
z
M 2181 2772 
Q 1834 2772 1640 2515 
Q 1447 2259 1447 1791 
Q 1447 1309 1634 1061 
Q 1822 813 2181 813 
Q 2531 813 2725 1069 
Q 2919 1325 2919 1791 
Q 2919 2259 2725 2515 
Q 2531 2772 2181 2772 
z
" transform="scale(0.015625)"/>
       <path id="DejaVuSans-Bold-29" d="M 513 -844 
Q 913 -100 1113 609 
Q 1313 1319 1313 2009 
Q 1313 2700 1113 3408 
Q 913 4116 513 4856 
L 1441 4856 
Q 1916 4091 2145 3389 
Q 2375 2688 2375 2003 
Q 2375 1319 2147 623 
Q 1919 -72 1441 -844 
L 513 -844 
z
" transform="scale(0.015625)"/>
      </defs>
      <use xlink:href="#DejaVuSans-Bold-49"/>
      <use xlink:href="#DejaVuSans-Bold-6e" transform="translate(37.207031 0)"/>
      <use xlink:href="#DejaVuSans-Bold-70" transform="translate(108.398438 0)"/>
      <use xlink:href="#DejaVuSans-Bold-75" transform="translate(179.980469 0)"/>
      <use xlink:href="#DejaVuSans-Bold-74" transform="translate(251.171875 0)"/>
      <use xlink:href="#DejaVuSans-Bold-20" transform="translate(298.974609 0)"/>
      <use xlink:href="#DejaVuSans-Bold-53" transform="translate(333.789062 0)"/>
      <use xlink:href="#DejaVuSans-Bold-69" transform="translate(405.810547 0)"/>
      <use xlink:href="#DejaVuSans-Bold-7a" transform="translate(440.087891 0)"/>
      <use xlink:href="#DejaVuSans-Bold-65" transform="translate(498.291016 0)"/>
      <use xlink:href="#DejaVuSans-Bold-20" transform="translate(566.113281 0)"/>
      <use xlink:href="#DejaVuSans-Bold-28" transform="translate(600.927734 0)"/>
      <use xlink:href="#DejaVuSans-Bold-76" transform="translate(646.630859 0)"/>
      <use xlink:href="#DejaVuSans-Bold-65" transform="translate(711.816406 0)"/>
      <use xlink:href="#DejaVuSans-Bold-72" transform="translate(779.638672 0)"/>
      <use xlink:href="#DejaVuSans-Bold-74" transform="translate(828.955078 0)"/>
      <use xlink:href="#DejaVuSans-Bold-69" transform="translate(876.757812 0)"/>
      <use xlink:href="#DejaVuSans-Bold-63" transform="translate(911.035156 0)"/>
      <use xlink:href="#DejaVuSans-Bold-65" transform="translate(970.3125 0)"/>
      <use xlink:href="#DejaVuSans-Bold-73" transform="translate(1038.134766 0)"/>
      <use xlink:href="#DejaVuSans-Bold-20" transform="translate(1097.65625 0)"/>
      <use xlink:href="#DejaVuSans-Bold-d7" transform="translate(1132.470703 0)"/>
      <use xlink:href="#DejaVuSans-Bold-20" transform="translate(1216.259766 0)"/>
      <use xlink:href="#DejaVuSans-Bold-65" transform="translate(1251.074219 0)"/>
      <use xlink:href="#DejaVuSans-Bold-64" transform="translate(1318.896484 0)"/>
      <use xlink:href="#DejaVuSans-Bold-67" transform="translate(1390.478516 0)"/>
      <use xlink:href="#DejaVuSans-Bold-65" transform="translate(1462.060547 0)"/>
      <use xlink:href="#DejaVuSans-Bold-73" transform="translate(1529.882812 0)"/>
      <use xlink:href="#DejaVuSans-Bold-29" transform="translate(1589.404297 0)"/>
     </g>
    </g>
   </g>
   <g id="matplotlib.axis_2">
    <g id="ytick_1">
     <g id="line2d_9">
      <path d="M 45.716875 418.002663 
L 992.316875 418.002663 
" clip-path="url(#pb1d98f9514)" style="fill: none; stroke-dasharray: 2.96,1.28; stroke-dashoffset: 0; stroke: #b0b0b0; stroke-opacity: 0.3; stroke-width: 0.8"/>
     </g>
     <g id="line2d_10">
      <defs>
       <path id="ma2c058d588" d="M 0 0 
L -3.5 0 
" style="stroke: #000000; stroke-width: 0.8"/>
      </defs>
      <g>
       <use xlink:href="#ma2c058d588" x="45.716875" y="418.002663" style="stroke: #000000; stroke-width: 0.8"/>
      </g>
     </g>
     <g id="text_10">
      <!-- 0.0 -->
      <g transform="translate(22.81375 421.801882) scale(0.1 -0.1)">
       <defs>
        <path id="DejaVuSans-2e" d="M 684 794 
L 1344 794 
L 1344 0 
L 684 0 
L 684 794 
z
" transform="scale(0.015625)"/>
       </defs>
       <use xlink:href="#DejaVuSans-30"/>
       <use xlink:href="#DejaVuSans-2e" transform="translate(63.623047 0)"/>
       <use xlink:href="#DejaVuSans-30" transform="translate(95.410156 0)"/>
      </g>
     </g>
    </g>
    <g id="ytick_2">
     <g id="line2d_11">
      <path d="M 45.716875 334.368715 
L 992.316875 334.368715 
" clip-path="url(#pb1d98f9514)" style="fill: none; stroke-dasharray: 2.96,1.28; stroke-dashoffset: 0; stroke: #b0b0b0; stroke-opacity: 0.3; stroke-width: 0.8"/>
     </g>
     <g id="line2d_12">
      <g>
       <use xlink:href="#ma2c058d588" x="45.716875" y="334.368715" style="stroke: #000000; stroke-width: 0.8"/>
      </g>
     </g>
     <g id="text_11">
      <!-- 0.1 -->
      <g transform="translate(22.81375 338.167934) scale(0.1 -0.1)">
       <use xlink:href="#DejaVuSans-30"/>
       <use xlink:href="#DejaVuSans-2e" transform="translate(63.623047 0)"/>
       <use xlink:href="#DejaVuSans-31" transform="translate(95.410156 0)"/>
      </g>
     </g>
    </g>
    <g id="ytick_3">
     <g id="line2d_13">
      <path d="M 45.716875 250.734767 
L 992.316875 250.734767 
" clip-path="url(#pb1d98f9514)" style="fill: none; stroke-dasharray: 2.96,1.28; stroke-dashoffset: 0; stroke: #b0b0b0; stroke-opacity: 0.3; stroke-width: 0.8"/>
     </g>
     <g id="line2d_14">
      <g>
       <use xlink:href="#ma2c058d588" x="45.716875" y="250.734767" style="stroke: #000000; stroke-width: 0.8"/>
      </g>
     </g>
     <g id="text_12">
      <!-- 0.2 -->
      <g transform="translate(22.81375 254.533985) scale(0.1 -0.1)">
       <use xlink:href="#DejaVuSans-30"/>
       <use xlink:href="#DejaVuSans-2e" transform="translate(63.623047 0)"/>
       <use xlink:href="#DejaVuSans-32" transform="translate(95.410156 0)"/>
      </g>
     </g>
    </g>
    <g id="ytick_4">
     <g id="line2d_15">
      <path d="M 45.716875 167.100818 
L 992.316875 167.100818 
" clip-path="url(#pb1d98f9514)" style="fill: none; stroke-dasharray: 2.96,1.28; stroke-dashoffset: 0; stroke: #b0b0b0; stroke-opacity: 0.3; stroke-width: 0.8"/>
     </g>
     <g id="line2d_16">
      <g>
       <use xlink:href="#ma2c058d588" x="45.716875" y="167.100818" style="stroke: #000000; stroke-width: 0.8"/>
      </g>
     </g>
     <g id="text_13">
      <!-- 0.3 -->
      <g transform="translate(22.81375 170.900037) scale(0.1 -0.1)">
       <use xlink:href="#DejaVuSans-30"/>
       <use xlink:href="#DejaVuSans-2e" transform="translate(63.623047 0)"/>
       <use xlink:href="#DejaVuSans-33" transform="translate(95.410156 0)"/>
      </g>
     </g>
    </g>
    <g id="ytick_5">
     <g id="line2d_17">
      <path d="M 45.716875 83.46687 
L 992.316875 83.46687 
" clip-path="url(#pb1d98f9514)" style="fill: none; stroke-dasharray: 2.96,1.28; stroke-dashoffset: 0; stroke: #b0b0b0; stroke-opacity: 0.3; stroke-width: 0.8"/>
     </g>
     <g id="line2d_18">
      <g>
       <use xlink:href="#ma2c058d588" x="45.716875" y="83.46687" style="stroke: #000000; stroke-width: 0.8"/>
      </g>
     </g>
     <g id="text_14">
      <!-- 0.4 -->
      <g transform="translate(22.81375 87.266089) scale(0.1 -0.1)">
       <use xlink:href="#DejaVuSans-30"/>
       <use xlink:href="#DejaVuSans-2e" transform="translate(63.623047 0)"/>
       <use xlink:href="#DejaVuSans-34" transform="translate(95.410156 0)"/>
      </g>
     </g>
    </g>
    <g id="text_15">
     <!-- Mean Runtime (seconds) -->
     <g transform="translate(16.318125 304.808675) rotate(-90) scale(0.12 -0.12)">
      <defs>
       <path id="DejaVuSans-Bold-4d" d="M 588 4666 
L 2119 4666 
L 3181 2169 
L 4250 4666 
L 5778 4666 
L 5778 0 
L 4641 0 
L 4641 3413 
L 3566 897 
L 2803 897 
L 1728 3413 
L 1728 0 
L 588 0 
L 588 4666 
z
" transform="scale(0.015625)"/>
       <path id="DejaVuSans-Bold-61" d="M 2106 1575 
Q 1756 1575 1579 1456 
Q 1403 1338 1403 1106 
Q 1403 894 1545 773 
Q 1688 653 1941 653 
Q 2256 653 2472 879 
Q 2688 1106 2688 1447 
L 2688 1575 
L 2106 1575 
z
M 3816 1997 
L 3816 0 
L 2688 0 
L 2688 519 
Q 2463 200 2181 54 
Q 1900 -91 1497 -91 
Q 953 -91 614 226 
Q 275 544 275 1050 
Q 275 1666 698 1953 
Q 1122 2241 2028 2241 
L 2688 2241 
L 2688 2328 
Q 2688 2594 2478 2717 
Q 2269 2841 1825 2841 
Q 1466 2841 1156 2769 
Q 847 2697 581 2553 
L 581 3406 
Q 941 3494 1303 3539 
Q 1666 3584 2028 3584 
Q 2975 3584 3395 3211 
Q 3816 2838 3816 1997 
z
" transform="scale(0.015625)"/>
       <path id="DejaVuSans-Bold-52" d="M 2297 2597 
Q 2675 2597 2839 2737 
Q 3003 2878 3003 3200 
Q 3003 3519 2839 3656 
Q 2675 3794 2297 3794 
L 1791 3794 
L 1791 2597 
L 2297 2597 
z
M 1791 1766 
L 1791 0 
L 588 0 
L 588 4666 
L 2425 4666 
Q 3347 4666 3776 4356 
Q 4206 4047 4206 3378 
Q 4206 2916 3982 2619 
Q 3759 2322 3309 2181 
Q 3556 2125 3751 1926 
Q 3947 1728 4147 1325 
L 4800 0 
L 3519 0 
L 2950 1159 
Q 2778 1509 2601 1637 
Q 2425 1766 2131 1766 
L 1791 1766 
z
" transform="scale(0.015625)"/>
       <path id="DejaVuSans-Bold-6d" d="M 3781 2919 
Q 3994 3244 4286 3414 
Q 4578 3584 4928 3584 
Q 5531 3584 5847 3212 
Q 6163 2841 6163 2131 
L 6163 0 
L 5038 0 
L 5038 1825 
Q 5041 1866 5042 1909 
Q 5044 1953 5044 2034 
Q 5044 2406 4934 2573 
Q 4825 2741 4581 2741 
Q 4263 2741 4089 2478 
Q 3916 2216 3909 1719 
L 3909 0 
L 2784 0 
L 2784 1825 
Q 2784 2406 2684 2573 
Q 2584 2741 2328 2741 
Q 2006 2741 1831 2477 
Q 1656 2213 1656 1722 
L 1656 0 
L 531 0 
L 531 3500 
L 1656 3500 
L 1656 2988 
Q 1863 3284 2130 3434 
Q 2397 3584 2719 3584 
Q 3081 3584 3359 3409 
Q 3638 3234 3781 2919 
z
" transform="scale(0.015625)"/>
       <path id="DejaVuSans-Bold-6f" d="M 2203 2784 
Q 1831 2784 1636 2517 
Q 1441 2250 1441 1747 
Q 1441 1244 1636 976 
Q 1831 709 2203 709 
Q 2569 709 2762 976 
Q 2956 1244 2956 1747 
Q 2956 2250 2762 2517 
Q 2569 2784 2203 2784 
z
M 2203 3584 
Q 3106 3584 3614 3096 
Q 4122 2609 4122 1747 
Q 4122 884 3614 396 
Q 3106 -91 2203 -91 
Q 1297 -91 786 396 
Q 275 884 275 1747 
Q 275 2609 786 3096 
Q 1297 3584 2203 3584 
z
" transform="scale(0.015625)"/>
      </defs>
      <use xlink:href="#DejaVuSans-Bold-4d"/>
      <use xlink:href="#DejaVuSans-Bold-65" transform="translate(99.511719 0)"/>
      <use xlink:href="#DejaVuSans-Bold-61" transform="translate(167.333984 0)"/>
      <use xlink:href="#DejaVuSans-Bold-6e" transform="translate(234.814453 0)"/>
      <use xlink:href="#DejaVuSans-Bold-20" transform="translate(306.005859 0)"/>
      <use xlink:href="#DejaVuSans-Bold-52" transform="translate(340.820312 0)"/>
      <use xlink:href="#DejaVuSans-Bold-75" transform="translate(417.822266 0)"/>
      <use xlink:href="#DejaVuSans-Bold-6e" transform="translate(489.013672 0)"/>
      <use xlink:href="#DejaVuSans-Bold-74" transform="translate(560.205078 0)"/>
      <use xlink:href="#DejaVuSans-Bold-69" transform="translate(608.007812 0)"/>
      <use xlink:href="#DejaVuSans-Bold-6d" transform="translate(642.285156 0)"/>
      <use xlink:href="#DejaVuSans-Bold-65" transform="translate(746.484375 0)"/>
      <use xlink:href="#DejaVuSans-Bold-20" transform="translate(814.306641 0)"/>
      <use xlink:href="#DejaVuSans-Bold-28" transform="translate(849.121094 0)"/>
      <use xlink:href="#DejaVuSans-Bold-73" transform="translate(894.824219 0)"/>
      <use xlink:href="#DejaVuSans-Bold-65" transform="translate(954.345703 0)"/>
      <use xlink:href="#DejaVuSans-Bold-63" transform="translate(1022.167969 0)"/>
      <use xlink:href="#DejaVuSans-Bold-6f" transform="translate(1081.445312 0)"/>
      <use xlink:href="#DejaVuSans-Bold-6e" transform="translate(1150.146484 0)"/>
      <use xlink:href="#DejaVuSans-Bold-64" transform="translate(1221.337891 0)"/>
      <use xlink:href="#DejaVuSans-Bold-73" transform="translate(1292.919922 0)"/>
      <use xlink:href="#DejaVuSans-Bold-29" transform="translate(1352.441406 0)"/>
     </g>
    </g>
   </g>
   <g id="patch_3">
    <path d="M 88.744148 418.002663 
L 177.00522 418.002663 
L 177.00522 350.01618 
L 88.744148 350.01618 
z
" clip-path="url(#pb1d98f9514)" style="fill: #4682b4; opacity: 0.8"/>
   </g>
   <g id="patch_4">
    <path d="M 199.070488 418.002663 
L 287.33156 418.002663 
L 287.33156 357.885271 
L 199.070488 357.885271 
z
" clip-path="url(#pb1d98f9514)" style="fill: #4682b4; opacity: 0.8"/>
   </g>
   <g id="patch_5">
    <path d="M 309.396828 418.002663 
L 397.657901 418.002663 
L 397.657901 327.757563 
L 309.396828 327.757563 
z
" clip-path="url(#pb1d98f9514)" style="fill: #4682b4; opacity: 0.8"/>
   </g>
   <g id="patch_6">
    <path d="M 419.723169 418.002663 
L 507.984241 418.002663 
L 507.984241 302.102041 
L 419.723169 302.102041 
z
" clip-path="url(#pb1d98f9514)" style="fill: #4682b4; opacity: 0.8"/>
   </g>
   <g id="patch_7">
    <path d="M 530.049509 418.002663 
L 618.310581 418.002663 
L 618.310581 279.291738 
L 530.049509 279.291738 
z
" clip-path="url(#pb1d98f9514)" style="fill: #4682b4; opacity: 0.8"/>
   </g>
   <g id="patch_8">
    <path d="M 640.375849 418.002663 
L 728.636922 418.002663 
L 728.636922 169.872043 
L 640.375849 169.872043 
z
" clip-path="url(#pb1d98f9514)" style="fill: #4682b4; opacity: 0.8"/>
   </g>
   <g id="patch_9">
    <path d="M 750.70219 418.002663 
L 838.963262 418.002663 
L 838.963262 123.687875 
L 750.70219 123.687875 
z
" clip-path="url(#pb1d98f9514)" style="fill: #4682b4; opacity: 0.8"/>
   </g>
   <g id="patch_10">
    <path d="M 861.02853 418.002663 
L 949.289602 418.002663 
L 949.289602 42.607567 
L 861.02853 42.607567 
z
" clip-path="url(#pb1d98f9514)" style="fill: #4682b4; opacity: 0.8"/>
   </g>
   <g id="patch_11">
    <path d="M 45.716875 418.002663 
L 45.716875 23.837813 
" style="fill: none; stroke: #000000; stroke-width: 0.8; stroke-linejoin: miter; stroke-linecap: square"/>
   </g>
   <g id="patch_12">
    <path d="M 992.316875 418.002663 
L 992.316875 23.837813 
" style="fill: none; stroke: #000000; stroke-width: 0.8; stroke-linejoin: miter; stroke-linecap: square"/>
   </g>
   <g id="patch_13">
    <path d="M 45.716875 418.002663 
L 992.316875 418.002663 
" style="fill: none; stroke: #000000; stroke-width: 0.8; stroke-linejoin: miter; stroke-linecap: square"/>
   </g>
   <g id="patch_14">
    <path d="M 45.716875 23.837813 
L 992.316875 23.837813 
" style="fill: none; stroke: #000000; stroke-width: 0.8; stroke-linejoin: miter; stroke-linecap: square"/>
   </g>
   <g id="text_16">
    <!-- 0.0813s -->
    <g transform="translate(116.794684 348.35243) scale(0.08 -0.08)">
     <defs>
      <path id="DejaVuSans-73" d="M 2834 3397 
L 2834 2853 
Q 2591 2978 2328 3040 
Q 2066 3103 1784 3103 
Q 1356 3103 1142 2972 
Q 928 2841 928 2578 
Q 928 2378 1081 2264 
Q 1234 2150 1697 2047 
L 1894 2003 
Q 2506 1872 2764 1633 
Q 3022 1394 3022 966 
Q 3022 478 2636 193 
Q 2250 -91 1575 -91 
Q 1294 -91 989 -36 
Q 684 19 347 128 
L 347 722 
Q 666 556 975 473 
Q 1284 391 1588 391 
Q 1994 391 2212 530 
Q 2431 669 2431 922 
Q 2431 1156 2273 1281 
Q 2116 1406 1581 1522 
L 1381 1569 
Q 847 1681 609 1914 
Q 372 2147 372 2553 
Q 372 3047 722 3315 
Q 1072 3584 1716 3584 
Q 2034 3584 2315 3537 
Q 2597 3491 2834 3397 
z
" transform="scale(0.015625)"/>
     </defs>
     <use xlink:href="#DejaVuSans-30"/>
     <use xlink:href="#DejaVuSans-2e" transform="translate(63.623047 0)"/>
     <use xlink:href="#DejaVuSans-30" transform="translate(95.410156 0)"/>
     <use xlink:href="#DejaVuSans-38" transform="translate(159.033203 0)"/>
     <use xlink:href="#DejaVuSans-31" transform="translate(222.65625 0)"/>
     <use xlink:href="#DejaVuSans-33" transform="translate(286.279297 0)"/>
     <use xlink:href="#DejaVuSans-73" transform="translate(349.902344 0)"/>
    </g>
   </g>
   <g id="text_17">
    <!-- 0.0719s -->
    <g transform="translate(227.121024 356.221521) scale(0.08 -0.08)">
     <use xlink:href="#DejaVuSans-30"/>
     <use xlink:href="#DejaVuSans-2e" transform="translate(63.623047 0)"/>
     <use xlink:href="#DejaVuSans-30" transform="translate(95.410156 0)"/>
     <use xlink:href="#DejaVuSans-37" transform="translate(159.033203 0)"/>
     <use xlink:href="#DejaVuSans-31" transform="translate(222.65625 0)"/>
     <use xlink:href="#DejaVuSans-39" transform="translate(286.279297 0)"/>
     <use xlink:href="#DejaVuSans-73" transform="translate(349.902344 0)"/>
    </g>
   </g>
   <g id="text_18">
    <!-- 0.1079s -->
    <g transform="translate(337.447365 326.093813) scale(0.08 -0.08)">
     <use xlink:href="#DejaVuSans-30"/>
     <use xlink:href="#DejaVuSans-2e" transform="translate(63.623047 0)"/>
     <use xlink:href="#DejaVuSans-31" transform="translate(95.410156 0)"/>
     <use xlink:href="#DejaVuSans-30" transform="translate(159.033203 0)"/>
     <use xlink:href="#DejaVuSans-37" transform="translate(222.65625 0)"/>
     <use xlink:href="#DejaVuSans-39" transform="translate(286.279297 0)"/>
     <use xlink:href="#DejaVuSans-73" transform="translate(349.902344 0)"/>
    </g>
   </g>
   <g id="text_19">
    <!-- 0.1386s -->
    <g transform="translate(447.773705 300.438291) scale(0.08 -0.08)">
     <use xlink:href="#DejaVuSans-30"/>
     <use xlink:href="#DejaVuSans-2e" transform="translate(63.623047 0)"/>
     <use xlink:href="#DejaVuSans-31" transform="translate(95.410156 0)"/>
     <use xlink:href="#DejaVuSans-33" transform="translate(159.033203 0)"/>
     <use xlink:href="#DejaVuSans-38" transform="translate(222.65625 0)"/>
     <use xlink:href="#DejaVuSans-36" transform="translate(286.279297 0)"/>
     <use xlink:href="#DejaVuSans-73" transform="translate(349.902344 0)"/>
    </g>
   </g>
   <g id="text_20">
    <!-- 0.1659s -->
    <g transform="translate(558.100045 277.627988) scale(0.08 -0.08)">
     <use xlink:href="#DejaVuSans-30"/>
     <use xlink:href="#DejaVuSans-2e" transform="translate(63.623047 0)"/>
     <use xlink:href="#DejaVuSans-31" transform="translate(95.410156 0)"/>
     <use xlink:href="#DejaVuSans-36" transform="translate(159.033203 0)"/>
     <use xlink:href="#DejaVuSans-35" transform="translate(222.65625 0)"/>
     <use xlink:href="#DejaVuSans-39" transform="translate(286.279297 0)"/>
     <use xlink:href="#DejaVuSans-73" transform="translate(349.902344 0)"/>
    </g>
   </g>
   <g id="text_21">
    <!-- 0.2967s -->
    <g transform="translate(668.426385 168.208293) scale(0.08 -0.08)">
     <use xlink:href="#DejaVuSans-30"/>
     <use xlink:href="#DejaVuSans-2e" transform="translate(63.623047 0)"/>
     <use xlink:href="#DejaVuSans-32" transform="translate(95.410156 0)"/>
     <use xlink:href="#DejaVuSans-39" transform="translate(159.033203 0)"/>
     <use xlink:href="#DejaVuSans-36" transform="translate(222.65625 0)"/>
     <use xlink:href="#DejaVuSans-37" transform="translate(286.279297 0)"/>
     <use xlink:href="#DejaVuSans-73" transform="translate(349.902344 0)"/>
    </g>
   </g>
   <g id="text_22">
    <!-- 0.3519s -->
    <g transform="translate(778.752726 122.024125) scale(0.08 -0.08)">
     <use xlink:href="#DejaVuSans-30"/>
     <use xlink:href="#DejaVuSans-2e" transform="translate(63.623047 0)"/>
     <use xlink:href="#DejaVuSans-33" transform="translate(95.410156 0)"/>
     <use xlink:href="#DejaVuSans-35" transform="translate(159.033203 0)"/>
     <use xlink:href="#DejaVuSans-31" transform="translate(222.65625 0)"/>
     <use xlink:href="#DejaVuSans-39" transform="translate(286.279297 0)"/>
     <use xlink:href="#DejaVuSans-73" transform="translate(349.902344 0)"/>
    </g>
   </g>
   <g id="text_23">
    <!-- 0.4489s -->
    <g transform="translate(889.079066 40.943817) scale(0.08 -0.08)">
     <use xlink:href="#DejaVuSans-30"/>
     <use xlink:href="#DejaVuSans-2e" transform="translate(63.623047 0)"/>
     <use xlink:href="#DejaVuSans-34" transform="translate(95.410156 0)"/>
     <use xlink:href="#DejaVuSans-34" transform="translate(159.033203 0)"/>
     <use xlink:href="#DejaVuSans-38" transform="translate(222.65625 0)"/>
     <use xlink:href="#DejaVuSans-39" transform="translate(286.279297 0)"/>
     <use xlink:href="#DejaVuSans-73" transform="translate(349.902344 0)"/>
    </g>
   </g>
   <g id="text_24">
    <g id="patch_15">
     <path d="M 117.625074 393.416 
L 148.124293 393.416 
Q 150.224293 393.416 150.224293 391.316 
L 150.224293 376.702844 
Q 150.224293 374.602844 148.124293 374.602844 
L 117.625074 374.602844 
Q 115.525074 374.602844 115.525074 376.702844 
L 115.525074 391.316 
Q 115.525074 393.416 117.625074 393.416 
z
" style="fill: #ffffe0; opacity: 0.9; stroke: #ffa500; stroke-linejoin: miter"/>
    </g>
    <!-- n=102 -->
    <g transform="translate(121.043043 382.02175) scale(0.07 -0.07)">
     <defs>
      <path id="DejaVuSans-6e" d="M 3513 2113 
L 3513 0 
L 2938 0 
L 2938 2094 
Q 2938 2591 2744 2837 
Q 2550 3084 2163 3084 
Q 1697 3084 1428 2787 
Q 1159 2491 1159 1978 
L 1159 0 
L 581 0 
L 581 3500 
L 1159 3500 
L 1159 2956 
Q 1366 3272 1645 3428 
Q 1925 3584 2291 3584 
Q 2894 3584 3203 3211 
Q 3513 2838 3513 2113 
z
" transform="scale(0.015625)"/>
      <path id="DejaVuSans-3d" d="M 678 2906 
L 4684 2906 
L 4684 2381 
L 678 2381 
L 678 2906 
z
M 678 1631 
L 4684 1631 
L 4684 1100 
L 678 1100 
L 678 1631 
z
" transform="scale(0.015625)"/>
     </defs>
     <use xlink:href="#DejaVuSans-6e"/>
     <use xlink:href="#DejaVuSans-3d" transform="translate(63.378906 0)"/>
     <use xlink:href="#DejaVuSans-31" transform="translate(147.167969 0)"/>
     <use xlink:href="#DejaVuSans-30" transform="translate(210.791016 0)"/>
     <use xlink:href="#DejaVuSans-32" transform="translate(274.414062 0)"/>
    </g>
    <!-- m=3060 -->
    <g transform="translate(117.625074 389.860219) scale(0.07 -0.07)">
     <defs>
      <path id="DejaVuSans-6d" d="M 3328 2828 
Q 3544 3216 3844 3400 
Q 4144 3584 4550 3584 
Q 5097 3584 5394 3201 
Q 5691 2819 5691 2113 
L 5691 0 
L 5113 0 
L 5113 2094 
Q 5113 2597 4934 2840 
Q 4756 3084 4391 3084 
Q 3944 3084 3684 2787 
Q 3425 2491 3425 1978 
L 3425 0 
L 2847 0 
L 2847 2094 
Q 2847 2600 2669 2842 
Q 2491 3084 2119 3084 
Q 1678 3084 1418 2786 
Q 1159 2488 1159 1978 
L 1159 0 
L 581 0 
L 581 3500 
L 1159 3500 
L 1159 2956 
Q 1356 3278 1631 3431 
Q 1906 3584 2284 3584 
Q 2666 3584 2933 3390 
Q 3200 3197 3328 2828 
z
" transform="scale(0.015625)"/>
     </defs>
     <use xlink:href="#DejaVuSans-6d"/>
     <use xlink:href="#DejaVuSans-3d" transform="translate(97.412109 0)"/>
     <use xlink:href="#DejaVuSans-33" transform="translate(181.201172 0)"/>
     <use xlink:href="#DejaVuSans-30" transform="translate(244.824219 0)"/>
     <use xlink:href="#DejaVuSans-36" transform="translate(308.447266 0)"/>
     <use xlink:href="#DejaVuSans-30" transform="translate(372.070312 0)"/>
    </g>
   </g>
   <g id="text_25">
    <g id="patch_16">
     <path d="M 227.951415 397.350545 
L 258.450634 397.350545 
Q 260.550634 397.350545 260.550634 395.250545 
L 260.550634 380.637389 
Q 260.550634 378.537389 258.450634 378.537389 
L 227.951415 378.537389 
Q 225.851415 378.537389 225.851415 380.637389 
L 225.851415 395.250545 
Q 225.851415 397.350545 227.951415 397.350545 
z
" style="fill: #ffffe0; opacity: 0.9; stroke: #ffa500; stroke-linejoin: miter"/>
    </g>
    <!-- n=252 -->
    <g transform="translate(231.369384 385.956295) scale(0.07 -0.07)">
     <use xlink:href="#DejaVuSans-6e"/>
     <use xlink:href="#DejaVuSans-3d" transform="translate(63.378906 0)"/>
     <use xlink:href="#DejaVuSans-32" transform="translate(147.167969 0)"/>
     <use xlink:href="#DejaVuSans-35" transform="translate(210.791016 0)"/>
     <use xlink:href="#DejaVuSans-32" transform="translate(274.414062 0)"/>
    </g>
    <!-- m=7560 -->
    <g transform="translate(227.951415 393.794764) scale(0.07 -0.07)">
     <use xlink:href="#DejaVuSans-6d"/>
     <use xlink:href="#DejaVuSans-3d" transform="translate(97.412109 0)"/>
     <use xlink:href="#DejaVuSans-37" transform="translate(181.201172 0)"/>
     <use xlink:href="#DejaVuSans-35" transform="translate(244.824219 0)"/>
     <use xlink:href="#DejaVuSans-36" transform="translate(308.447266 0)"/>
     <use xlink:href="#DejaVuSans-30" transform="translate(372.070312 0)"/>
    </g>
   </g>
   <g id="text_26">
    <g id="patch_17">
     <path d="M 336.05088 382.286691 
L 371.003849 382.286691 
Q 373.103849 382.286691 373.103849 380.186691 
L 373.103849 365.573535 
Q 373.103849 363.473535 371.003849 363.473535 
L 336.05088 363.473535 
Q 333.95088 363.473535 333.95088 365.573535 
L 333.95088 380.186691 
Q 333.95088 382.286691 336.05088 382.286691 
z
" style="fill: #ffffe0; opacity: 0.9; stroke: #ffa500; stroke-linejoin: miter"/>
    </g>
    <!-- n=502 -->
    <g transform="translate(341.695724 370.892441) scale(0.07 -0.07)">
     <use xlink:href="#DejaVuSans-6e"/>
     <use xlink:href="#DejaVuSans-3d" transform="translate(63.378906 0)"/>
     <use xlink:href="#DejaVuSans-35" transform="translate(147.167969 0)"/>
     <use xlink:href="#DejaVuSans-30" transform="translate(210.791016 0)"/>
     <use xlink:href="#DejaVuSans-32" transform="translate(274.414062 0)"/>
    </g>
    <!-- m=15060 -->
    <g transform="translate(336.05088 378.73091) scale(0.07 -0.07)">
     <use xlink:href="#DejaVuSans-6d"/>
     <use xlink:href="#DejaVuSans-3d" transform="translate(97.412109 0)"/>
     <use xlink:href="#DejaVuSans-31" transform="translate(181.201172 0)"/>
     <use xlink:href="#DejaVuSans-35" transform="translate(244.824219 0)"/>
     <use xlink:href="#DejaVuSans-30" transform="translate(308.447266 0)"/>
     <use xlink:href="#DejaVuSans-36" transform="translate(372.070312 0)"/>
     <use xlink:href="#DejaVuSans-30" transform="translate(435.693359 0)"/>
    </g>
   </g>
   <g id="text_27">
    <g id="patch_18">
     <path d="M 446.37722 369.45893 
L 481.330189 369.45893 
Q 483.430189 369.45893 483.430189 367.35893 
L 483.430189 352.745774 
Q 483.430189 350.645774 481.330189 350.645774 
L 446.37722 350.645774 
Q 444.27722 350.645774 444.27722 352.745774 
L 444.27722 367.35893 
Q 444.27722 369.45893 446.37722 369.45893 
z
" style="fill: #ffffe0; opacity: 0.9; stroke: #ffa500; stroke-linejoin: miter"/>
    </g>
    <!-- n=1002 -->
    <g transform="translate(449.795189 358.06468) scale(0.07 -0.07)">
     <use xlink:href="#DejaVuSans-6e"/>
     <use xlink:href="#DejaVuSans-3d" transform="translate(63.378906 0)"/>
     <use xlink:href="#DejaVuSans-31" transform="translate(147.167969 0)"/>
     <use xlink:href="#DejaVuSans-30" transform="translate(210.791016 0)"/>
     <use xlink:href="#DejaVuSans-30" transform="translate(274.414062 0)"/>
     <use xlink:href="#DejaVuSans-32" transform="translate(338.037109 0)"/>
    </g>
    <!-- m=30060 -->
    <g transform="translate(446.37722 365.903149) scale(0.07 -0.07)">
     <use xlink:href="#DejaVuSans-6d"/>
     <use xlink:href="#DejaVuSans-3d" transform="translate(97.412109 0)"/>
     <use xlink:href="#DejaVuSans-33" transform="translate(181.201172 0)"/>
     <use xlink:href="#DejaVuSans-30" transform="translate(244.824219 0)"/>
     <use xlink:href="#DejaVuSans-30" transform="translate(308.447266 0)"/>
     <use xlink:href="#DejaVuSans-36" transform="translate(372.070312 0)"/>
     <use xlink:href="#DejaVuSans-30" transform="translate(435.693359 0)"/>
    </g>
   </g>
   <g id="text_28">
    <g id="patch_19">
     <path d="M 556.703561 358.053779 
L 591.65653 358.053779 
Q 593.75653 358.053779 593.75653 355.953779 
L 593.75653 341.340623 
Q 593.75653 339.240623 591.65653 339.240623 
L 556.703561 339.240623 
Q 554.603561 339.240623 554.603561 341.340623 
L 554.603561 355.953779 
Q 554.603561 358.053779 556.703561 358.053779 
z
" style="fill: #ffffe0; opacity: 0.9; stroke: #ffa500; stroke-linejoin: miter"/>
    </g>
    <!-- n=1502 -->
    <g transform="translate(560.12153 346.659529) scale(0.07 -0.07)">
     <use xlink:href="#DejaVuSans-6e"/>
     <use xlink:href="#DejaVuSans-3d" transform="translate(63.378906 0)"/>
     <use xlink:href="#DejaVuSans-31" transform="translate(147.167969 0)"/>
     <use xlink:href="#DejaVuSans-35" transform="translate(210.791016 0)"/>
     <use xlink:href="#DejaVuSans-30" transform="translate(274.414062 0)"/>
     <use xlink:href="#DejaVuSans-32" transform="translate(338.037109 0)"/>
    </g>
    <!-- m=45060 -->
    <g transform="translate(556.703561 354.497998) scale(0.07 -0.07)">
     <use xlink:href="#DejaVuSans-6d"/>
     <use xlink:href="#DejaVuSans-3d" transform="translate(97.412109 0)"/>
     <use xlink:href="#DejaVuSans-34" transform="translate(181.201172 0)"/>
     <use xlink:href="#DejaVuSans-35" transform="translate(244.824219 0)"/>
     <use xlink:href="#DejaVuSans-30" transform="translate(308.447266 0)"/>
     <use xlink:href="#DejaVuSans-36" transform="translate(372.070312 0)"/>
     <use xlink:href="#DejaVuSans-30" transform="translate(435.693359 0)"/>
    </g>
   </g>
   <g id="text_29">
    <g id="patch_20">
     <path d="M 667.029901 303.343931 
L 701.98287 303.343931 
Q 704.08287 303.343931 704.08287 301.243931 
L 704.08287 286.630775 
Q 704.08287 284.530775 701.98287 284.530775 
L 667.029901 284.530775 
Q 664.929901 284.530775 664.929901 286.630775 
L 664.929901 301.243931 
Q 664.929901 303.343931 667.029901 303.343931 
z
" style="fill: #ffffe0; opacity: 0.9; stroke: #ffa500; stroke-linejoin: miter"/>
    </g>
    <!-- n=2002 -->
    <g transform="translate(670.44787 291.949681) scale(0.07 -0.07)">
     <use xlink:href="#DejaVuSans-6e"/>
     <use xlink:href="#DejaVuSans-3d" transform="translate(63.378906 0)"/>
     <use xlink:href="#DejaVuSans-32" transform="translate(147.167969 0)"/>
     <use xlink:href="#DejaVuSans-30" transform="translate(210.791016 0)"/>
     <use xlink:href="#DejaVuSans-30" transform="translate(274.414062 0)"/>
     <use xlink:href="#DejaVuSans-32" transform="translate(338.037109 0)"/>
    </g>
    <!-- m=60060 -->
    <g transform="translate(667.029901 299.78815) scale(0.07 -0.07)">
     <use xlink:href="#DejaVuSans-6d"/>
     <use xlink:href="#DejaVuSans-3d" transform="translate(97.412109 0)"/>
     <use xlink:href="#DejaVuSans-36" transform="translate(181.201172 0)"/>
     <use xlink:href="#DejaVuSans-30" transform="translate(244.824219 0)"/>
     <use xlink:href="#DejaVuSans-30" transform="translate(308.447266 0)"/>
     <use xlink:href="#DejaVuSans-36" transform="translate(372.070312 0)"/>
     <use xlink:href="#DejaVuSans-30" transform="translate(435.693359 0)"/>
    </g>
   </g>
   <g id="text_30">
    <g id="patch_21">
     <path d="M 777.356241 280.251847 
L 812.30921 280.251847 
Q 814.40921 280.251847 814.40921 278.151847 
L 814.40921 263.538691 
Q 814.40921 261.438691 812.30921 261.438691 
L 777.356241 261.438691 
Q 775.256241 261.438691 775.256241 263.538691 
L 775.256241 278.151847 
Q 775.256241 280.251847 777.356241 280.251847 
z
" style="fill: #ffffe0; opacity: 0.9; stroke: #ffa500; stroke-linejoin: miter"/>
    </g>
    <!-- n=2502 -->
    <g transform="translate(780.77421 268.857597) scale(0.07 -0.07)">
     <use xlink:href="#DejaVuSans-6e"/>
     <use xlink:href="#DejaVuSans-3d" transform="translate(63.378906 0)"/>
     <use xlink:href="#DejaVuSans-32" transform="translate(147.167969 0)"/>
     <use xlink:href="#DejaVuSans-35" transform="translate(210.791016 0)"/>
     <use xlink:href="#DejaVuSans-30" transform="translate(274.414062 0)"/>
     <use xlink:href="#DejaVuSans-32" transform="translate(338.037109 0)"/>
    </g>
    <!-- m=75060 -->
    <g transform="translate(777.356241 276.696066) scale(0.07 -0.07)">
     <use xlink:href="#DejaVuSans-6d"/>
     <use xlink:href="#DejaVuSans-3d" transform="translate(97.412109 0)"/>
     <use xlink:href="#DejaVuSans-37" transform="translate(181.201172 0)"/>
     <use xlink:href="#DejaVuSans-35" transform="translate(244.824219 0)"/>
     <use xlink:href="#DejaVuSans-30" transform="translate(308.447266 0)"/>
     <use xlink:href="#DejaVuSans-36" transform="translate(372.070312 0)"/>
     <use xlink:href="#DejaVuSans-30" transform="translate(435.693359 0)"/>
    </g>
   </g>
   <g id="text_31">
    <g id="patch_22">
     <path d="M 887.682582 239.711693 
L 922.635551 239.711693 
Q 924.735551 239.711693 924.735551 237.611693 
L 924.735551 222.998537 
Q 924.735551 220.898537 922.635551 220.898537 
L 887.682582 220.898537 
Q 885.582582 220.898537 885.582582 222.998537 
L 885.582582 237.611693 
Q 885.582582 239.711693 887.682582 239.711693 
z
" style="fill: #ffffe0; opacity: 0.9; stroke: #ffa500; stroke-linejoin: miter"/>
    </g>
    <!-- n=3002 -->
    <g transform="translate(891.100551 228.317443) scale(0.07 -0.07)">
     <use xlink:href="#DejaVuSans-6e"/>
     <use xlink:href="#DejaVuSans-3d" transform="translate(63.378906 0)"/>
     <use xlink:href="#DejaVuSans-33" transform="translate(147.167969 0)"/>
     <use xlink:href="#DejaVuSans-30" transform="translate(210.791016 0)"/>
     <use xlink:href="#DejaVuSans-30" transform="translate(274.414062 0)"/>
     <use xlink:href="#DejaVuSans-32" transform="translate(338.037109 0)"/>
    </g>
    <!-- m=90060 -->
    <g transform="translate(887.682582 236.155912) scale(0.07 -0.07)">
     <use xlink:href="#DejaVuSans-6d"/>
     <use xlink:href="#DejaVuSans-3d" transform="translate(97.412109 0)"/>
     <use xlink:href="#DejaVuSans-39" transform="translate(181.201172 0)"/>
     <use xlink:href="#DejaVuSans-30" transform="translate(244.824219 0)"/>
     <use xlink:href="#DejaVuSans-30" transform="translate(308.447266 0)"/>
     <use xlink:href="#DejaVuSans-36" transform="translate(372.070312 0)"/>
     <use xlink:href="#DejaVuSans-30" transform="translate(435.693359 0)"/>
    </g>
   </g>
   <g id="text_32">
    <g id="patch_23">
     <path d="M 117.479528 413.763745 
L 148.26984 413.763745 
Q 149.46984 413.763745 149.46984 412.563745 
L 149.46984 406.75687 
Q 149.46984 405.55687 148.26984 405.55687 
L 117.479528 405.55687 
Q 116.279528 405.55687 116.279528 406.75687 
L 116.279528 412.563745 
Q 116.279528 413.763745 117.479528 413.763745 
z
" style="fill: #006400; opacity: 0.9; stroke: #000000; stroke-linejoin: miter"/>
    </g>
    <!-- f=13,370 -->
    <g style="fill: #ffffff" transform="translate(117.479528 411.315932) scale(0.06 -0.06)">
     <defs>
      <path id="DejaVuSans-Bold-66" d="M 2841 4863 
L 2841 4128 
L 2222 4128 
Q 1984 4128 1890 4042 
Q 1797 3956 1797 3744 
L 1797 3500 
L 2753 3500 
L 2753 2700 
L 1797 2700 
L 1797 0 
L 678 0 
L 678 2700 
L 122 2700 
L 122 3500 
L 678 3500 
L 678 3744 
Q 678 4316 997 4589 
Q 1316 4863 1984 4863 
L 2841 4863 
z
" transform="scale(0.015625)"/>
      <path id="DejaVuSans-Bold-3d" d="M 678 3084 
L 4684 3084 
L 4684 2350 
L 678 2350 
L 678 3084 
z
M 678 1663 
L 4684 1663 
L 4684 922 
L 678 922 
L 678 1663 
z
" transform="scale(0.015625)"/>
      <path id="DejaVuSans-Bold-31" d="M 750 831 
L 1813 831 
L 1813 3847 
L 722 3622 
L 722 4441 
L 1806 4666 
L 2950 4666 
L 2950 831 
L 4013 831 
L 4013 0 
L 750 0 
L 750 831 
z
" transform="scale(0.015625)"/>
      <path id="DejaVuSans-Bold-33" d="M 2981 2516 
Q 3453 2394 3698 2092 
Q 3944 1791 3944 1325 
Q 3944 631 3412 270 
Q 2881 -91 1863 -91 
Q 1503 -91 1142 -33 
Q 781 25 428 141 
L 428 1069 
Q 766 900 1098 814 
Q 1431 728 1753 728 
Q 2231 728 2486 893 
Q 2741 1059 2741 1369 
Q 2741 1688 2480 1852 
Q 2219 2016 1709 2016 
L 1228 2016 
L 1228 2791 
L 1734 2791 
Q 2188 2791 2409 2933 
Q 2631 3075 2631 3366 
Q 2631 3634 2415 3781 
Q 2200 3928 1806 3928 
Q 1516 3928 1219 3862 
Q 922 3797 628 3669 
L 628 4550 
Q 984 4650 1334 4700 
Q 1684 4750 2022 4750 
Q 2931 4750 3382 4451 
Q 3834 4153 3834 3553 
Q 3834 3144 3618 2883 
Q 3403 2622 2981 2516 
z
" transform="scale(0.015625)"/>
      <path id="DejaVuSans-Bold-2c" d="M 653 1209 
L 1778 1209 
L 1778 256 
L 1006 -909 
L 341 -909 
L 653 256 
L 653 1209 
z
" transform="scale(0.015625)"/>
      <path id="DejaVuSans-Bold-37" d="M 428 4666 
L 3944 4666 
L 3944 3988 
L 2125 0 
L 953 0 
L 2675 3781 
L 428 3781 
L 428 4666 
z
" transform="scale(0.015625)"/>
      <path id="DejaVuSans-Bold-30" d="M 2944 2338 
Q 2944 3213 2780 3570 
Q 2616 3928 2228 3928 
Q 1841 3928 1675 3570 
Q 1509 3213 1509 2338 
Q 1509 1453 1675 1090 
Q 1841 728 2228 728 
Q 2613 728 2778 1090 
Q 2944 1453 2944 2338 
z
M 4147 2328 
Q 4147 1169 3647 539 
Q 3147 -91 2228 -91 
Q 1306 -91 806 539 
Q 306 1169 306 2328 
Q 306 3491 806 4120 
Q 1306 4750 2228 4750 
Q 3147 4750 3647 4120 
Q 4147 3491 4147 2328 
z
" transform="scale(0.015625)"/>
     </defs>
     <use xlink:href="#DejaVuSans-Bold-66"/>
     <use xlink:href="#DejaVuSans-Bold-3d" transform="translate(43.505859 0)"/>
     <use xlink:href="#DejaVuSans-Bold-31" transform="translate(127.294922 0)"/>
     <use xlink:href="#DejaVuSans-Bold-33" transform="translate(196.875 0)"/>
     <use xlink:href="#DejaVuSans-Bold-2c" transform="translate(266.455078 0)"/>
     <use xlink:href="#DejaVuSans-Bold-33" transform="translate(304.443359 0)"/>
     <use xlink:href="#DejaVuSans-Bold-37" transform="translate(374.023438 0)"/>
     <use xlink:href="#DejaVuSans-Bold-30" transform="translate(443.603516 0)"/>
    </g>
   </g>
   <g id="text_33">
    <g id="patch_24">
     <path d="M 227.805868 414.393272 
L 258.59618 414.393272 
Q 259.79618 414.393272 259.79618 413.193272 
L 259.79618 407.386397 
Q 259.79618 406.186397 258.59618 406.186397 
L 227.805868 406.186397 
Q 226.605868 406.186397 226.605868 407.386397 
L 226.605868 413.193272 
Q 226.605868 414.393272 227.805868 414.393272 
z
" style="fill: #006400; opacity: 0.9; stroke: #000000; stroke-linejoin: miter"/>
    </g>
    <!-- f=13,107 -->
    <g style="fill: #ffffff" transform="translate(227.805868 411.945459) scale(0.06 -0.06)">
     <use xlink:href="#DejaVuSans-Bold-66"/>
     <use xlink:href="#DejaVuSans-Bold-3d" transform="translate(43.505859 0)"/>
     <use xlink:href="#DejaVuSans-Bold-31" transform="translate(127.294922 0)"/>
     <use xlink:href="#DejaVuSans-Bold-33" transform="translate(196.875 0)"/>
     <use xlink:href="#DejaVuSans-Bold-2c" transform="translate(266.455078 0)"/>
     <use xlink:href="#DejaVuSans-Bold-31" transform="translate(304.443359 0)"/>
     <use xlink:href="#DejaVuSans-Bold-30" transform="translate(374.023438 0)"/>
     <use xlink:href="#DejaVuSans-Bold-37" transform="translate(443.603516 0)"/>
    </g>
   </g>
   <g id="text_34">
    <g id="patch_25">
     <path d="M 338.132208 409.918596 
L 368.922521 409.918596 
Q 370.122521 409.918596 370.122521 408.718596 
L 370.122521 402.911721 
Q 370.122521 401.711721 368.922521 401.711721 
L 338.132208 401.711721 
Q 336.932208 401.711721 336.932208 402.911721 
L 336.932208 408.718596 
Q 336.932208 409.918596 338.132208 409.918596 
z
" style="fill: #006400; opacity: 0.9; stroke: #000000; stroke-linejoin: miter"/>
    </g>
    <!-- f=15,046 -->
    <g style="fill: #ffffff" transform="translate(338.132208 407.470783) scale(0.06 -0.06)">
     <defs>
      <path id="DejaVuSans-Bold-35" d="M 678 4666 
L 3669 4666 
L 3669 3781 
L 1638 3781 
L 1638 3059 
Q 1775 3097 1914 3117 
Q 2053 3138 2203 3138 
Q 3056 3138 3531 2711 
Q 4006 2284 4006 1522 
Q 4006 766 3489 337 
Q 2972 -91 2053 -91 
Q 1656 -91 1267 -14 
Q 878 63 494 219 
L 494 1166 
Q 875 947 1217 837 
Q 1559 728 1863 728 
Q 2300 728 2551 942 
Q 2803 1156 2803 1522 
Q 2803 1891 2551 2103 
Q 2300 2316 1863 2316 
Q 1603 2316 1309 2248 
Q 1016 2181 678 2041 
L 678 4666 
z
" transform="scale(0.015625)"/>
      <path id="DejaVuSans-Bold-34" d="M 2356 3675 
L 1038 1722 
L 2356 1722 
L 2356 3675 
z
M 2156 4666 
L 3494 4666 
L 3494 1722 
L 4159 1722 
L 4159 850 
L 3494 850 
L 3494 0 
L 2356 0 
L 2356 850 
L 288 850 
L 288 1881 
L 2156 4666 
z
" transform="scale(0.015625)"/>
      <path id="DejaVuSans-Bold-36" d="M 2316 2303 
Q 2000 2303 1842 2098 
Q 1684 1894 1684 1484 
Q 1684 1075 1842 870 
Q 2000 666 2316 666 
Q 2634 666 2792 870 
Q 2950 1075 2950 1484 
Q 2950 1894 2792 2098 
Q 2634 2303 2316 2303 
z
M 3803 4544 
L 3803 3681 
Q 3506 3822 3243 3889 
Q 2981 3956 2731 3956 
Q 2194 3956 1894 3657 
Q 1594 3359 1544 2772 
Q 1750 2925 1990 3001 
Q 2231 3078 2516 3078 
Q 3231 3078 3670 2659 
Q 4109 2241 4109 1563 
Q 4109 813 3618 361 
Q 3128 -91 2303 -91 
Q 1394 -91 895 523 
Q 397 1138 397 2266 
Q 397 3422 980 4083 
Q 1563 4744 2578 4744 
Q 2900 4744 3203 4694 
Q 3506 4644 3803 4544 
z
" transform="scale(0.015625)"/>
     </defs>
     <use xlink:href="#DejaVuSans-Bold-66"/>
     <use xlink:href="#DejaVuSans-Bold-3d" transform="translate(43.505859 0)"/>
     <use xlink:href="#DejaVuSans-Bold-31" transform="translate(127.294922 0)"/>
     <use xlink:href="#DejaVuSans-Bold-35" transform="translate(196.875 0)"/>
     <use xlink:href="#DejaVuSans-Bold-2c" transform="translate(266.455078 0)"/>
     <use xlink:href="#DejaVuSans-Bold-30" transform="translate(304.443359 0)"/>
     <use xlink:href="#DejaVuSans-Bold-34" transform="translate(374.023438 0)"/>
     <use xlink:href="#DejaVuSans-Bold-36" transform="translate(443.603516 0)"/>
    </g>
   </g>
   <g id="text_35">
    <g id="patch_26">
     <path d="M 448.458549 397.090835 
L 479.248861 397.090835 
Q 480.448861 397.090835 480.448861 395.890835 
L 480.448861 390.08396 
Q 480.448861 388.88396 479.248861 388.88396 
L 448.458549 388.88396 
Q 447.258549 388.88396 447.258549 390.08396 
L 447.258549 395.890835 
Q 447.258549 397.090835 448.458549 397.090835 
z
" style="fill: #006400; opacity: 0.9; stroke: #000000; stroke-linejoin: miter"/>
    </g>
    <!-- f=16,189 -->
    <g style="fill: #ffffff" transform="translate(448.458549 394.643022) scale(0.06 -0.06)">
     <defs>
      <path id="DejaVuSans-Bold-38" d="M 2228 2088 
Q 1891 2088 1709 1903 
Q 1528 1719 1528 1375 
Q 1528 1031 1709 848 
Q 1891 666 2228 666 
Q 2563 666 2741 848 
Q 2919 1031 2919 1375 
Q 2919 1722 2741 1905 
Q 2563 2088 2228 2088 
z
M 1350 2484 
Q 925 2613 709 2878 
Q 494 3144 494 3541 
Q 494 4131 934 4440 
Q 1375 4750 2228 4750 
Q 3075 4750 3515 4442 
Q 3956 4134 3956 3541 
Q 3956 3144 3739 2878 
Q 3522 2613 3097 2484 
Q 3572 2353 3814 2058 
Q 4056 1763 4056 1313 
Q 4056 619 3595 264 
Q 3134 -91 2228 -91 
Q 1319 -91 855 264 
Q 391 619 391 1313 
Q 391 1763 633 2058 
Q 875 2353 1350 2484 
z
M 1631 3419 
Q 1631 3141 1786 2991 
Q 1941 2841 2228 2841 
Q 2509 2841 2662 2991 
Q 2816 3141 2816 3419 
Q 2816 3697 2662 3845 
Q 2509 3994 2228 3994 
Q 1941 3994 1786 3844 
Q 1631 3694 1631 3419 
z
" transform="scale(0.015625)"/>
      <path id="DejaVuSans-Bold-39" d="M 641 103 
L 641 966 
Q 928 831 1190 764 
Q 1453 697 1709 697 
Q 2247 697 2547 995 
Q 2847 1294 2900 1881 
Q 2688 1725 2447 1647 
Q 2206 1569 1925 1569 
Q 1209 1569 770 1986 
Q 331 2403 331 3084 
Q 331 3838 820 4291 
Q 1309 4744 2131 4744 
Q 3044 4744 3544 4128 
Q 4044 3513 4044 2388 
Q 4044 1231 3459 570 
Q 2875 -91 1856 -91 
Q 1528 -91 1228 -42 
Q 928 6 641 103 
z
M 2125 2350 
Q 2441 2350 2600 2554 
Q 2759 2759 2759 3169 
Q 2759 3575 2600 3781 
Q 2441 3988 2125 3988 
Q 1809 3988 1650 3781 
Q 1491 3575 1491 3169 
Q 1491 2759 1650 2554 
Q 1809 2350 2125 2350 
z
" transform="scale(0.015625)"/>
     </defs>
     <use xlink:href="#DejaVuSans-Bold-66"/>
     <use xlink:href="#DejaVuSans-Bold-3d" transform="translate(43.505859 0)"/>
     <use xlink:href="#DejaVuSans-Bold-31" transform="translate(127.294922 0)"/>
     <use xlink:href="#DejaVuSans-Bold-36" transform="translate(196.875 0)"/>
     <use xlink:href="#DejaVuSans-Bold-2c" transform="translate(266.455078 0)"/>
     <use xlink:href="#DejaVuSans-Bold-31" transform="translate(304.443359 0)"/>
     <use xlink:href="#DejaVuSans-Bold-38" transform="translate(374.023438 0)"/>
     <use xlink:href="#DejaVuSans-Bold-39" transform="translate(443.603516 0)"/>
    </g>
   </g>
   <g id="text_36">
    <g id="patch_27">
     <path d="M 558.784889 385.685683 
L 589.575201 385.685683 
Q 590.775201 385.685683 590.775201 384.485683 
L 590.775201 378.678808 
Q 590.775201 377.478808 589.575201 377.478808 
L 558.784889 377.478808 
Q 557.584889 377.478808 557.584889 378.678808 
L 557.584889 384.485683 
Q 557.584889 385.685683 558.784889 385.685683 
z
" style="fill: #006400; opacity: 0.9; stroke: #000000; stroke-linejoin: miter"/>
    </g>
    <!-- f=14,829 -->
    <g style="fill: #ffffff" transform="translate(558.784889 383.237871) scale(0.06 -0.06)">
     <defs>
      <path id="DejaVuSans-Bold-32" d="M 1844 884 
L 3897 884 
L 3897 0 
L 506 0 
L 506 884 
L 2209 2388 
Q 2438 2594 2547 2791 
Q 2656 2988 2656 3200 
Q 2656 3528 2436 3728 
Q 2216 3928 1850 3928 
Q 1569 3928 1234 3808 
Q 900 3688 519 3450 
L 519 4475 
Q 925 4609 1322 4679 
Q 1719 4750 2100 4750 
Q 2938 4750 3402 4381 
Q 3866 4013 3866 3353 
Q 3866 2972 3669 2642 
Q 3472 2313 2841 1759 
L 1844 884 
z
" transform="scale(0.015625)"/>
     </defs>
     <use xlink:href="#DejaVuSans-Bold-66"/>
     <use xlink:href="#DejaVuSans-Bold-3d" transform="translate(43.505859 0)"/>
     <use xlink:href="#DejaVuSans-Bold-31" transform="translate(127.294922 0)"/>
     <use xlink:href="#DejaVuSans-Bold-34" transform="translate(196.875 0)"/>
     <use xlink:href="#DejaVuSans-Bold-2c" transform="translate(266.455078 0)"/>
     <use xlink:href="#DejaVuSans-Bold-38" transform="translate(304.443359 0)"/>
     <use xlink:href="#DejaVuSans-Bold-32" transform="translate(374.023438 0)"/>
     <use xlink:href="#DejaVuSans-Bold-39" transform="translate(443.603516 0)"/>
    </g>
   </g>
   <g id="text_37">
    <g id="patch_28">
     <path d="M 669.111229 330.975836 
L 699.901542 330.975836 
Q 701.101542 330.975836 701.101542 329.775836 
L 701.101542 323.968961 
Q 701.101542 322.768961 699.901542 322.768961 
L 669.111229 322.768961 
Q 667.911229 322.768961 667.911229 323.968961 
L 667.911229 329.775836 
Q 667.911229 330.975836 669.111229 330.975836 
z
" style="fill: #006400; opacity: 0.9; stroke: #000000; stroke-linejoin: miter"/>
    </g>
    <!-- f=13,977 -->
    <g style="fill: #ffffff" transform="translate(669.111229 328.528023) scale(0.06 -0.06)">
     <use xlink:href="#DejaVuSans-Bold-66"/>
     <use xlink:href="#DejaVuSans-Bold-3d" transform="translate(43.505859 0)"/>
     <use xlink:href="#DejaVuSans-Bold-31" transform="translate(127.294922 0)"/>
     <use xlink:href="#DejaVuSans-Bold-33" transform="translate(196.875 0)"/>
     <use xlink:href="#DejaVuSans-Bold-2c" transform="translate(266.455078 0)"/>
     <use xlink:href="#DejaVuSans-Bold-39" transform="translate(304.443359 0)"/>
     <use xlink:href="#DejaVuSans-Bold-37" transform="translate(374.023438 0)"/>
     <use xlink:href="#DejaVuSans-Bold-37" transform="translate(443.603516 0)"/>
    </g>
   </g>
   <g id="text_38">
    <g id="patch_29">
     <path d="M 779.43757 307.883752 
L 810.227882 307.883752 
Q 811.427882 307.883752 811.427882 306.683752 
L 811.427882 300.876877 
Q 811.427882 299.676877 810.227882 299.676877 
L 779.43757 299.676877 
Q 778.23757 299.676877 778.23757 300.876877 
L 778.23757 306.683752 
Q 778.23757 307.883752 779.43757 307.883752 
z
" style="fill: #006400; opacity: 0.9; stroke: #000000; stroke-linejoin: miter"/>
    </g>
    <!-- f=13,994 -->
    <g style="fill: #ffffff" transform="translate(779.43757 305.435939) scale(0.06 -0.06)">
     <use xlink:href="#DejaVuSans-Bold-66"/>
     <use xlink:href="#DejaVuSans-Bold-3d" transform="translate(43.505859 0)"/>
     <use xlink:href="#DejaVuSans-Bold-31" transform="translate(127.294922 0)"/>
     <use xlink:href="#DejaVuSans-Bold-33" transform="translate(196.875 0)"/>
     <use xlink:href="#DejaVuSans-Bold-2c" transform="translate(266.455078 0)"/>
     <use xlink:href="#DejaVuSans-Bold-39" transform="translate(304.443359 0)"/>
     <use xlink:href="#DejaVuSans-Bold-39" transform="translate(374.023438 0)"/>
     <use xlink:href="#DejaVuSans-Bold-34" transform="translate(443.603516 0)"/>
    </g>
   </g>
   <g id="text_39">
    <g id="patch_30">
     <path d="M 889.76391 267.343598 
L 920.554222 267.343598 
Q 921.754222 267.343598 921.754222 266.143598 
L 921.754222 260.336723 
Q 921.754222 259.136723 920.554222 259.136723 
L 889.76391 259.136723 
Q 888.56391 259.136723 888.56391 260.336723 
L 888.56391 266.143598 
Q 888.56391 267.343598 889.76391 267.343598 
z
" style="fill: #006400; opacity: 0.9; stroke: #000000; stroke-linejoin: miter"/>
    </g>
    <!-- f=14,613 -->
    <g style="fill: #ffffff" transform="translate(889.76391 264.895785) scale(0.06 -0.06)">
     <use xlink:href="#DejaVuSans-Bold-66"/>
     <use xlink:href="#DejaVuSans-Bold-3d" transform="translate(43.505859 0)"/>
     <use xlink:href="#DejaVuSans-Bold-31" transform="translate(127.294922 0)"/>
     <use xlink:href="#DejaVuSans-Bold-34" transform="translate(196.875 0)"/>
     <use xlink:href="#DejaVuSans-Bold-2c" transform="translate(266.455078 0)"/>
     <use xlink:href="#DejaVuSans-Bold-36" transform="translate(304.443359 0)"/>
     <use xlink:href="#DejaVuSans-Bold-31" transform="translate(374.023438 0)"/>
     <use xlink:href="#DejaVuSans-Bold-33" transform="translate(443.603516 0)"/>
    </g>
   </g>
   <g id="text_40">
    <!-- Scaling Ford Fulkerson - Fixeddegree - Mean Runtime vs Input Size (n×m) -->
    <g transform="translate(227.27875 17.837813) scale(0.14 -0.14)">
     <defs>
      <path id="DejaVuSans-Bold-6c" d="M 538 4863 
L 1656 4863 
L 1656 0 
L 538 0 
L 538 4863 
z
" transform="scale(0.015625)"/>
      <path id="DejaVuSans-Bold-46" d="M 588 4666 
L 3834 4666 
L 3834 3756 
L 1791 3756 
L 1791 2888 
L 3713 2888 
L 3713 1978 
L 1791 1978 
L 1791 0 
L 588 0 
L 588 4666 
z
" transform="scale(0.015625)"/>
      <path id="DejaVuSans-Bold-6b" d="M 538 4863 
L 1656 4863 
L 1656 2216 
L 2944 3500 
L 4244 3500 
L 2534 1894 
L 4378 0 
L 3022 0 
L 1656 1459 
L 1656 0 
L 538 0 
L 538 4863 
z
" transform="scale(0.015625)"/>
      <path id="DejaVuSans-Bold-2d" d="M 347 2297 
L 2309 2297 
L 2309 1388 
L 347 1388 
L 347 2297 
z
" transform="scale(0.015625)"/>
      <path id="DejaVuSans-Bold-78" d="M 1422 1791 
L 159 3500 
L 1344 3500 
L 2059 2463 
L 2784 3500 
L 3969 3500 
L 2706 1797 
L 4031 0 
L 2847 0 
L 2059 1106 
L 1281 0 
L 97 0 
L 1422 1791 
z
" transform="scale(0.015625)"/>
     </defs>
     <use xlink:href="#DejaVuSans-Bold-53"/>
     <use xlink:href="#DejaVuSans-Bold-63" transform="translate(72.021484 0)"/>
     <use xlink:href="#DejaVuSans-Bold-61" transform="translate(131.298828 0)"/>
     <use xlink:href="#DejaVuSans-Bold-6c" transform="translate(198.779297 0)"/>
     <use xlink:href="#DejaVuSans-Bold-69" transform="translate(233.056641 0)"/>
     <use xlink:href="#DejaVuSans-Bold-6e" transform="translate(267.333984 0)"/>
     <use xlink:href="#DejaVuSans-Bold-67" transform="translate(338.525391 0)"/>
     <use xlink:href="#DejaVuSans-Bold-20" transform="translate(410.107422 0)"/>
     <use xlink:href="#DejaVuSans-Bold-46" transform="translate(444.921875 0)"/>
     <use xlink:href="#DejaVuSans-Bold-6f" transform="translate(509.232422 0)"/>
     <use xlink:href="#DejaVuSans-Bold-72" transform="translate(577.933594 0)"/>
     <use xlink:href="#DejaVuSans-Bold-64" transform="translate(627.25 0)"/>
     <use xlink:href="#DejaVuSans-Bold-20" transform="translate(698.832031 0)"/>
     <use xlink:href="#DejaVuSans-Bold-46" transform="translate(733.646484 0)"/>
     <use xlink:href="#DejaVuSans-Bold-75" transform="translate(796.957031 0)"/>
     <use xlink:href="#DejaVuSans-Bold-6c" transform="translate(868.148438 0)"/>
     <use xlink:href="#DejaVuSans-Bold-6b" transform="translate(902.425781 0)"/>
     <use xlink:href="#DejaVuSans-Bold-65" transform="translate(966.304688 0)"/>
     <use xlink:href="#DejaVuSans-Bold-72" transform="translate(1034.126953 0)"/>
     <use xlink:href="#DejaVuSans-Bold-73" transform="translate(1083.443359 0)"/>
     <use xlink:href="#DejaVuSans-Bold-6f" transform="translate(1142.964844 0)"/>
     <use xlink:href="#DejaVuSans-Bold-6e" transform="translate(1211.666016 0)"/>
     <use xlink:href="#DejaVuSans-Bold-20" transform="translate(1282.857422 0)"/>
     <use xlink:href="#DejaVuSans-Bold-2d" transform="translate(1317.671875 0)"/>
     <use xlink:href="#DejaVuSans-Bold-20" transform="translate(1359.175781 0)"/>
     <use xlink:href="#DejaVuSans-Bold-46" transform="translate(1393.990234 0)"/>
     <use xlink:href="#DejaVuSans-Bold-69" transform="translate(1462.300781 0)"/>
     <use xlink:href="#DejaVuSans-Bold-78" transform="translate(1496.578125 0)"/>
     <use xlink:href="#DejaVuSans-Bold-65" transform="translate(1561.080078 0)"/>
     <use xlink:href="#DejaVuSans-Bold-64" transform="translate(1628.902344 0)"/>
     <use xlink:href="#DejaVuSans-Bold-64" transform="translate(1700.484375 0)"/>
     <use xlink:href="#DejaVuSans-Bold-65" transform="translate(1772.066406 0)"/>
     <use xlink:href="#DejaVuSans-Bold-67" transform="translate(1839.888672 0)"/>
     <use xlink:href="#DejaVuSans-Bold-72" transform="translate(1911.470703 0)"/>
     <use xlink:href="#DejaVuSans-Bold-65" transform="translate(1960.787109 0)"/>
     <use xlink:href="#DejaVuSans-Bold-65" transform="translate(2028.609375 0)"/>
     <use xlink:href="#DejaVuSans-Bold-20" transform="translate(2096.431641 0)"/>
     <use xlink:href="#DejaVuSans-Bold-2d" transform="translate(2131.246094 0)"/>
     <use xlink:href="#DejaVuSans-Bold-20" transform="translate(2172.75 0)"/>
     <use xlink:href="#DejaVuSans-Bold-4d" transform="translate(2207.564453 0)"/>
     <use xlink:href="#DejaVuSans-Bold-65" transform="translate(2307.076172 0)"/>
     <use xlink:href="#DejaVuSans-Bold-61" transform="translate(2374.898438 0)"/>
     <use xlink:href="#DejaVuSans-Bold-6e" transform="translate(2442.378906 0)"/>
     <use xlink:href="#DejaVuSans-Bold-20" transform="translate(2513.570312 0)"/>
     <use xlink:href="#DejaVuSans-Bold-52" transform="translate(2548.384766 0)"/>
     <use xlink:href="#DejaVuSans-Bold-75" transform="translate(2625.386719 0)"/>
     <use xlink:href="#DejaVuSans-Bold-6e" transform="translate(2696.578125 0)"/>
     <use xlink:href="#DejaVuSans-Bold-74" transform="translate(2767.769531 0)"/>
     <use xlink:href="#DejaVuSans-Bold-69" transform="translate(2815.572266 0)"/>
     <use xlink:href="#DejaVuSans-Bold-6d" transform="translate(2849.849609 0)"/>
     <use xlink:href="#DejaVuSans-Bold-65" transform="translate(2954.048828 0)"/>
     <use xlink:href="#DejaVuSans-Bold-20" transform="translate(3021.871094 0)"/>
     <use xlink:href="#DejaVuSans-Bold-76" transform="translate(3056.685547 0)"/>
     <use xlink:href="#DejaVuSans-Bold-73" transform="translate(3121.871094 0)"/>
     <use xlink:href="#DejaVuSans-Bold-20" transform="translate(3181.392578 0)"/>
     <use xlink:href="#DejaVuSans-Bold-49" transform="translate(3216.207031 0)"/>
     <use xlink:href="#DejaVuSans-Bold-6e" transform="translate(3253.414062 0)"/>
     <use xlink:href="#DejaVuSans-Bold-70" transform="translate(3324.605469 0)"/>
     <use xlink:href="#DejaVuSans-Bold-75" transform="translate(3396.1875 0)"/>
     <use xlink:href="#DejaVuSans-Bold-74" transform="translate(3467.378906 0)"/>
     <use xlink:href="#DejaVuSans-Bold-20" transform="translate(3515.181641 0)"/>
     <use xlink:href="#DejaVuSans-Bold-53" transform="translate(3549.996094 0)"/>
     <use xlink:href="#DejaVuSans-Bold-69" transform="translate(3622.017578 0)"/>
     <use xlink:href="#DejaVuSans-Bold-7a" transform="translate(3656.294922 0)"/>
     <use xlink:href="#DejaVuSans-Bold-65" transform="translate(3714.498047 0)"/>
     <use xlink:href="#DejaVuSans-Bold-20" transform="translate(3782.320312 0)"/>
     <use xlink:href="#DejaVuSans-Bold-28" transform="translate(3817.134766 0)"/>
     <use xlink:href="#DejaVuSans-Bold-6e" transform="translate(3862.837891 0)"/>
     <use xlink:href="#DejaVuSans-Bold-d7" transform="translate(3934.029297 0)"/>
     <use xlink:href="#DejaVuSans-Bold-6d" transform="translate(4017.818359 0)"/>
     <use xlink:href="#DejaVuSans-Bold-29" transform="translate(4122.017578 0)"/>
    </g>
   </g>
  </g>
 </g>
 <defs>
  <clipPath id="pb1d98f9514">
   <rect x="45.716875" y="23.837813" width="946.6" height="394.164851"/>
  </clipPath>
 </defs>
</svg>
