<?xml version="1.0" encoding="utf-8" standalone="no"?>
<!DOCTYPE svg PUBLIC "-//W3C//DTD SVG 1.1//EN"
  "http://www.w3.org/Graphics/SVG/1.1/DTD/svg11.dtd">
<svg xmlns:xlink="http://www.w3.org/1999/xlink" width="999.48875pt" height="495.117054pt" viewBox="0 0 999.48875 495.117054" xmlns="http://www.w3.org/2000/svg" version="1.1">
 <metadata>
  <rdf:RDF xmlns:dc="http://purl.org/dc/elements/1.1/" xmlns:cc="http://creativecommons.org/ns#" xmlns:rdf="http://www.w3.org/1999/02/22-rdf-syntax-ns#">
   <cc:Work>
    <dc:type rdf:resource="http://purl.org/dc/dcmitype/StillImage"/>
    <dc:date>2025-12-03T16:50:28.564488</dc:date>
    <dc:format>image/svg+xml</dc:format>
    <dc:creator>
     <cc:Agent>
      <dc:title>Matplotlib v3.10.7, https://matplotlib.org/</dc:title>
     </cc:Agent>
    </dc:creator>
   </cc:Work>
  </rdf:RDF>
 </metadata>
 <defs>
  <style type="text/css">*{stroke-linejoin: round; stroke-linecap: butt}</style>
 </defs>
 <g id="figure_1">
  <g id="patch_1">
   <path d="M 0 495.117054 
L 999.48875 495.117054 
L 999.48875 0 
L 0 0 
z
" style="fill: #ffffff"/>
  </g>
  <g id="axes_1">
   <g id="patch_2">
    <path d="M 42.53875 417.875384 
L 992.28875 417.875384 
L 992.28875 23.837812 
L 42.53875 23.837812 
z
" style="fill: #ffffff"/>
   </g>
   <g id="matplotlib.axis_1">
    <g id="xtick_1">
     <g id="line2d_1">
      <defs>
       <path id="m0f5cefcd02" d="M 0 0 
L 0 3.5 
" style="stroke: #000000; stroke-width: 0.8"/>
      </defs>
      <g>
       <use xlink:href="#m0f5cefcd02" x="129.986594" y="417.875384" style="stroke: #000000; stroke-width: 0.8"/>
      </g>
     </g>
     <g id="text_1">
      <!-- 135762 -->
      <g transform="translate(101.522231 457.242092) rotate(-45) scale(0.1 -0.1)">
       <defs>
        <path id="DejaVuSans-31" d="M 794 531 
L 1825 531 
L 1825 4091 
L 703 3866 
L 703 4441 
L 1819 4666 
L 2450 4666 
L 2450 531 
L 3481 531 
L 3481 0 
L 794 0 
L 794 531 
z
" transform="scale(0.015625)"/>
        <path id="DejaVuSans-33" d="M 2597 2516 
Q 3050 2419 3304 2112 
Q 3559 1806 3559 1356 
Q 3559 666 3084 287 
Q 2609 -91 1734 -91 
Q 1441 -91 1130 -33 
Q 819 25 488 141 
L 488 750 
Q 750 597 1062 519 
Q 1375 441 1716 441 
Q 2309 441 2620 675 
Q 2931 909 2931 1356 
Q 2931 1769 2642 2001 
Q 2353 2234 1838 2234 
L 1294 2234 
L 1294 2753 
L 1863 2753 
Q 2328 2753 2575 2939 
Q 2822 3125 2822 3475 
Q 2822 3834 2567 4026 
Q 2313 4219 1838 4219 
Q 1578 4219 1281 4162 
Q 984 4106 628 3988 
L 628 4550 
Q 988 4650 1302 4700 
Q 1616 4750 1894 4750 
Q 2613 4750 3031 4423 
Q 3450 4097 3450 3541 
Q 3450 3153 3228 2886 
Q 3006 2619 2597 2516 
z
" transform="scale(0.015625)"/>
        <path id="DejaVuSans-35" d="M 691 4666 
L 3169 4666 
L 3169 4134 
L 1269 4134 
L 1269 2991 
Q 1406 3038 1543 3061 
Q 1681 3084 1819 3084 
Q 2600 3084 3056 2656 
Q 3513 2228 3513 1497 
Q 3513 744 3044 326 
Q 2575 -91 1722 -91 
Q 1428 -91 1123 -41 
Q 819 9 494 109 
L 494 744 
Q 775 591 1075 516 
Q 1375 441 1709 441 
Q 2250 441 2565 725 
Q 2881 1009 2881 1497 
Q 2881 1984 2565 2268 
Q 2250 2553 1709 2553 
Q 1456 2553 1204 2497 
Q 953 2441 691 2322 
L 691 4666 
z
" transform="scale(0.015625)"/>
        <path id="DejaVuSans-37" d="M 525 4666 
L 3525 4666 
L 3525 4397 
L 1831 0 
L 1172 0 
L 2766 4134 
L 525 4134 
L 525 4666 
z
" transform="scale(0.015625)"/>
        <path id="DejaVuSans-36" d="M 2113 2584 
Q 1688 2584 1439 2293 
Q 1191 2003 1191 1497 
Q 1191 994 1439 701 
Q 1688 409 2113 409 
Q 2538 409 2786 701 
Q 3034 994 3034 1497 
Q 3034 2003 2786 2293 
Q 2538 2584 2113 2584 
z
M 3366 4563 
L 3366 3988 
Q 3128 4100 2886 4159 
Q 2644 4219 2406 4219 
Q 1781 4219 1451 3797 
Q 1122 3375 1075 2522 
Q 1259 2794 1537 2939 
Q 1816 3084 2150 3084 
Q 2853 3084 3261 2657 
Q 3669 2231 3669 1497 
Q 3669 778 3244 343 
Q 2819 -91 2113 -91 
Q 1303 -91 875 529 
Q 447 1150 447 2328 
Q 447 3434 972 4092 
Q 1497 4750 2381 4750 
Q 2619 4750 2861 4703 
Q 3103 4656 3366 4563 
z
" transform="scale(0.015625)"/>
        <path id="DejaVuSans-32" d="M 1228 531 
L 3431 531 
L 3431 0 
L 469 0 
L 469 531 
Q 828 903 1448 1529 
Q 2069 2156 2228 2338 
Q 2531 2678 2651 2914 
Q 2772 3150 2772 3378 
Q 2772 3750 2511 3984 
Q 2250 4219 1831 4219 
Q 1534 4219 1204 4116 
Q 875 4013 500 3803 
L 500 4441 
Q 881 4594 1212 4672 
Q 1544 4750 1819 4750 
Q 2544 4750 2975 4387 
Q 3406 4025 3406 3419 
Q 3406 3131 3298 2873 
Q 3191 2616 2906 2266 
Q 2828 2175 2409 1742 
Q 1991 1309 1228 531 
z
" transform="scale(0.015625)"/>
       </defs>
       <use xlink:href="#DejaVuSans-31"/>
       <use xlink:href="#DejaVuSans-33" transform="translate(63.623047 0)"/>
       <use xlink:href="#DejaVuSans-35" transform="translate(127.246094 0)"/>
       <use xlink:href="#DejaVuSans-37" transform="translate(190.869141 0)"/>
       <use xlink:href="#DejaVuSans-36" transform="translate(254.492188 0)"/>
       <use xlink:href="#DejaVuSans-32" transform="translate(318.115234 0)"/>
      </g>
     </g>
    </g>
    <g id="xtick_2">
     <g id="line2d_2">
      <g>
       <use xlink:href="#m0f5cefcd02" x="240.680067" y="417.875384" style="stroke: #000000; stroke-width: 0.8"/>
      </g>
     </g>
     <g id="text_2">
      <!-- 1052824 -->
      <g transform="translate(207.716738 461.741059) rotate(-45) scale(0.1 -0.1)">
       <defs>
        <path id="DejaVuSans-30" d="M 2034 4250 
Q 1547 4250 1301 3770 
Q 1056 3291 1056 2328 
Q 1056 1369 1301 889 
Q 1547 409 2034 409 
Q 2525 409 2770 889 
Q 3016 1369 3016 2328 
Q 3016 3291 2770 3770 
Q 2525 4250 2034 4250 
z
M 2034 4750 
Q 2819 4750 3233 4129 
Q 3647 3509 3647 2328 
Q 3647 1150 3233 529 
Q 2819 -91 2034 -91 
Q 1250 -91 836 529 
Q 422 1150 422 2328 
Q 422 3509 836 4129 
Q 1250 4750 2034 4750 
z
" transform="scale(0.015625)"/>
        <path id="DejaVuSans-38" d="M 2034 2216 
Q 1584 2216 1326 1975 
Q 1069 1734 1069 1313 
Q 1069 891 1326 650 
Q 1584 409 2034 409 
Q 2484 409 2743 651 
Q 3003 894 3003 1313 
Q 3003 1734 2745 1975 
Q 2488 2216 2034 2216 
z
M 1403 2484 
Q 997 2584 770 2862 
Q 544 3141 544 3541 
Q 544 4100 942 4425 
Q 1341 4750 2034 4750 
Q 2731 4750 3128 4425 
Q 3525 4100 3525 3541 
Q 3525 3141 3298 2862 
Q 3072 2584 2669 2484 
Q 3125 2378 3379 2068 
Q 3634 1759 3634 1313 
Q 3634 634 3220 271 
Q 2806 -91 2034 -91 
Q 1263 -91 848 271 
Q 434 634 434 1313 
Q 434 1759 690 2068 
Q 947 2378 1403 2484 
z
M 1172 3481 
Q 1172 3119 1398 2916 
Q 1625 2713 2034 2713 
Q 2441 2713 2670 2916 
Q 2900 3119 2900 3481 
Q 2900 3844 2670 4047 
Q 2441 4250 2034 4250 
Q 1625 4250 1398 4047 
Q 1172 3844 1172 3481 
z
" transform="scale(0.015625)"/>
        <path id="DejaVuSans-34" d="M 2419 4116 
L 825 1625 
L 2419 1625 
L 2419 4116 
z
M 2253 4666 
L 3047 4666 
L 3047 1625 
L 3713 1625 
L 3713 1100 
L 3047 1100 
L 3047 0 
L 2419 0 
L 2419 1100 
L 313 1100 
L 313 1709 
L 2253 4666 
z
" transform="scale(0.015625)"/>
       </defs>
       <use xlink:href="#DejaVuSans-31"/>
       <use xlink:href="#DejaVuSans-30" transform="translate(63.623047 0)"/>
       <use xlink:href="#DejaVuSans-35" transform="translate(127.246094 0)"/>
       <use xlink:href="#DejaVuSans-32" transform="translate(190.869141 0)"/>
       <use xlink:href="#DejaVuSans-38" transform="translate(254.492188 0)"/>
       <use xlink:href="#DejaVuSans-32" transform="translate(318.115234 0)"/>
       <use xlink:href="#DejaVuSans-34" transform="translate(381.738281 0)"/>
      </g>
     </g>
    </g>
    <g id="xtick_3">
     <g id="line2d_3">
      <g>
       <use xlink:href="#m0f5cefcd02" x="351.37354" y="417.875384" style="stroke: #000000; stroke-width: 0.8"/>
      </g>
     </g>
     <g id="text_3">
      <!-- 8244618 -->
      <g transform="translate(318.410211 461.741059) rotate(-45) scale(0.1 -0.1)">
       <use xlink:href="#DejaVuSans-38"/>
       <use xlink:href="#DejaVuSans-32" transform="translate(63.623047 0)"/>
       <use xlink:href="#DejaVuSans-34" transform="translate(127.246094 0)"/>
       <use xlink:href="#DejaVuSans-34" transform="translate(190.869141 0)"/>
       <use xlink:href="#DejaVuSans-36" transform="translate(254.492188 0)"/>
       <use xlink:href="#DejaVuSans-31" transform="translate(318.115234 0)"/>
       <use xlink:href="#DejaVuSans-38" transform="translate(381.738281 0)"/>
      </g>
     </g>
    </g>
    <g id="xtick_4">
     <g id="line2d_4">
      <g>
       <use xlink:href="#m0f5cefcd02" x="462.067013" y="417.875384" style="stroke: #000000; stroke-width: 0.8"/>
      </g>
     </g>
     <g id="text_4">
      <!-- 27410264 -->
      <g transform="translate(424.604717 466.240026) rotate(-45) scale(0.1 -0.1)">
       <use xlink:href="#DejaVuSans-32"/>
       <use xlink:href="#DejaVuSans-37" transform="translate(63.623047 0)"/>
       <use xlink:href="#DejaVuSans-34" transform="translate(127.246094 0)"/>
       <use xlink:href="#DejaVuSans-31" transform="translate(190.869141 0)"/>
       <use xlink:href="#DejaVuSans-30" transform="translate(254.492188 0)"/>
       <use xlink:href="#DejaVuSans-32" transform="translate(318.115234 0)"/>
       <use xlink:href="#DejaVuSans-36" transform="translate(381.738281 0)"/>
       <use xlink:href="#DejaVuSans-34" transform="translate(445.361328 0)"/>
      </g>
     </g>
    </g>
    <g id="xtick_5">
     <g id="line2d_5">
      <g>
       <use xlink:href="#m0f5cefcd02" x="572.760487" y="417.875384" style="stroke: #000000; stroke-width: 0.8"/>
      </g>
     </g>
     <g id="text_5">
      <!-- 64528920 -->
      <g transform="translate(535.29819 466.240026) rotate(-45) scale(0.1 -0.1)">
       <defs>
        <path id="DejaVuSans-39" d="M 703 97 
L 703 672 
Q 941 559 1184 500 
Q 1428 441 1663 441 
Q 2288 441 2617 861 
Q 2947 1281 2994 2138 
Q 2813 1869 2534 1725 
Q 2256 1581 1919 1581 
Q 1219 1581 811 2004 
Q 403 2428 403 3163 
Q 403 3881 828 4315 
Q 1253 4750 1959 4750 
Q 2769 4750 3195 4129 
Q 3622 3509 3622 2328 
Q 3622 1225 3098 567 
Q 2575 -91 1691 -91 
Q 1453 -91 1209 -44 
Q 966 3 703 97 
z
M 1959 2075 
Q 2384 2075 2632 2365 
Q 2881 2656 2881 3163 
Q 2881 3666 2632 3958 
Q 2384 4250 1959 4250 
Q 1534 4250 1286 3958 
Q 1038 3666 1038 3163 
Q 1038 2656 1286 2365 
Q 1534 2075 1959 2075 
z
" transform="scale(0.015625)"/>
       </defs>
       <use xlink:href="#DejaVuSans-36"/>
       <use xlink:href="#DejaVuSans-34" transform="translate(63.623047 0)"/>
       <use xlink:href="#DejaVuSans-35" transform="translate(127.246094 0)"/>
       <use xlink:href="#DejaVuSans-32" transform="translate(190.869141 0)"/>
       <use xlink:href="#DejaVuSans-38" transform="translate(254.492188 0)"/>
       <use xlink:href="#DejaVuSans-39" transform="translate(318.115234 0)"/>
       <use xlink:href="#DejaVuSans-32" transform="translate(381.738281 0)"/>
       <use xlink:href="#DejaVuSans-30" transform="translate(445.361328 0)"/>
      </g>
     </g>
    </g>
    <g id="xtick_6">
     <g id="line2d_6">
      <g>
       <use xlink:href="#m0f5cefcd02" x="683.45396" y="417.875384" style="stroke: #000000; stroke-width: 0.8"/>
      </g>
     </g>
     <g id="text_6">
      <!-- 126336168 -->
      <g transform="translate(641.492697 470.738993) rotate(-45) scale(0.1 -0.1)">
       <use xlink:href="#DejaVuSans-31"/>
       <use xlink:href="#DejaVuSans-32" transform="translate(63.623047 0)"/>
       <use xlink:href="#DejaVuSans-36" transform="translate(127.246094 0)"/>
       <use xlink:href="#DejaVuSans-33" transform="translate(190.869141 0)"/>
       <use xlink:href="#DejaVuSans-33" transform="translate(254.492188 0)"/>
       <use xlink:href="#DejaVuSans-36" transform="translate(318.115234 0)"/>
       <use xlink:href="#DejaVuSans-31" transform="translate(381.738281 0)"/>
       <use xlink:href="#DejaVuSans-36" transform="translate(445.361328 0)"/>
       <use xlink:href="#DejaVuSans-38" transform="translate(508.984375 0)"/>
      </g>
     </g>
    </g>
    <g id="xtick_7">
     <g id="line2d_7">
      <g>
       <use xlink:href="#m0f5cefcd02" x="794.147433" y="417.875384" style="stroke: #000000; stroke-width: 0.8"/>
      </g>
     </g>
     <g id="text_7">
      <!-- 218413016 -->
      <g transform="translate(752.18617 470.738993) rotate(-45) scale(0.1 -0.1)">
       <use xlink:href="#DejaVuSans-32"/>
       <use xlink:href="#DejaVuSans-31" transform="translate(63.623047 0)"/>
       <use xlink:href="#DejaVuSans-38" transform="translate(127.246094 0)"/>
       <use xlink:href="#DejaVuSans-34" transform="translate(190.869141 0)"/>
       <use xlink:href="#DejaVuSans-31" transform="translate(254.492188 0)"/>
       <use xlink:href="#DejaVuSans-33" transform="translate(318.115234 0)"/>
       <use xlink:href="#DejaVuSans-30" transform="translate(381.738281 0)"/>
       <use xlink:href="#DejaVuSans-31" transform="translate(445.361328 0)"/>
       <use xlink:href="#DejaVuSans-36" transform="translate(508.984375 0)"/>
      </g>
     </g>
    </g>
    <g id="xtick_8">
     <g id="line2d_8">
      <g>
       <use xlink:href="#m0f5cefcd02" x="904.840906" y="417.875384" style="stroke: #000000; stroke-width: 0.8"/>
      </g>
     </g>
     <g id="text_8">
      <!-- 515326554 -->
      <g transform="translate(862.879643 470.738993) rotate(-45) scale(0.1 -0.1)">
       <use xlink:href="#DejaVuSans-35"/>
       <use xlink:href="#DejaVuSans-31" transform="translate(63.623047 0)"/>
       <use xlink:href="#DejaVuSans-35" transform="translate(127.246094 0)"/>
       <use xlink:href="#DejaVuSans-33" transform="translate(190.869141 0)"/>
       <use xlink:href="#DejaVuSans-32" transform="translate(254.492188 0)"/>
       <use xlink:href="#DejaVuSans-36" transform="translate(318.115234 0)"/>
       <use xlink:href="#DejaVuSans-35" transform="translate(381.738281 0)"/>
       <use xlink:href="#DejaVuSans-35" transform="translate(445.361328 0)"/>
       <use xlink:href="#DejaVuSans-34" transform="translate(508.984375 0)"/>
      </g>
     </g>
    </g>
    <g id="text_9">
     <!-- Input Size (vertices × edges) -->
     <g transform="translate(419.308125 485.327679) scale(0.12 -0.12)">
      <defs>
       <path id="DejaVuSans-Bold-49" d="M 588 4666 
L 1791 4666 
L 1791 0 
L 588 0 
L 588 4666 
z
" transform="scale(0.015625)"/>
       <path id="DejaVuSans-Bold-6e" d="M 4056 2131 
L 4056 0 
L 2931 0 
L 2931 347 
L 2931 1631 
Q 2931 2084 2911 2256 
Q 2891 2428 2841 2509 
Q 2775 2619 2662 2680 
Q 2550 2741 2406 2741 
Q 2056 2741 1856 2470 
Q 1656 2200 1656 1722 
L 1656 0 
L 538 0 
L 538 3500 
L 1656 3500 
L 1656 2988 
Q 1909 3294 2193 3439 
Q 2478 3584 2822 3584 
Q 3428 3584 3742 3212 
Q 4056 2841 4056 2131 
z
" transform="scale(0.015625)"/>
       <path id="DejaVuSans-Bold-70" d="M 1656 506 
L 1656 -1331 
L 538 -1331 
L 538 3500 
L 1656 3500 
L 1656 2988 
Q 1888 3294 2169 3439 
Q 2450 3584 2816 3584 
Q 3463 3584 3878 3070 
Q 4294 2556 4294 1747 
Q 4294 938 3878 423 
Q 3463 -91 2816 -91 
Q 2450 -91 2169 54 
Q 1888 200 1656 506 
z
M 2400 2772 
Q 2041 2772 1848 2508 
Q 1656 2244 1656 1747 
Q 1656 1250 1848 986 
Q 2041 722 2400 722 
Q 2759 722 2948 984 
Q 3138 1247 3138 1747 
Q 3138 2247 2948 2509 
Q 2759 2772 2400 2772 
z
" transform="scale(0.015625)"/>
       <path id="DejaVuSans-Bold-75" d="M 500 1363 
L 500 3500 
L 1625 3500 
L 1625 3150 
Q 1625 2866 1622 2436 
Q 1619 2006 1619 1863 
Q 1619 1441 1641 1255 
Q 1663 1069 1716 984 
Q 1784 875 1895 815 
Q 2006 756 2150 756 
Q 2500 756 2700 1025 
Q 2900 1294 2900 1772 
L 2900 3500 
L 4019 3500 
L 4019 0 
L 2900 0 
L 2900 506 
Q 2647 200 2364 54 
Q 2081 -91 1741 -91 
Q 1134 -91 817 281 
Q 500 653 500 1363 
z
" transform="scale(0.015625)"/>
       <path id="DejaVuSans-Bold-74" d="M 1759 4494 
L 1759 3500 
L 2913 3500 
L 2913 2700 
L 1759 2700 
L 1759 1216 
Q 1759 972 1856 886 
Q 1953 800 2241 800 
L 2816 800 
L 2816 0 
L 1856 0 
Q 1194 0 917 276 
Q 641 553 641 1216 
L 641 2700 
L 84 2700 
L 84 3500 
L 641 3500 
L 641 4494 
L 1759 4494 
z
" transform="scale(0.015625)"/>
       <path id="DejaVuSans-Bold-20" transform="scale(0.015625)"/>
       <path id="DejaVuSans-Bold-53" d="M 3834 4519 
L 3834 3531 
Q 3450 3703 3084 3790 
Q 2719 3878 2394 3878 
Q 1963 3878 1756 3759 
Q 1550 3641 1550 3391 
Q 1550 3203 1689 3098 
Q 1828 2994 2194 2919 
L 2706 2816 
Q 3484 2659 3812 2340 
Q 4141 2022 4141 1434 
Q 4141 663 3683 286 
Q 3225 -91 2284 -91 
Q 1841 -91 1394 -6 
Q 947 78 500 244 
L 500 1259 
Q 947 1022 1364 901 
Q 1781 781 2169 781 
Q 2563 781 2772 912 
Q 2981 1044 2981 1288 
Q 2981 1506 2839 1625 
Q 2697 1744 2272 1838 
L 1806 1941 
Q 1106 2091 782 2419 
Q 459 2747 459 3303 
Q 459 4000 909 4375 
Q 1359 4750 2203 4750 
Q 2588 4750 2994 4692 
Q 3400 4634 3834 4519 
z
" transform="scale(0.015625)"/>
       <path id="DejaVuSans-Bold-69" d="M 538 3500 
L 1656 3500 
L 1656 0 
L 538 0 
L 538 3500 
z
M 538 4863 
L 1656 4863 
L 1656 3950 
L 538 3950 
L 538 4863 
z
" transform="scale(0.015625)"/>
       <path id="DejaVuSans-Bold-7a" d="M 366 3500 
L 3419 3500 
L 3419 2719 
L 1575 800 
L 3419 800 
L 3419 0 
L 288 0 
L 288 781 
L 2131 2700 
L 366 2700 
L 366 3500 
z
" transform="scale(0.015625)"/>
       <path id="DejaVuSans-Bold-65" d="M 4031 1759 
L 4031 1441 
L 1416 1441 
Q 1456 1047 1700 850 
Q 1944 653 2381 653 
Q 2734 653 3104 758 
Q 3475 863 3866 1075 
L 3866 213 
Q 3469 63 3072 -14 
Q 2675 -91 2278 -91 
Q 1328 -91 801 392 
Q 275 875 275 1747 
Q 275 2603 792 3093 
Q 1309 3584 2216 3584 
Q 3041 3584 3536 3087 
Q 4031 2591 4031 1759 
z
M 2881 2131 
Q 2881 2450 2695 2645 
Q 2509 2841 2209 2841 
Q 1884 2841 1681 2658 
Q 1478 2475 1428 2131 
L 2881 2131 
z
" transform="scale(0.015625)"/>
       <path id="DejaVuSans-Bold-28" d="M 2413 -844 
L 1484 -844 
Q 1006 -72 778 623 
Q 550 1319 550 2003 
Q 550 2688 779 3389 
Q 1009 4091 1484 4856 
L 2413 4856 
Q 2013 4116 1813 3408 
Q 1613 2700 1613 2009 
Q 1613 1319 1811 609 
Q 2009 -100 2413 -844 
z
" transform="scale(0.015625)"/>
       <path id="DejaVuSans-Bold-76" d="M 97 3500 
L 1216 3500 
L 2088 1081 
L 2956 3500 
L 4078 3500 
L 2700 0 
L 1472 0 
L 97 3500 
z
" transform="scale(0.015625)"/>
       <path id="DejaVuSans-Bold-72" d="M 3138 2547 
Q 2991 2616 2845 2648 
Q 2700 2681 2553 2681 
Q 2122 2681 1889 2404 
Q 1656 2128 1656 1613 
L 1656 0 
L 538 0 
L 538 3500 
L 1656 3500 
L 1656 2925 
Q 1872 3269 2151 3426 
Q 2431 3584 2822 3584 
Q 2878 3584 2943 3579 
Q 3009 3575 3134 3559 
L 3138 2547 
z
" transform="scale(0.015625)"/>
       <path id="DejaVuSans-Bold-63" d="M 3366 3391 
L 3366 2478 
Q 3138 2634 2908 2709 
Q 2678 2784 2431 2784 
Q 1963 2784 1702 2511 
Q 1441 2238 1441 1747 
Q 1441 1256 1702 982 
Q 1963 709 2431 709 
Q 2694 709 2930 787 
Q 3166 866 3366 1019 
L 3366 103 
Q 3103 6 2833 -42 
Q 2563 -91 2291 -91 
Q 1344 -91 809 395 
Q 275 881 275 1747 
Q 275 2613 809 3098 
Q 1344 3584 2291 3584 
Q 2566 3584 2833 3536 
Q 3100 3488 3366 3391 
z
" transform="scale(0.015625)"/>
       <path id="DejaVuSans-Bold-73" d="M 3272 3391 
L 3272 2541 
Q 2913 2691 2578 2766 
Q 2244 2841 1947 2841 
Q 1628 2841 1473 2761 
Q 1319 2681 1319 2516 
Q 1319 2381 1436 2309 
Q 1553 2238 1856 2203 
L 2053 2175 
Q 2913 2066 3209 1816 
Q 3506 1566 3506 1031 
Q 3506 472 3093 190 
Q 2681 -91 1863 -91 
Q 1516 -91 1145 -36 
Q 775 19 384 128 
L 384 978 
Q 719 816 1070 734 
Q 1422 653 1784 653 
Q 2113 653 2278 743 
Q 2444 834 2444 1013 
Q 2444 1163 2330 1236 
Q 2216 1309 1875 1350 
L 1678 1375 
Q 931 1469 631 1722 
Q 331 1975 331 2491 
Q 331 3047 712 3315 
Q 1094 3584 1881 3584 
Q 2191 3584 2531 3537 
Q 2872 3491 3272 3391 
z
" transform="scale(0.015625)"/>
       <path id="DejaVuSans-Bold-d7" d="M 4563 3359 
L 3206 2003 
L 4563 653 
L 4038 128 
L 2681 1478 
L 1325 128 
L 800 653 
L 2156 2003 
L 800 3359 
L 1325 3884 
L 2681 2528 
L 4038 3884 
L 4563 3359 
z
" transform="scale(0.015625)"/>
       <path id="DejaVuSans-Bold-64" d="M 2919 2988 
L 2919 4863 
L 4044 4863 
L 4044 0 
L 2919 0 
L 2919 506 
Q 2688 197 2409 53 
Q 2131 -91 1766 -91 
Q 1119 -91 703 423 
Q 288 938 288 1747 
Q 288 2556 703 3070 
Q 1119 3584 1766 3584 
Q 2128 3584 2408 3439 
Q 2688 3294 2919 2988 
z
M 2181 722 
Q 2541 722 2730 984 
Q 2919 1247 2919 1747 
Q 2919 2247 2730 2509 
Q 2541 2772 2181 2772 
Q 1825 2772 1636 2509 
Q 1447 2247 1447 1747 
Q 1447 1247 1636 984 
Q 1825 722 2181 722 
z
" transform="scale(0.015625)"/>
       <path id="DejaVuSans-Bold-67" d="M 2919 594 
Q 2688 288 2409 144 
Q 2131 0 1766 0 
Q 1125 0 706 504 
Q 288 1009 288 1791 
Q 288 2575 706 3076 
Q 1125 3578 1766 3578 
Q 2131 3578 2409 3434 
Q 2688 3291 2919 2981 
L 2919 3500 
L 4044 3500 
L 4044 353 
Q 4044 -491 3511 -936 
Q 2978 -1381 1966 -1381 
Q 1638 -1381 1331 -1331 
Q 1025 -1281 716 -1178 
L 716 -306 
Q 1009 -475 1290 -558 
Q 1572 -641 1856 -641 
Q 2406 -641 2662 -400 
Q 2919 -159 2919 353 
L 2919 594 
z
M 2181 2772 
Q 1834 2772 1640 2515 
Q 1447 2259 1447 1791 
Q 1447 1309 1634 1061 
Q 1822 813 2181 813 
Q 2531 813 2725 1069 
Q 2919 1325 2919 1791 
Q 2919 2259 2725 2515 
Q 2531 2772 2181 2772 
z
" transform="scale(0.015625)"/>
       <path id="DejaVuSans-Bold-29" d="M 513 -844 
Q 913 -100 1113 609 
Q 1313 1319 1313 2009 
Q 1313 2700 1113 3408 
Q 913 4116 513 4856 
L 1441 4856 
Q 1916 4091 2145 3389 
Q 2375 2688 2375 2003 
Q 2375 1319 2147 623 
Q 1919 -72 1441 -844 
L 513 -844 
z
" transform="scale(0.015625)"/>
      </defs>
      <use xlink:href="#DejaVuSans-Bold-49"/>
      <use xlink:href="#DejaVuSans-Bold-6e" transform="translate(37.207031 0)"/>
      <use xlink:href="#DejaVuSans-Bold-70" transform="translate(108.398438 0)"/>
      <use xlink:href="#DejaVuSans-Bold-75" transform="translate(179.980469 0)"/>
      <use xlink:href="#DejaVuSans-Bold-74" transform="translate(251.171875 0)"/>
      <use xlink:href="#DejaVuSans-Bold-20" transform="translate(298.974609 0)"/>
      <use xlink:href="#DejaVuSans-Bold-53" transform="translate(333.789062 0)"/>
      <use xlink:href="#DejaVuSans-Bold-69" transform="translate(405.810547 0)"/>
      <use xlink:href="#DejaVuSans-Bold-7a" transform="translate(440.087891 0)"/>
      <use xlink:href="#DejaVuSans-Bold-65" transform="translate(498.291016 0)"/>
      <use xlink:href="#DejaVuSans-Bold-20" transform="translate(566.113281 0)"/>
      <use xlink:href="#DejaVuSans-Bold-28" transform="translate(600.927734 0)"/>
      <use xlink:href="#DejaVuSans-Bold-76" transform="translate(646.630859 0)"/>
      <use xlink:href="#DejaVuSans-Bold-65" transform="translate(711.816406 0)"/>
      <use xlink:href="#DejaVuSans-Bold-72" transform="translate(779.638672 0)"/>
      <use xlink:href="#DejaVuSans-Bold-74" transform="translate(828.955078 0)"/>
      <use xlink:href="#DejaVuSans-Bold-69" transform="translate(876.757812 0)"/>
      <use xlink:href="#DejaVuSans-Bold-63" transform="translate(911.035156 0)"/>
      <use xlink:href="#DejaVuSans-Bold-65" transform="translate(970.3125 0)"/>
      <use xlink:href="#DejaVuSans-Bold-73" transform="translate(1038.134766 0)"/>
      <use xlink:href="#DejaVuSans-Bold-20" transform="translate(1097.65625 0)"/>
      <use xlink:href="#DejaVuSans-Bold-d7" transform="translate(1132.470703 0)"/>
      <use xlink:href="#DejaVuSans-Bold-20" transform="translate(1216.259766 0)"/>
      <use xlink:href="#DejaVuSans-Bold-65" transform="translate(1251.074219 0)"/>
      <use xlink:href="#DejaVuSans-Bold-64" transform="translate(1318.896484 0)"/>
      <use xlink:href="#DejaVuSans-Bold-67" transform="translate(1390.478516 0)"/>
      <use xlink:href="#DejaVuSans-Bold-65" transform="translate(1462.060547 0)"/>
      <use xlink:href="#DejaVuSans-Bold-73" transform="translate(1529.882812 0)"/>
      <use xlink:href="#DejaVuSans-Bold-29" transform="translate(1589.404297 0)"/>
     </g>
    </g>
   </g>
   <g id="matplotlib.axis_2">
    <g id="ytick_1">
     <g id="line2d_9">
      <path d="M 42.53875 417.875384 
L 992.28875 417.875384 
" clip-path="url(#pa04f7e73e8)" style="fill: none; stroke-dasharray: 2.96,1.28; stroke-dashoffset: 0; stroke: #b0b0b0; stroke-opacity: 0.3; stroke-width: 0.8"/>
     </g>
     <g id="line2d_10">
      <defs>
       <path id="m41cdaffa64" d="M 0 0 
L -3.5 0 
" style="stroke: #000000; stroke-width: 0.8"/>
      </defs>
      <g>
       <use xlink:href="#m41cdaffa64" x="42.53875" y="417.875384" style="stroke: #000000; stroke-width: 0.8"/>
      </g>
     </g>
     <g id="text_10">
      <!-- 0 -->
      <g transform="translate(29.17625 421.674603) scale(0.1 -0.1)">
       <use xlink:href="#DejaVuSans-30"/>
      </g>
     </g>
    </g>
    <g id="ytick_2">
     <g id="line2d_11">
      <path d="M 42.53875 364.249553 
L 992.28875 364.249553 
" clip-path="url(#pa04f7e73e8)" style="fill: none; stroke-dasharray: 2.96,1.28; stroke-dashoffset: 0; stroke: #b0b0b0; stroke-opacity: 0.3; stroke-width: 0.8"/>
     </g>
     <g id="line2d_12">
      <g>
       <use xlink:href="#m41cdaffa64" x="42.53875" y="364.249553" style="stroke: #000000; stroke-width: 0.8"/>
      </g>
     </g>
     <g id="text_11">
      <!-- 2 -->
      <g transform="translate(29.17625 368.048771) scale(0.1 -0.1)">
       <use xlink:href="#DejaVuSans-32"/>
      </g>
     </g>
    </g>
    <g id="ytick_3">
     <g id="line2d_13">
      <path d="M 42.53875 310.623721 
L 992.28875 310.623721 
" clip-path="url(#pa04f7e73e8)" style="fill: none; stroke-dasharray: 2.96,1.28; stroke-dashoffset: 0; stroke: #b0b0b0; stroke-opacity: 0.3; stroke-width: 0.8"/>
     </g>
     <g id="line2d_14">
      <g>
       <use xlink:href="#m41cdaffa64" x="42.53875" y="310.623721" style="stroke: #000000; stroke-width: 0.8"/>
      </g>
     </g>
     <g id="text_12">
      <!-- 4 -->
      <g transform="translate(29.17625 314.42294) scale(0.1 -0.1)">
       <use xlink:href="#DejaVuSans-34"/>
      </g>
     </g>
    </g>
    <g id="ytick_4">
     <g id="line2d_15">
      <path d="M 42.53875 256.99789 
L 992.28875 256.99789 
" clip-path="url(#pa04f7e73e8)" style="fill: none; stroke-dasharray: 2.96,1.28; stroke-dashoffset: 0; stroke: #b0b0b0; stroke-opacity: 0.3; stroke-width: 0.8"/>
     </g>
     <g id="line2d_16">
      <g>
       <use xlink:href="#m41cdaffa64" x="42.53875" y="256.99789" style="stroke: #000000; stroke-width: 0.8"/>
      </g>
     </g>
     <g id="text_13">
      <!-- 6 -->
      <g transform="translate(29.17625 260.797109) scale(0.1 -0.1)">
       <use xlink:href="#DejaVuSans-36"/>
      </g>
     </g>
    </g>
    <g id="ytick_5">
     <g id="line2d_17">
      <path d="M 42.53875 203.372059 
L 992.28875 203.372059 
" clip-path="url(#pa04f7e73e8)" style="fill: none; stroke-dasharray: 2.96,1.28; stroke-dashoffset: 0; stroke: #b0b0b0; stroke-opacity: 0.3; stroke-width: 0.8"/>
     </g>
     <g id="line2d_18">
      <g>
       <use xlink:href="#m41cdaffa64" x="42.53875" y="203.372059" style="stroke: #000000; stroke-width: 0.8"/>
      </g>
     </g>
     <g id="text_14">
      <!-- 8 -->
      <g transform="translate(29.17625 207.171278) scale(0.1 -0.1)">
       <use xlink:href="#DejaVuSans-38"/>
      </g>
     </g>
    </g>
    <g id="ytick_6">
     <g id="line2d_19">
      <path d="M 42.53875 149.746227 
L 992.28875 149.746227 
" clip-path="url(#pa04f7e73e8)" style="fill: none; stroke-dasharray: 2.96,1.28; stroke-dashoffset: 0; stroke: #b0b0b0; stroke-opacity: 0.3; stroke-width: 0.8"/>
     </g>
     <g id="line2d_20">
      <g>
       <use xlink:href="#m41cdaffa64" x="42.53875" y="149.746227" style="stroke: #000000; stroke-width: 0.8"/>
      </g>
     </g>
     <g id="text_15">
      <!-- 10 -->
      <g transform="translate(22.81375 153.545446) scale(0.1 -0.1)">
       <use xlink:href="#DejaVuSans-31"/>
       <use xlink:href="#DejaVuSans-30" transform="translate(63.623047 0)"/>
      </g>
     </g>
    </g>
    <g id="ytick_7">
     <g id="line2d_21">
      <path d="M 42.53875 96.120396 
L 992.28875 96.120396 
" clip-path="url(#pa04f7e73e8)" style="fill: none; stroke-dasharray: 2.96,1.28; stroke-dashoffset: 0; stroke: #b0b0b0; stroke-opacity: 0.3; stroke-width: 0.8"/>
     </g>
     <g id="line2d_22">
      <g>
       <use xlink:href="#m41cdaffa64" x="42.53875" y="96.120396" style="stroke: #000000; stroke-width: 0.8"/>
      </g>
     </g>
     <g id="text_16">
      <!-- 12 -->
      <g transform="translate(22.81375 99.919615) scale(0.1 -0.1)">
       <use xlink:href="#DejaVuSans-31"/>
       <use xlink:href="#DejaVuSans-32" transform="translate(63.623047 0)"/>
      </g>
     </g>
    </g>
    <g id="ytick_8">
     <g id="line2d_23">
      <path d="M 42.53875 42.494565 
L 992.28875 42.494565 
" clip-path="url(#pa04f7e73e8)" style="fill: none; stroke-dasharray: 2.96,1.28; stroke-dashoffset: 0; stroke: #b0b0b0; stroke-opacity: 0.3; stroke-width: 0.8"/>
     </g>
     <g id="line2d_24">
      <g>
       <use xlink:href="#m41cdaffa64" x="42.53875" y="42.494565" style="stroke: #000000; stroke-width: 0.8"/>
      </g>
     </g>
     <g id="text_17">
      <!-- 14 -->
      <g transform="translate(22.81375 46.293784) scale(0.1 -0.1)">
       <use xlink:href="#DejaVuSans-31"/>
       <use xlink:href="#DejaVuSans-34" transform="translate(63.623047 0)"/>
      </g>
     </g>
    </g>
    <g id="text_18">
     <!-- Mean Runtime (seconds) -->
     <g transform="translate(16.318125 304.745036) rotate(-90) scale(0.12 -0.12)">
      <defs>
       <path id="DejaVuSans-Bold-4d" d="M 588 4666 
L 2119 4666 
L 3181 2169 
L 4250 4666 
L 5778 4666 
L 5778 0 
L 4641 0 
L 4641 3413 
L 3566 897 
L 2803 897 
L 1728 3413 
L 1728 0 
L 588 0 
L 588 4666 
z
" transform="scale(0.015625)"/>
       <path id="DejaVuSans-Bold-61" d="M 2106 1575 
Q 1756 1575 1579 1456 
Q 1403 1338 1403 1106 
Q 1403 894 1545 773 
Q 1688 653 1941 653 
Q 2256 653 2472 879 
Q 2688 1106 2688 1447 
L 2688 1575 
L 2106 1575 
z
M 3816 1997 
L 3816 0 
L 2688 0 
L 2688 519 
Q 2463 200 2181 54 
Q 1900 -91 1497 -91 
Q 953 -91 614 226 
Q 275 544 275 1050 
Q 275 1666 698 1953 
Q 1122 2241 2028 2241 
L 2688 2241 
L 2688 2328 
Q 2688 2594 2478 2717 
Q 2269 2841 1825 2841 
Q 1466 2841 1156 2769 
Q 847 2697 581 2553 
L 581 3406 
Q 941 3494 1303 3539 
Q 1666 3584 2028 3584 
Q 2975 3584 3395 3211 
Q 3816 2838 3816 1997 
z
" transform="scale(0.015625)"/>
       <path id="DejaVuSans-Bold-52" d="M 2297 2597 
Q 2675 2597 2839 2737 
Q 3003 2878 3003 3200 
Q 3003 3519 2839 3656 
Q 2675 3794 2297 3794 
L 1791 3794 
L 1791 2597 
L 2297 2597 
z
M 1791 1766 
L 1791 0 
L 588 0 
L 588 4666 
L 2425 4666 
Q 3347 4666 3776 4356 
Q 4206 4047 4206 3378 
Q 4206 2916 3982 2619 
Q 3759 2322 3309 2181 
Q 3556 2125 3751 1926 
Q 3947 1728 4147 1325 
L 4800 0 
L 3519 0 
L 2950 1159 
Q 2778 1509 2601 1637 
Q 2425 1766 2131 1766 
L 1791 1766 
z
" transform="scale(0.015625)"/>
       <path id="DejaVuSans-Bold-6d" d="M 3781 2919 
Q 3994 3244 4286 3414 
Q 4578 3584 4928 3584 
Q 5531 3584 5847 3212 
Q 6163 2841 6163 2131 
L 6163 0 
L 5038 0 
L 5038 1825 
Q 5041 1866 5042 1909 
Q 5044 1953 5044 2034 
Q 5044 2406 4934 2573 
Q 4825 2741 4581 2741 
Q 4263 2741 4089 2478 
Q 3916 2216 3909 1719 
L 3909 0 
L 2784 0 
L 2784 1825 
Q 2784 2406 2684 2573 
Q 2584 2741 2328 2741 
Q 2006 2741 1831 2477 
Q 1656 2213 1656 1722 
L 1656 0 
L 531 0 
L 531 3500 
L 1656 3500 
L 1656 2988 
Q 1863 3284 2130 3434 
Q 2397 3584 2719 3584 
Q 3081 3584 3359 3409 
Q 3638 3234 3781 2919 
z
" transform="scale(0.015625)"/>
       <path id="DejaVuSans-Bold-6f" d="M 2203 2784 
Q 1831 2784 1636 2517 
Q 1441 2250 1441 1747 
Q 1441 1244 1636 976 
Q 1831 709 2203 709 
Q 2569 709 2762 976 
Q 2956 1244 2956 1747 
Q 2956 2250 2762 2517 
Q 2569 2784 2203 2784 
z
M 2203 3584 
Q 3106 3584 3614 3096 
Q 4122 2609 4122 1747 
Q 4122 884 3614 396 
Q 3106 -91 2203 -91 
Q 1297 -91 786 396 
Q 275 884 275 1747 
Q 275 2609 786 3096 
Q 1297 3584 2203 3584 
z
" transform="scale(0.015625)"/>
      </defs>
      <use xlink:href="#DejaVuSans-Bold-4d"/>
      <use xlink:href="#DejaVuSans-Bold-65" transform="translate(99.511719 0)"/>
      <use xlink:href="#DejaVuSans-Bold-61" transform="translate(167.333984 0)"/>
      <use xlink:href="#DejaVuSans-Bold-6e" transform="translate(234.814453 0)"/>
      <use xlink:href="#DejaVuSans-Bold-20" transform="translate(306.005859 0)"/>
      <use xlink:href="#DejaVuSans-Bold-52" transform="translate(340.820312 0)"/>
      <use xlink:href="#DejaVuSans-Bold-75" transform="translate(417.822266 0)"/>
      <use xlink:href="#DejaVuSans-Bold-6e" transform="translate(489.013672 0)"/>
      <use xlink:href="#DejaVuSans-Bold-74" transform="translate(560.205078 0)"/>
      <use xlink:href="#DejaVuSans-Bold-69" transform="translate(608.007812 0)"/>
      <use xlink:href="#DejaVuSans-Bold-6d" transform="translate(642.285156 0)"/>
      <use xlink:href="#DejaVuSans-Bold-65" transform="translate(746.484375 0)"/>
      <use xlink:href="#DejaVuSans-Bold-20" transform="translate(814.306641 0)"/>
      <use xlink:href="#DejaVuSans-Bold-28" transform="translate(849.121094 0)"/>
      <use xlink:href="#DejaVuSans-Bold-73" transform="translate(894.824219 0)"/>
      <use xlink:href="#DejaVuSans-Bold-65" transform="translate(954.345703 0)"/>
      <use xlink:href="#DejaVuSans-Bold-63" transform="translate(1022.167969 0)"/>
      <use xlink:href="#DejaVuSans-Bold-6f" transform="translate(1081.445312 0)"/>
      <use xlink:href="#DejaVuSans-Bold-6e" transform="translate(1150.146484 0)"/>
      <use xlink:href="#DejaVuSans-Bold-64" transform="translate(1221.337891 0)"/>
      <use xlink:href="#DejaVuSans-Bold-73" transform="translate(1292.919922 0)"/>
      <use xlink:href="#DejaVuSans-Bold-29" transform="translate(1352.441406 0)"/>
     </g>
    </g>
   </g>
   <g id="patch_3">
    <path d="M 85.709205 417.875384 
L 174.263983 417.875384 
L 174.263983 415.968197 
L 85.709205 415.968197 
z
" clip-path="url(#pa04f7e73e8)" style="fill: #4682b4; opacity: 0.8"/>
   </g>
   <g id="patch_4">
    <path d="M 196.402678 417.875384 
L 284.957456 417.875384 
L 284.957456 414.62184 
L 196.402678 414.62184 
z
" clip-path="url(#pa04f7e73e8)" style="fill: #4682b4; opacity: 0.8"/>
   </g>
   <g id="patch_5">
    <path d="M 307.096151 417.875384 
L 395.650929 417.875384 
L 395.650929 403.926463 
L 307.096151 403.926463 
z
" clip-path="url(#pa04f7e73e8)" style="fill: #4682b4; opacity: 0.8"/>
   </g>
   <g id="patch_6">
    <path d="M 417.789624 417.875384 
L 506.344403 417.875384 
L 506.344403 373.363702 
L 417.789624 373.363702 
z
" clip-path="url(#pa04f7e73e8)" style="fill: #4682b4; opacity: 0.8"/>
   </g>
   <g id="patch_7">
    <path d="M 528.483097 417.875384 
L 617.037876 417.875384 
L 617.037876 340.532247 
L 528.483097 340.532247 
z
" clip-path="url(#pa04f7e73e8)" style="fill: #4682b4; opacity: 0.8"/>
   </g>
   <g id="patch_8">
    <path d="M 639.176571 417.875384 
L 727.731349 417.875384 
L 727.731349 281.659654 
L 639.176571 281.659654 
z
" clip-path="url(#pa04f7e73e8)" style="fill: #4682b4; opacity: 0.8"/>
   </g>
   <g id="patch_9">
    <path d="M 749.870044 417.875384 
L 838.424822 417.875384 
L 838.424822 203.757014 
L 749.870044 203.757014 
z
" clip-path="url(#pa04f7e73e8)" style="fill: #4682b4; opacity: 0.8"/>
   </g>
   <g id="patch_10">
    <path d="M 860.563517 417.875384 
L 949.118295 417.875384 
L 949.118295 42.601506 
L 860.563517 42.601506 
z
" clip-path="url(#pa04f7e73e8)" style="fill: #4682b4; opacity: 0.8"/>
   </g>
   <g id="patch_11">
    <path d="M 42.53875 417.875384 
L 42.53875 23.837812 
" style="fill: none; stroke: #000000; stroke-width: 0.8; stroke-linejoin: miter; stroke-linecap: square"/>
   </g>
   <g id="patch_12">
    <path d="M 992.28875 417.875384 
L 992.28875 23.837812 
" style="fill: none; stroke: #000000; stroke-width: 0.8; stroke-linejoin: miter; stroke-linecap: square"/>
   </g>
   <g id="patch_13">
    <path d="M 42.53875 417.875384 
L 992.28875 417.875384 
" style="fill: none; stroke: #000000; stroke-width: 0.8; stroke-linejoin: miter; stroke-linecap: square"/>
   </g>
   <g id="patch_14">
    <path d="M 42.53875 23.837812 
L 992.28875 23.837812 
" style="fill: none; stroke: #000000; stroke-width: 0.8; stroke-linejoin: miter; stroke-linecap: square"/>
   </g>
   <g id="text_19">
    <!-- 0.0711s -->
    <g transform="translate(113.906594 414.304447) scale(0.08 -0.08)">
     <defs>
      <path id="DejaVuSans-2e" d="M 684 794 
L 1344 794 
L 1344 0 
L 684 0 
L 684 794 
z
" transform="scale(0.015625)"/>
      <path id="DejaVuSans-73" d="M 2834 3397 
L 2834 2853 
Q 2591 2978 2328 3040 
Q 2066 3103 1784 3103 
Q 1356 3103 1142 2972 
Q 928 2841 928 2578 
Q 928 2378 1081 2264 
Q 1234 2150 1697 2047 
L 1894 2003 
Q 2506 1872 2764 1633 
Q 3022 1394 3022 966 
Q 3022 478 2636 193 
Q 2250 -91 1575 -91 
Q 1294 -91 989 -36 
Q 684 19 347 128 
L 347 722 
Q 666 556 975 473 
Q 1284 391 1588 391 
Q 1994 391 2212 530 
Q 2431 669 2431 922 
Q 2431 1156 2273 1281 
Q 2116 1406 1581 1522 
L 1381 1569 
Q 847 1681 609 1914 
Q 372 2147 372 2553 
Q 372 3047 722 3315 
Q 1072 3584 1716 3584 
Q 2034 3584 2315 3537 
Q 2597 3491 2834 3397 
z
" transform="scale(0.015625)"/>
     </defs>
     <use xlink:href="#DejaVuSans-30"/>
     <use xlink:href="#DejaVuSans-2e" transform="translate(63.623047 0)"/>
     <use xlink:href="#DejaVuSans-30" transform="translate(95.410156 0)"/>
     <use xlink:href="#DejaVuSans-37" transform="translate(159.033203 0)"/>
     <use xlink:href="#DejaVuSans-31" transform="translate(222.65625 0)"/>
     <use xlink:href="#DejaVuSans-31" transform="translate(286.279297 0)"/>
     <use xlink:href="#DejaVuSans-73" transform="translate(349.902344 0)"/>
    </g>
   </g>
   <g id="text_20">
    <!-- 0.1213s -->
    <g transform="translate(224.600067 412.95809) scale(0.08 -0.08)">
     <use xlink:href="#DejaVuSans-30"/>
     <use xlink:href="#DejaVuSans-2e" transform="translate(63.623047 0)"/>
     <use xlink:href="#DejaVuSans-31" transform="translate(95.410156 0)"/>
     <use xlink:href="#DejaVuSans-32" transform="translate(159.033203 0)"/>
     <use xlink:href="#DejaVuSans-31" transform="translate(222.65625 0)"/>
     <use xlink:href="#DejaVuSans-33" transform="translate(286.279297 0)"/>
     <use xlink:href="#DejaVuSans-73" transform="translate(349.902344 0)"/>
    </g>
   </g>
   <g id="text_21">
    <!-- 0.5202s -->
    <g transform="translate(335.29354 402.262713) scale(0.08 -0.08)">
     <use xlink:href="#DejaVuSans-30"/>
     <use xlink:href="#DejaVuSans-2e" transform="translate(63.623047 0)"/>
     <use xlink:href="#DejaVuSans-35" transform="translate(95.410156 0)"/>
     <use xlink:href="#DejaVuSans-32" transform="translate(159.033203 0)"/>
     <use xlink:href="#DejaVuSans-30" transform="translate(222.65625 0)"/>
     <use xlink:href="#DejaVuSans-32" transform="translate(286.279297 0)"/>
     <use xlink:href="#DejaVuSans-73" transform="translate(349.902344 0)"/>
    </g>
   </g>
   <g id="text_22">
    <!-- 1.6601s -->
    <g transform="translate(445.987013 371.699952) scale(0.08 -0.08)">
     <use xlink:href="#DejaVuSans-31"/>
     <use xlink:href="#DejaVuSans-2e" transform="translate(63.623047 0)"/>
     <use xlink:href="#DejaVuSans-36" transform="translate(95.410156 0)"/>
     <use xlink:href="#DejaVuSans-36" transform="translate(159.033203 0)"/>
     <use xlink:href="#DejaVuSans-30" transform="translate(222.65625 0)"/>
     <use xlink:href="#DejaVuSans-31" transform="translate(286.279297 0)"/>
     <use xlink:href="#DejaVuSans-73" transform="translate(349.902344 0)"/>
    </g>
   </g>
   <g id="text_23">
    <!-- 2.8845s -->
    <g transform="translate(556.680487 338.868497) scale(0.08 -0.08)">
     <use xlink:href="#DejaVuSans-32"/>
     <use xlink:href="#DejaVuSans-2e" transform="translate(63.623047 0)"/>
     <use xlink:href="#DejaVuSans-38" transform="translate(95.410156 0)"/>
     <use xlink:href="#DejaVuSans-38" transform="translate(159.033203 0)"/>
     <use xlink:href="#DejaVuSans-34" transform="translate(222.65625 0)"/>
     <use xlink:href="#DejaVuSans-35" transform="translate(286.279297 0)"/>
     <use xlink:href="#DejaVuSans-73" transform="translate(349.902344 0)"/>
    </g>
   </g>
   <g id="text_24">
    <!-- 5.0802s -->
    <g transform="translate(667.37396 279.995904) scale(0.08 -0.08)">
     <use xlink:href="#DejaVuSans-35"/>
     <use xlink:href="#DejaVuSans-2e" transform="translate(63.623047 0)"/>
     <use xlink:href="#DejaVuSans-30" transform="translate(95.410156 0)"/>
     <use xlink:href="#DejaVuSans-38" transform="translate(159.033203 0)"/>
     <use xlink:href="#DejaVuSans-30" transform="translate(222.65625 0)"/>
     <use xlink:href="#DejaVuSans-32" transform="translate(286.279297 0)"/>
     <use xlink:href="#DejaVuSans-73" transform="translate(349.902344 0)"/>
    </g>
   </g>
   <g id="text_25">
    <!-- 7.9856s -->
    <g transform="translate(778.067433 202.093264) scale(0.08 -0.08)">
     <use xlink:href="#DejaVuSans-37"/>
     <use xlink:href="#DejaVuSans-2e" transform="translate(63.623047 0)"/>
     <use xlink:href="#DejaVuSans-39" transform="translate(95.410156 0)"/>
     <use xlink:href="#DejaVuSans-38" transform="translate(159.033203 0)"/>
     <use xlink:href="#DejaVuSans-35" transform="translate(222.65625 0)"/>
     <use xlink:href="#DejaVuSans-36" transform="translate(286.279297 0)"/>
     <use xlink:href="#DejaVuSans-73" transform="translate(349.902344 0)"/>
    </g>
   </g>
   <g id="text_26">
    <!-- 13.9960s -->
    <g transform="translate(886.215906 40.937756) scale(0.08 -0.08)">
     <use xlink:href="#DejaVuSans-31"/>
     <use xlink:href="#DejaVuSans-33" transform="translate(63.623047 0)"/>
     <use xlink:href="#DejaVuSans-2e" transform="translate(127.246094 0)"/>
     <use xlink:href="#DejaVuSans-39" transform="translate(159.033203 0)"/>
     <use xlink:href="#DejaVuSans-39" transform="translate(222.65625 0)"/>
     <use xlink:href="#DejaVuSans-36" transform="translate(286.279297 0)"/>
     <use xlink:href="#DejaVuSans-30" transform="translate(349.902344 0)"/>
     <use xlink:href="#DejaVuSans-73" transform="translate(413.525391 0)"/>
    </g>
   </g>
   <g id="text_27">
    <g id="patch_15">
     <path d="M 114.736984 395.551764 
L 145.236203 395.551764 
Q 147.336203 395.551764 147.336203 393.451764 
L 147.336203 378.838608 
Q 147.336203 376.738608 145.236203 376.738608 
L 114.736984 376.738608 
Q 112.636984 376.738608 112.636984 378.838608 
L 112.636984 393.451764 
Q 112.636984 395.551764 114.736984 395.551764 
z
" style="fill: #ffffe0; opacity: 0.9; stroke: #ffa500; stroke-linejoin: miter"/>
    </g>
    <!-- n=102 -->
    <g transform="translate(118.154953 384.157514) scale(0.07 -0.07)">
     <defs>
      <path id="DejaVuSans-6e" d="M 3513 2113 
L 3513 0 
L 2938 0 
L 2938 2094 
Q 2938 2591 2744 2837 
Q 2550 3084 2163 3084 
Q 1697 3084 1428 2787 
Q 1159 2491 1159 1978 
L 1159 0 
L 581 0 
L 581 3500 
L 1159 3500 
L 1159 2956 
Q 1366 3272 1645 3428 
Q 1925 3584 2291 3584 
Q 2894 3584 3203 3211 
Q 3513 2838 3513 2113 
z
" transform="scale(0.015625)"/>
      <path id="DejaVuSans-3d" d="M 678 2906 
L 4684 2906 
L 4684 2381 
L 678 2381 
L 678 2906 
z
M 678 1631 
L 4684 1631 
L 4684 1100 
L 678 1100 
L 678 1631 
z
" transform="scale(0.015625)"/>
     </defs>
     <use xlink:href="#DejaVuSans-6e"/>
     <use xlink:href="#DejaVuSans-3d" transform="translate(63.378906 0)"/>
     <use xlink:href="#DejaVuSans-31" transform="translate(147.167969 0)"/>
     <use xlink:href="#DejaVuSans-30" transform="translate(210.791016 0)"/>
     <use xlink:href="#DejaVuSans-32" transform="translate(274.414062 0)"/>
    </g>
    <!-- m=1331 -->
    <g transform="translate(114.736984 391.995983) scale(0.07 -0.07)">
     <defs>
      <path id="DejaVuSans-6d" d="M 3328 2828 
Q 3544 3216 3844 3400 
Q 4144 3584 4550 3584 
Q 5097 3584 5394 3201 
Q 5691 2819 5691 2113 
L 5691 0 
L 5113 0 
L 5113 2094 
Q 5113 2597 4934 2840 
Q 4756 3084 4391 3084 
Q 3944 3084 3684 2787 
Q 3425 2491 3425 1978 
L 3425 0 
L 2847 0 
L 2847 2094 
Q 2847 2600 2669 2842 
Q 2491 3084 2119 3084 
Q 1678 3084 1418 2786 
Q 1159 2488 1159 1978 
L 1159 0 
L 581 0 
L 581 3500 
L 1159 3500 
L 1159 2956 
Q 1356 3278 1631 3431 
Q 1906 3584 2284 3584 
Q 2666 3584 2933 3390 
Q 3200 3197 3328 2828 
z
" transform="scale(0.015625)"/>
     </defs>
     <use xlink:href="#DejaVuSans-6d"/>
     <use xlink:href="#DejaVuSans-3d" transform="translate(97.412109 0)"/>
     <use xlink:href="#DejaVuSans-31" transform="translate(181.201172 0)"/>
     <use xlink:href="#DejaVuSans-33" transform="translate(244.824219 0)"/>
     <use xlink:href="#DejaVuSans-33" transform="translate(308.447266 0)"/>
     <use xlink:href="#DejaVuSans-31" transform="translate(372.070312 0)"/>
    </g>
   </g>
   <g id="text_28">
    <g id="patch_16">
     <path d="M 225.430458 394.205407 
L 255.929676 394.205407 
Q 258.029676 394.205407 258.029676 392.105407 
L 258.029676 377.492251 
Q 258.029676 375.392251 255.929676 375.392251 
L 225.430458 375.392251 
Q 223.330458 375.392251 223.330458 377.492251 
L 223.330458 392.105407 
Q 223.330458 394.205407 225.430458 394.205407 
z
" style="fill: #ffffe0; opacity: 0.9; stroke: #ffa500; stroke-linejoin: miter"/>
    </g>
    <!-- n=202 -->
    <g transform="translate(228.848426 382.811157) scale(0.07 -0.07)">
     <use xlink:href="#DejaVuSans-6e"/>
     <use xlink:href="#DejaVuSans-3d" transform="translate(63.378906 0)"/>
     <use xlink:href="#DejaVuSans-32" transform="translate(147.167969 0)"/>
     <use xlink:href="#DejaVuSans-30" transform="translate(210.791016 0)"/>
     <use xlink:href="#DejaVuSans-32" transform="translate(274.414062 0)"/>
    </g>
    <!-- m=5212 -->
    <g transform="translate(225.430458 390.649626) scale(0.07 -0.07)">
     <use xlink:href="#DejaVuSans-6d"/>
     <use xlink:href="#DejaVuSans-3d" transform="translate(97.412109 0)"/>
     <use xlink:href="#DejaVuSans-35" transform="translate(181.201172 0)"/>
     <use xlink:href="#DejaVuSans-32" transform="translate(244.824219 0)"/>
     <use xlink:href="#DejaVuSans-31" transform="translate(308.447266 0)"/>
     <use xlink:href="#DejaVuSans-32" transform="translate(372.070312 0)"/>
    </g>
   </g>
   <g id="text_29">
    <g id="patch_17">
     <path d="M 333.897056 383.51003 
L 368.850025 383.51003 
Q 370.950025 383.51003 370.950025 381.41003 
L 370.950025 366.796874 
Q 370.950025 364.696874 368.850025 364.696874 
L 333.897056 364.696874 
Q 331.797056 364.696874 331.797056 366.796874 
L 331.797056 381.41003 
Q 331.797056 383.51003 333.897056 383.51003 
z
" style="fill: #ffffe0; opacity: 0.9; stroke: #ffa500; stroke-linejoin: miter"/>
    </g>
    <!-- n=402 -->
    <g transform="translate(339.5419 372.11578) scale(0.07 -0.07)">
     <use xlink:href="#DejaVuSans-6e"/>
     <use xlink:href="#DejaVuSans-3d" transform="translate(63.378906 0)"/>
     <use xlink:href="#DejaVuSans-34" transform="translate(147.167969 0)"/>
     <use xlink:href="#DejaVuSans-30" transform="translate(210.791016 0)"/>
     <use xlink:href="#DejaVuSans-32" transform="translate(274.414062 0)"/>
    </g>
    <!-- m=20509 -->
    <g transform="translate(333.897056 379.954249) scale(0.07 -0.07)">
     <use xlink:href="#DejaVuSans-6d"/>
     <use xlink:href="#DejaVuSans-3d" transform="translate(97.412109 0)"/>
     <use xlink:href="#DejaVuSans-32" transform="translate(181.201172 0)"/>
     <use xlink:href="#DejaVuSans-30" transform="translate(244.824219 0)"/>
     <use xlink:href="#DejaVuSans-35" transform="translate(308.447266 0)"/>
     <use xlink:href="#DejaVuSans-30" transform="translate(372.070312 0)"/>
     <use xlink:href="#DejaVuSans-39" transform="translate(435.693359 0)"/>
    </g>
   </g>
   <g id="text_30">
    <g id="patch_18">
     <path d="M 444.590529 352.947269 
L 479.543498 352.947269 
Q 481.643498 352.947269 481.643498 350.847269 
L 481.643498 336.234113 
Q 481.643498 334.134113 479.543498 334.134113 
L 444.590529 334.134113 
Q 442.490529 334.134113 442.490529 336.234113 
L 442.490529 350.847269 
Q 442.490529 352.947269 444.590529 352.947269 
z
" style="fill: #ffffe0; opacity: 0.9; stroke: #ffa500; stroke-linejoin: miter"/>
    </g>
    <!-- n=602 -->
    <g transform="translate(450.235373 341.553019) scale(0.07 -0.07)">
     <use xlink:href="#DejaVuSans-6e"/>
     <use xlink:href="#DejaVuSans-3d" transform="translate(63.378906 0)"/>
     <use xlink:href="#DejaVuSans-36" transform="translate(147.167969 0)"/>
     <use xlink:href="#DejaVuSans-30" transform="translate(210.791016 0)"/>
     <use xlink:href="#DejaVuSans-32" transform="translate(274.414062 0)"/>
    </g>
    <!-- m=45532 -->
    <g transform="translate(444.590529 349.391488) scale(0.07 -0.07)">
     <use xlink:href="#DejaVuSans-6d"/>
     <use xlink:href="#DejaVuSans-3d" transform="translate(97.412109 0)"/>
     <use xlink:href="#DejaVuSans-34" transform="translate(181.201172 0)"/>
     <use xlink:href="#DejaVuSans-35" transform="translate(244.824219 0)"/>
     <use xlink:href="#DejaVuSans-35" transform="translate(308.447266 0)"/>
     <use xlink:href="#DejaVuSans-33" transform="translate(372.070312 0)"/>
     <use xlink:href="#DejaVuSans-32" transform="translate(435.693359 0)"/>
    </g>
   </g>
   <g id="text_31">
    <g id="patch_19">
     <path d="M 555.284002 388.610394 
L 590.236971 388.610394 
Q 592.336971 388.610394 592.336971 386.510394 
L 592.336971 371.897238 
Q 592.336971 369.797238 590.236971 369.797238 
L 555.284002 369.797238 
Q 553.184002 369.797238 553.184002 371.897238 
L 553.184002 386.510394 
Q 553.184002 388.610394 555.284002 388.610394 
z
" style="fill: #ffffe0; opacity: 0.9; stroke: #ffa500; stroke-linejoin: miter"/>
    </g>
    <!-- n=802 -->
    <g transform="translate(560.928846 377.216144) scale(0.07 -0.07)">
     <use xlink:href="#DejaVuSans-6e"/>
     <use xlink:href="#DejaVuSans-3d" transform="translate(63.378906 0)"/>
     <use xlink:href="#DejaVuSans-38" transform="translate(147.167969 0)"/>
     <use xlink:href="#DejaVuSans-30" transform="translate(210.791016 0)"/>
     <use xlink:href="#DejaVuSans-32" transform="translate(274.414062 0)"/>
    </g>
    <!-- m=80460 -->
    <g transform="translate(555.284002 385.054613) scale(0.07 -0.07)">
     <use xlink:href="#DejaVuSans-6d"/>
     <use xlink:href="#DejaVuSans-3d" transform="translate(97.412109 0)"/>
     <use xlink:href="#DejaVuSans-38" transform="translate(181.201172 0)"/>
     <use xlink:href="#DejaVuSans-30" transform="translate(244.824219 0)"/>
     <use xlink:href="#DejaVuSans-34" transform="translate(308.447266 0)"/>
     <use xlink:href="#DejaVuSans-36" transform="translate(372.070312 0)"/>
     <use xlink:href="#DejaVuSans-30" transform="translate(435.693359 0)"/>
    </g>
   </g>
   <g id="text_32">
    <g id="patch_20">
     <path d="M 663.7506 359.174097 
L 703.157319 359.174097 
Q 705.257319 359.174097 705.257319 357.074097 
L 705.257319 342.460941 
Q 705.257319 340.360941 703.157319 340.360941 
L 663.7506 340.360941 
Q 661.6506 340.360941 661.6506 342.460941 
L 661.6506 357.074097 
Q 661.6506 359.174097 663.7506 359.174097 
z
" style="fill: #ffffe0; opacity: 0.9; stroke: #ffa500; stroke-linejoin: miter"/>
    </g>
    <!-- n=1002 -->
    <g transform="translate(669.395444 347.779847) scale(0.07 -0.07)">
     <use xlink:href="#DejaVuSans-6e"/>
     <use xlink:href="#DejaVuSans-3d" transform="translate(63.378906 0)"/>
     <use xlink:href="#DejaVuSans-31" transform="translate(147.167969 0)"/>
     <use xlink:href="#DejaVuSans-30" transform="translate(210.791016 0)"/>
     <use xlink:href="#DejaVuSans-30" transform="translate(274.414062 0)"/>
     <use xlink:href="#DejaVuSans-32" transform="translate(338.037109 0)"/>
    </g>
    <!-- m=126084 -->
    <g transform="translate(663.7506 355.618316) scale(0.07 -0.07)">
     <use xlink:href="#DejaVuSans-6d"/>
     <use xlink:href="#DejaVuSans-3d" transform="translate(97.412109 0)"/>
     <use xlink:href="#DejaVuSans-31" transform="translate(181.201172 0)"/>
     <use xlink:href="#DejaVuSans-32" transform="translate(244.824219 0)"/>
     <use xlink:href="#DejaVuSans-36" transform="translate(308.447266 0)"/>
     <use xlink:href="#DejaVuSans-30" transform="translate(372.070312 0)"/>
     <use xlink:href="#DejaVuSans-38" transform="translate(435.693359 0)"/>
     <use xlink:href="#DejaVuSans-34" transform="translate(499.316406 0)"/>
    </g>
   </g>
   <g id="text_33">
    <g id="patch_21">
     <path d="M 774.444074 320.222777 
L 813.850792 320.222777 
Q 815.950792 320.222777 815.950792 318.122777 
L 815.950792 303.509621 
Q 815.950792 301.409621 813.850792 301.409621 
L 774.444074 301.409621 
Q 772.344074 301.409621 772.344074 303.509621 
L 772.344074 318.122777 
Q 772.344074 320.222777 774.444074 320.222777 
z
" style="fill: #ffffe0; opacity: 0.9; stroke: #ffa500; stroke-linejoin: miter"/>
    </g>
    <!-- n=1202 -->
    <g transform="translate(780.088917 308.828527) scale(0.07 -0.07)">
     <use xlink:href="#DejaVuSans-6e"/>
     <use xlink:href="#DejaVuSans-3d" transform="translate(63.378906 0)"/>
     <use xlink:href="#DejaVuSans-31" transform="translate(147.167969 0)"/>
     <use xlink:href="#DejaVuSans-32" transform="translate(210.791016 0)"/>
     <use xlink:href="#DejaVuSans-30" transform="translate(274.414062 0)"/>
     <use xlink:href="#DejaVuSans-32" transform="translate(338.037109 0)"/>
    </g>
    <!-- m=181708 -->
    <g transform="translate(774.444074 316.666996) scale(0.07 -0.07)">
     <use xlink:href="#DejaVuSans-6d"/>
     <use xlink:href="#DejaVuSans-3d" transform="translate(97.412109 0)"/>
     <use xlink:href="#DejaVuSans-31" transform="translate(181.201172 0)"/>
     <use xlink:href="#DejaVuSans-38" transform="translate(244.824219 0)"/>
     <use xlink:href="#DejaVuSans-31" transform="translate(308.447266 0)"/>
     <use xlink:href="#DejaVuSans-37" transform="translate(372.070312 0)"/>
     <use xlink:href="#DejaVuSans-30" transform="translate(435.693359 0)"/>
     <use xlink:href="#DejaVuSans-38" transform="translate(499.316406 0)"/>
    </g>
   </g>
   <g id="text_34">
    <g id="patch_22">
     <path d="M 885.137547 239.645023 
L 924.544266 239.645023 
Q 926.644266 239.645023 926.644266 237.545023 
L 926.644266 222.931867 
Q 926.644266 220.831867 924.544266 220.831867 
L 885.137547 220.831867 
Q 883.037547 220.831867 883.037547 222.931867 
L 883.037547 237.545023 
Q 883.037547 239.645023 885.137547 239.645023 
z
" style="fill: #ffffe0; opacity: 0.9; stroke: #ffa500; stroke-linejoin: miter"/>
    </g>
    <!-- n=1602 -->
    <g transform="translate(890.782391 228.250773) scale(0.07 -0.07)">
     <use xlink:href="#DejaVuSans-6e"/>
     <use xlink:href="#DejaVuSans-3d" transform="translate(63.378906 0)"/>
     <use xlink:href="#DejaVuSans-31" transform="translate(147.167969 0)"/>
     <use xlink:href="#DejaVuSans-36" transform="translate(210.791016 0)"/>
     <use xlink:href="#DejaVuSans-30" transform="translate(274.414062 0)"/>
     <use xlink:href="#DejaVuSans-32" transform="translate(338.037109 0)"/>
    </g>
    <!-- m=321677 -->
    <g transform="translate(885.137547 236.089242) scale(0.07 -0.07)">
     <use xlink:href="#DejaVuSans-6d"/>
     <use xlink:href="#DejaVuSans-3d" transform="translate(97.412109 0)"/>
     <use xlink:href="#DejaVuSans-33" transform="translate(181.201172 0)"/>
     <use xlink:href="#DejaVuSans-32" transform="translate(244.824219 0)"/>
     <use xlink:href="#DejaVuSans-31" transform="translate(308.447266 0)"/>
     <use xlink:href="#DejaVuSans-36" transform="translate(372.070312 0)"/>
     <use xlink:href="#DejaVuSans-37" transform="translate(435.693359 0)"/>
     <use xlink:href="#DejaVuSans-37" transform="translate(499.316406 0)"/>
    </g>
   </g>
   <g id="text_35">
    <g id="patch_23">
     <path d="M 114.591438 357.124377 
L 145.38175 357.124377 
Q 146.58175 357.124377 146.58175 355.924377 
L 146.58175 350.117502 
Q 146.58175 348.917502 145.38175 348.917502 
L 114.591438 348.917502 
Q 113.391438 348.917502 113.391438 350.117502 
L 113.391438 355.924377 
Q 113.391438 357.124377 114.591438 357.124377 
z
" style="fill: #006400; opacity: 0.9; stroke: #000000; stroke-linejoin: miter"/>
    </g>
    <!-- f=23,224 -->
    <g style="fill: #ffffff" transform="translate(114.591438 354.676564) scale(0.06 -0.06)">
     <defs>
      <path id="DejaVuSans-Bold-66" d="M 2841 4863 
L 2841 4128 
L 2222 4128 
Q 1984 4128 1890 4042 
Q 1797 3956 1797 3744 
L 1797 3500 
L 2753 3500 
L 2753 2700 
L 1797 2700 
L 1797 0 
L 678 0 
L 678 2700 
L 122 2700 
L 122 3500 
L 678 3500 
L 678 3744 
Q 678 4316 997 4589 
Q 1316 4863 1984 4863 
L 2841 4863 
z
" transform="scale(0.015625)"/>
      <path id="DejaVuSans-Bold-3d" d="M 678 3084 
L 4684 3084 
L 4684 2350 
L 678 2350 
L 678 3084 
z
M 678 1663 
L 4684 1663 
L 4684 922 
L 678 922 
L 678 1663 
z
" transform="scale(0.015625)"/>
      <path id="DejaVuSans-Bold-32" d="M 1844 884 
L 3897 884 
L 3897 0 
L 506 0 
L 506 884 
L 2209 2388 
Q 2438 2594 2547 2791 
Q 2656 2988 2656 3200 
Q 2656 3528 2436 3728 
Q 2216 3928 1850 3928 
Q 1569 3928 1234 3808 
Q 900 3688 519 3450 
L 519 4475 
Q 925 4609 1322 4679 
Q 1719 4750 2100 4750 
Q 2938 4750 3402 4381 
Q 3866 4013 3866 3353 
Q 3866 2972 3669 2642 
Q 3472 2313 2841 1759 
L 1844 884 
z
" transform="scale(0.015625)"/>
      <path id="DejaVuSans-Bold-33" d="M 2981 2516 
Q 3453 2394 3698 2092 
Q 3944 1791 3944 1325 
Q 3944 631 3412 270 
Q 2881 -91 1863 -91 
Q 1503 -91 1142 -33 
Q 781 25 428 141 
L 428 1069 
Q 766 900 1098 814 
Q 1431 728 1753 728 
Q 2231 728 2486 893 
Q 2741 1059 2741 1369 
Q 2741 1688 2480 1852 
Q 2219 2016 1709 2016 
L 1228 2016 
L 1228 2791 
L 1734 2791 
Q 2188 2791 2409 2933 
Q 2631 3075 2631 3366 
Q 2631 3634 2415 3781 
Q 2200 3928 1806 3928 
Q 1516 3928 1219 3862 
Q 922 3797 628 3669 
L 628 4550 
Q 984 4650 1334 4700 
Q 1684 4750 2022 4750 
Q 2931 4750 3382 4451 
Q 3834 4153 3834 3553 
Q 3834 3144 3618 2883 
Q 3403 2622 2981 2516 
z
" transform="scale(0.015625)"/>
      <path id="DejaVuSans-Bold-2c" d="M 653 1209 
L 1778 1209 
L 1778 256 
L 1006 -909 
L 341 -909 
L 653 256 
L 653 1209 
z
" transform="scale(0.015625)"/>
      <path id="DejaVuSans-Bold-34" d="M 2356 3675 
L 1038 1722 
L 2356 1722 
L 2356 3675 
z
M 2156 4666 
L 3494 4666 
L 3494 1722 
L 4159 1722 
L 4159 850 
L 3494 850 
L 3494 0 
L 2356 0 
L 2356 850 
L 288 850 
L 288 1881 
L 2156 4666 
z
" transform="scale(0.015625)"/>
     </defs>
     <use xlink:href="#DejaVuSans-Bold-66"/>
     <use xlink:href="#DejaVuSans-Bold-3d" transform="translate(43.505859 0)"/>
     <use xlink:href="#DejaVuSans-Bold-32" transform="translate(127.294922 0)"/>
     <use xlink:href="#DejaVuSans-Bold-33" transform="translate(196.875 0)"/>
     <use xlink:href="#DejaVuSans-Bold-2c" transform="translate(266.455078 0)"/>
     <use xlink:href="#DejaVuSans-Bold-32" transform="translate(304.443359 0)"/>
     <use xlink:href="#DejaVuSans-Bold-32" transform="translate(374.023438 0)"/>
     <use xlink:href="#DejaVuSans-Bold-34" transform="translate(443.603516 0)"/>
    </g>
   </g>
   <g id="text_36">
    <g id="patch_24">
     <path d="M 225.284911 355.77802 
L 256.075223 355.77802 
Q 257.275223 355.77802 257.275223 354.57802 
L 257.275223 348.771145 
Q 257.275223 347.571145 256.075223 347.571145 
L 225.284911 347.571145 
Q 224.084911 347.571145 224.084911 348.771145 
L 224.084911 354.57802 
Q 224.084911 355.77802 225.284911 355.77802 
z
" style="fill: #006400; opacity: 0.9; stroke: #000000; stroke-linejoin: miter"/>
    </g>
    <!-- f=43,384 -->
    <g style="fill: #ffffff" transform="translate(225.284911 353.330207) scale(0.06 -0.06)">
     <defs>
      <path id="DejaVuSans-Bold-38" d="M 2228 2088 
Q 1891 2088 1709 1903 
Q 1528 1719 1528 1375 
Q 1528 1031 1709 848 
Q 1891 666 2228 666 
Q 2563 666 2741 848 
Q 2919 1031 2919 1375 
Q 2919 1722 2741 1905 
Q 2563 2088 2228 2088 
z
M 1350 2484 
Q 925 2613 709 2878 
Q 494 3144 494 3541 
Q 494 4131 934 4440 
Q 1375 4750 2228 4750 
Q 3075 4750 3515 4442 
Q 3956 4134 3956 3541 
Q 3956 3144 3739 2878 
Q 3522 2613 3097 2484 
Q 3572 2353 3814 2058 
Q 4056 1763 4056 1313 
Q 4056 619 3595 264 
Q 3134 -91 2228 -91 
Q 1319 -91 855 264 
Q 391 619 391 1313 
Q 391 1763 633 2058 
Q 875 2353 1350 2484 
z
M 1631 3419 
Q 1631 3141 1786 2991 
Q 1941 2841 2228 2841 
Q 2509 2841 2662 2991 
Q 2816 3141 2816 3419 
Q 2816 3697 2662 3845 
Q 2509 3994 2228 3994 
Q 1941 3994 1786 3844 
Q 1631 3694 1631 3419 
z
" transform="scale(0.015625)"/>
     </defs>
     <use xlink:href="#DejaVuSans-Bold-66"/>
     <use xlink:href="#DejaVuSans-Bold-3d" transform="translate(43.505859 0)"/>
     <use xlink:href="#DejaVuSans-Bold-34" transform="translate(127.294922 0)"/>
     <use xlink:href="#DejaVuSans-Bold-33" transform="translate(196.875 0)"/>
     <use xlink:href="#DejaVuSans-Bold-2c" transform="translate(266.455078 0)"/>
     <use xlink:href="#DejaVuSans-Bold-33" transform="translate(304.443359 0)"/>
     <use xlink:href="#DejaVuSans-Bold-38" transform="translate(374.023438 0)"/>
     <use xlink:href="#DejaVuSans-Bold-34" transform="translate(443.603516 0)"/>
    </g>
   </g>
   <g id="text_37">
    <g id="patch_25">
     <path d="M 335.978384 345.082642 
L 366.768696 345.082642 
Q 367.968696 345.082642 367.968696 343.882642 
L 367.968696 338.075767 
Q 367.968696 336.875767 366.768696 336.875767 
L 335.978384 336.875767 
Q 334.778384 336.875767 334.778384 338.075767 
L 334.778384 343.882642 
Q 334.778384 345.082642 335.978384 345.082642 
z
" style="fill: #006400; opacity: 0.9; stroke: #000000; stroke-linejoin: miter"/>
    </g>
    <!-- f=96,982 -->
    <g style="fill: #ffffff" transform="translate(335.978384 342.63483) scale(0.06 -0.06)">
     <defs>
      <path id="DejaVuSans-Bold-39" d="M 641 103 
L 641 966 
Q 928 831 1190 764 
Q 1453 697 1709 697 
Q 2247 697 2547 995 
Q 2847 1294 2900 1881 
Q 2688 1725 2447 1647 
Q 2206 1569 1925 1569 
Q 1209 1569 770 1986 
Q 331 2403 331 3084 
Q 331 3838 820 4291 
Q 1309 4744 2131 4744 
Q 3044 4744 3544 4128 
Q 4044 3513 4044 2388 
Q 4044 1231 3459 570 
Q 2875 -91 1856 -91 
Q 1528 -91 1228 -42 
Q 928 6 641 103 
z
M 2125 2350 
Q 2441 2350 2600 2554 
Q 2759 2759 2759 3169 
Q 2759 3575 2600 3781 
Q 2441 3988 2125 3988 
Q 1809 3988 1650 3781 
Q 1491 3575 1491 3169 
Q 1491 2759 1650 2554 
Q 1809 2350 2125 2350 
z
" transform="scale(0.015625)"/>
      <path id="DejaVuSans-Bold-36" d="M 2316 2303 
Q 2000 2303 1842 2098 
Q 1684 1894 1684 1484 
Q 1684 1075 1842 870 
Q 2000 666 2316 666 
Q 2634 666 2792 870 
Q 2950 1075 2950 1484 
Q 2950 1894 2792 2098 
Q 2634 2303 2316 2303 
z
M 3803 4544 
L 3803 3681 
Q 3506 3822 3243 3889 
Q 2981 3956 2731 3956 
Q 2194 3956 1894 3657 
Q 1594 3359 1544 2772 
Q 1750 2925 1990 3001 
Q 2231 3078 2516 3078 
Q 3231 3078 3670 2659 
Q 4109 2241 4109 1563 
Q 4109 813 3618 361 
Q 3128 -91 2303 -91 
Q 1394 -91 895 523 
Q 397 1138 397 2266 
Q 397 3422 980 4083 
Q 1563 4744 2578 4744 
Q 2900 4744 3203 4694 
Q 3506 4644 3803 4544 
z
" transform="scale(0.015625)"/>
     </defs>
     <use xlink:href="#DejaVuSans-Bold-66"/>
     <use xlink:href="#DejaVuSans-Bold-3d" transform="translate(43.505859 0)"/>
     <use xlink:href="#DejaVuSans-Bold-39" transform="translate(127.294922 0)"/>
     <use xlink:href="#DejaVuSans-Bold-36" transform="translate(196.875 0)"/>
     <use xlink:href="#DejaVuSans-Bold-2c" transform="translate(266.455078 0)"/>
     <use xlink:href="#DejaVuSans-Bold-39" transform="translate(304.443359 0)"/>
     <use xlink:href="#DejaVuSans-Bold-38" transform="translate(374.023438 0)"/>
     <use xlink:href="#DejaVuSans-Bold-32" transform="translate(443.603516 0)"/>
    </g>
   </g>
   <g id="text_38">
    <g id="patch_26">
     <path d="M 444.584513 314.519881 
L 479.549513 314.519881 
Q 480.749513 314.519881 480.749513 313.319881 
L 480.749513 307.513006 
Q 480.749513 306.313006 479.549513 306.313006 
L 444.584513 306.313006 
Q 443.384513 306.313006 443.384513 307.513006 
L 443.384513 313.319881 
Q 443.384513 314.519881 444.584513 314.519881 
z
" style="fill: #006400; opacity: 0.9; stroke: #000000; stroke-linejoin: miter"/>
    </g>
    <!-- f=145,336 -->
    <g style="fill: #ffffff" transform="translate(444.584513 312.072069) scale(0.06 -0.06)">
     <defs>
      <path id="DejaVuSans-Bold-31" d="M 750 831 
L 1813 831 
L 1813 3847 
L 722 3622 
L 722 4441 
L 1806 4666 
L 2950 4666 
L 2950 831 
L 4013 831 
L 4013 0 
L 750 0 
L 750 831 
z
" transform="scale(0.015625)"/>
      <path id="DejaVuSans-Bold-35" d="M 678 4666 
L 3669 4666 
L 3669 3781 
L 1638 3781 
L 1638 3059 
Q 1775 3097 1914 3117 
Q 2053 3138 2203 3138 
Q 3056 3138 3531 2711 
Q 4006 2284 4006 1522 
Q 4006 766 3489 337 
Q 2972 -91 2053 -91 
Q 1656 -91 1267 -14 
Q 878 63 494 219 
L 494 1166 
Q 875 947 1217 837 
Q 1559 728 1863 728 
Q 2300 728 2551 942 
Q 2803 1156 2803 1522 
Q 2803 1891 2551 2103 
Q 2300 2316 1863 2316 
Q 1603 2316 1309 2248 
Q 1016 2181 678 2041 
L 678 4666 
z
" transform="scale(0.015625)"/>
     </defs>
     <use xlink:href="#DejaVuSans-Bold-66"/>
     <use xlink:href="#DejaVuSans-Bold-3d" transform="translate(43.505859 0)"/>
     <use xlink:href="#DejaVuSans-Bold-31" transform="translate(127.294922 0)"/>
     <use xlink:href="#DejaVuSans-Bold-34" transform="translate(196.875 0)"/>
     <use xlink:href="#DejaVuSans-Bold-35" transform="translate(266.455078 0)"/>
     <use xlink:href="#DejaVuSans-Bold-2c" transform="translate(336.035156 0)"/>
     <use xlink:href="#DejaVuSans-Bold-33" transform="translate(374.023438 0)"/>
     <use xlink:href="#DejaVuSans-Bold-33" transform="translate(443.603516 0)"/>
     <use xlink:href="#DejaVuSans-Bold-36" transform="translate(513.183594 0)"/>
    </g>
   </g>
   <g id="text_39">
    <g id="patch_27">
     <path d="M 555.277987 416.232601 
L 590.242987 416.232601 
Q 591.442987 416.232601 591.442987 415.032601 
L 591.442987 409.225726 
Q 591.442987 408.025726 590.242987 408.025726 
L 555.277987 408.025726 
Q 554.077987 408.025726 554.077987 409.225726 
L 554.077987 415.032601 
Q 554.077987 416.232601 555.277987 416.232601 
z
" style="fill: #006400; opacity: 0.9; stroke: #000000; stroke-linejoin: miter"/>
    </g>
    <!-- f=194,060 -->
    <g style="fill: #ffffff" transform="translate(555.277987 413.784788) scale(0.06 -0.06)">
     <defs>
      <path id="DejaVuSans-Bold-30" d="M 2944 2338 
Q 2944 3213 2780 3570 
Q 2616 3928 2228 3928 
Q 1841 3928 1675 3570 
Q 1509 3213 1509 2338 
Q 1509 1453 1675 1090 
Q 1841 728 2228 728 
Q 2613 728 2778 1090 
Q 2944 1453 2944 2338 
z
M 4147 2328 
Q 4147 1169 3647 539 
Q 3147 -91 2228 -91 
Q 1306 -91 806 539 
Q 306 1169 306 2328 
Q 306 3491 806 4120 
Q 1306 4750 2228 4750 
Q 3147 4750 3647 4120 
Q 4147 3491 4147 2328 
z
" transform="scale(0.015625)"/>
     </defs>
     <use xlink:href="#DejaVuSans-Bold-66"/>
     <use xlink:href="#DejaVuSans-Bold-3d" transform="translate(43.505859 0)"/>
     <use xlink:href="#DejaVuSans-Bold-31" transform="translate(127.294922 0)"/>
     <use xlink:href="#DejaVuSans-Bold-39" transform="translate(196.875 0)"/>
     <use xlink:href="#DejaVuSans-Bold-34" transform="translate(266.455078 0)"/>
     <use xlink:href="#DejaVuSans-Bold-2c" transform="translate(336.035156 0)"/>
     <use xlink:href="#DejaVuSans-Bold-30" transform="translate(374.023438 0)"/>
     <use xlink:href="#DejaVuSans-Bold-36" transform="translate(443.603516 0)"/>
     <use xlink:href="#DejaVuSans-Bold-30" transform="translate(513.183594 0)"/>
    </g>
   </g>
   <g id="text_40">
    <g id="patch_28">
     <path d="M 665.97146 386.796304 
L 700.93646 386.796304 
Q 702.13646 386.796304 702.13646 385.596304 
L 702.13646 379.789429 
Q 702.13646 378.589429 700.93646 378.589429 
L 665.97146 378.589429 
Q 664.77146 378.589429 664.77146 379.789429 
L 664.77146 385.596304 
Q 664.77146 386.796304 665.97146 386.796304 
z
" style="fill: #006400; opacity: 0.9; stroke: #000000; stroke-linejoin: miter"/>
    </g>
    <!-- f=235,464 -->
    <g style="fill: #ffffff" transform="translate(665.97146 384.348492) scale(0.06 -0.06)">
     <use xlink:href="#DejaVuSans-Bold-66"/>
     <use xlink:href="#DejaVuSans-Bold-3d" transform="translate(43.505859 0)"/>
     <use xlink:href="#DejaVuSans-Bold-32" transform="translate(127.294922 0)"/>
     <use xlink:href="#DejaVuSans-Bold-33" transform="translate(196.875 0)"/>
     <use xlink:href="#DejaVuSans-Bold-35" transform="translate(266.455078 0)"/>
     <use xlink:href="#DejaVuSans-Bold-2c" transform="translate(336.035156 0)"/>
     <use xlink:href="#DejaVuSans-Bold-34" transform="translate(374.023438 0)"/>
     <use xlink:href="#DejaVuSans-Bold-36" transform="translate(443.603516 0)"/>
     <use xlink:href="#DejaVuSans-Bold-34" transform="translate(513.183594 0)"/>
    </g>
   </g>
   <g id="text_41">
    <g id="patch_29">
     <path d="M 776.664933 347.844984 
L 811.629933 347.844984 
Q 812.829933 347.844984 812.829933 346.644984 
L 812.829933 340.838109 
Q 812.829933 339.638109 811.629933 339.638109 
L 776.664933 339.638109 
Q 775.464933 339.638109 775.464933 340.838109 
L 775.464933 346.644984 
Q 775.464933 347.844984 776.664933 347.844984 
z
" style="fill: #006400; opacity: 0.9; stroke: #000000; stroke-linejoin: miter"/>
    </g>
    <!-- f=288,785 -->
    <g style="fill: #ffffff" transform="translate(776.664933 345.397171) scale(0.06 -0.06)">
     <defs>
      <path id="DejaVuSans-Bold-37" d="M 428 4666 
L 3944 4666 
L 3944 3988 
L 2125 0 
L 953 0 
L 2675 3781 
L 428 3781 
L 428 4666 
z
" transform="scale(0.015625)"/>
     </defs>
     <use xlink:href="#DejaVuSans-Bold-66"/>
     <use xlink:href="#DejaVuSans-Bold-3d" transform="translate(43.505859 0)"/>
     <use xlink:href="#DejaVuSans-Bold-32" transform="translate(127.294922 0)"/>
     <use xlink:href="#DejaVuSans-Bold-38" transform="translate(196.875 0)"/>
     <use xlink:href="#DejaVuSans-Bold-38" transform="translate(266.455078 0)"/>
     <use xlink:href="#DejaVuSans-Bold-2c" transform="translate(336.035156 0)"/>
     <use xlink:href="#DejaVuSans-Bold-37" transform="translate(374.023438 0)"/>
     <use xlink:href="#DejaVuSans-Bold-38" transform="translate(443.603516 0)"/>
     <use xlink:href="#DejaVuSans-Bold-35" transform="translate(513.183594 0)"/>
    </g>
   </g>
   <g id="text_42">
    <g id="patch_30">
     <path d="M 887.358406 267.26723 
L 922.323406 267.26723 
Q 923.523406 267.26723 923.523406 266.06723 
L 923.523406 260.260355 
Q 923.523406 259.060355 922.323406 259.060355 
L 887.358406 259.060355 
Q 886.158406 259.060355 886.158406 260.260355 
L 886.158406 266.06723 
Q 886.158406 267.26723 887.358406 267.26723 
z
" style="fill: #006400; opacity: 0.9; stroke: #000000; stroke-linejoin: miter"/>
    </g>
    <!-- f=390,404 -->
    <g style="fill: #ffffff" transform="translate(887.358406 264.819418) scale(0.06 -0.06)">
     <use xlink:href="#DejaVuSans-Bold-66"/>
     <use xlink:href="#DejaVuSans-Bold-3d" transform="translate(43.505859 0)"/>
     <use xlink:href="#DejaVuSans-Bold-33" transform="translate(127.294922 0)"/>
     <use xlink:href="#DejaVuSans-Bold-39" transform="translate(196.875 0)"/>
     <use xlink:href="#DejaVuSans-Bold-30" transform="translate(266.455078 0)"/>
     <use xlink:href="#DejaVuSans-Bold-2c" transform="translate(336.035156 0)"/>
     <use xlink:href="#DejaVuSans-Bold-34" transform="translate(374.023438 0)"/>
     <use xlink:href="#DejaVuSans-Bold-30" transform="translate(443.603516 0)"/>
     <use xlink:href="#DejaVuSans-Bold-34" transform="translate(513.183594 0)"/>
    </g>
   </g>
   <g id="text_43">
    <!-- Ford Fulkerson - Bipartite - Mean Runtime vs Input Size (n×m) -->
    <g transform="translate(271.231406 17.837812) scale(0.14 -0.14)">
     <defs>
      <path id="DejaVuSans-Bold-46" d="M 588 4666 
L 3834 4666 
L 3834 3756 
L 1791 3756 
L 1791 2888 
L 3713 2888 
L 3713 1978 
L 1791 1978 
L 1791 0 
L 588 0 
L 588 4666 
z
" transform="scale(0.015625)"/>
      <path id="DejaVuSans-Bold-6c" d="M 538 4863 
L 1656 4863 
L 1656 0 
L 538 0 
L 538 4863 
z
" transform="scale(0.015625)"/>
      <path id="DejaVuSans-Bold-6b" d="M 538 4863 
L 1656 4863 
L 1656 2216 
L 2944 3500 
L 4244 3500 
L 2534 1894 
L 4378 0 
L 3022 0 
L 1656 1459 
L 1656 0 
L 538 0 
L 538 4863 
z
" transform="scale(0.015625)"/>
      <path id="DejaVuSans-Bold-2d" d="M 347 2297 
L 2309 2297 
L 2309 1388 
L 347 1388 
L 347 2297 
z
" transform="scale(0.015625)"/>
      <path id="DejaVuSans-Bold-42" d="M 2456 2859 
Q 2741 2859 2887 2984 
Q 3034 3109 3034 3353 
Q 3034 3594 2887 3720 
Q 2741 3847 2456 3847 
L 1791 3847 
L 1791 2859 
L 2456 2859 
z
M 2497 819 
Q 2859 819 3042 972 
Q 3225 1125 3225 1434 
Q 3225 1738 3044 1889 
Q 2863 2041 2497 2041 
L 1791 2041 
L 1791 819 
L 2497 819 
z
M 3616 2497 
Q 4003 2384 4215 2081 
Q 4428 1778 4428 1338 
Q 4428 663 3972 331 
Q 3516 0 2584 0 
L 588 0 
L 588 4666 
L 2394 4666 
Q 3366 4666 3802 4372 
Q 4238 4078 4238 3431 
Q 4238 3091 4078 2852 
Q 3919 2613 3616 2497 
z
" transform="scale(0.015625)"/>
     </defs>
     <use xlink:href="#DejaVuSans-Bold-46"/>
     <use xlink:href="#DejaVuSans-Bold-6f" transform="translate(64.310547 0)"/>
     <use xlink:href="#DejaVuSans-Bold-72" transform="translate(133.011719 0)"/>
     <use xlink:href="#DejaVuSans-Bold-64" transform="translate(182.328125 0)"/>
     <use xlink:href="#DejaVuSans-Bold-20" transform="translate(253.910156 0)"/>
     <use xlink:href="#DejaVuSans-Bold-46" transform="translate(288.724609 0)"/>
     <use xlink:href="#DejaVuSans-Bold-75" transform="translate(352.035156 0)"/>
     <use xlink:href="#DejaVuSans-Bold-6c" transform="translate(423.226562 0)"/>
     <use xlink:href="#DejaVuSans-Bold-6b" transform="translate(457.503906 0)"/>
     <use xlink:href="#DejaVuSans-Bold-65" transform="translate(521.382812 0)"/>
     <use xlink:href="#DejaVuSans-Bold-72" transform="translate(589.205078 0)"/>
     <use xlink:href="#DejaVuSans-Bold-73" transform="translate(638.521484 0)"/>
     <use xlink:href="#DejaVuSans-Bold-6f" transform="translate(698.042969 0)"/>
     <use xlink:href="#DejaVuSans-Bold-6e" transform="translate(766.744141 0)"/>
     <use xlink:href="#DejaVuSans-Bold-20" transform="translate(837.935547 0)"/>
     <use xlink:href="#DejaVuSans-Bold-2d" transform="translate(872.75 0)"/>
     <use xlink:href="#DejaVuSans-Bold-20" transform="translate(914.253906 0)"/>
     <use xlink:href="#DejaVuSans-Bold-42" transform="translate(949.068359 0)"/>
     <use xlink:href="#DejaVuSans-Bold-69" transform="translate(1025.289062 0)"/>
     <use xlink:href="#DejaVuSans-Bold-70" transform="translate(1059.566406 0)"/>
     <use xlink:href="#DejaVuSans-Bold-61" transform="translate(1131.148438 0)"/>
     <use xlink:href="#DejaVuSans-Bold-72" transform="translate(1198.628906 0)"/>
     <use xlink:href="#DejaVuSans-Bold-74" transform="translate(1247.945312 0)"/>
     <use xlink:href="#DejaVuSans-Bold-69" transform="translate(1295.748047 0)"/>
     <use xlink:href="#DejaVuSans-Bold-74" transform="translate(1330.025391 0)"/>
     <use xlink:href="#DejaVuSans-Bold-65" transform="translate(1377.828125 0)"/>
     <use xlink:href="#DejaVuSans-Bold-20" transform="translate(1445.650391 0)"/>
     <use xlink:href="#DejaVuSans-Bold-2d" transform="translate(1480.464844 0)"/>
     <use xlink:href="#DejaVuSans-Bold-20" transform="translate(1521.96875 0)"/>
     <use xlink:href="#DejaVuSans-Bold-4d" transform="translate(1556.783203 0)"/>
     <use xlink:href="#DejaVuSans-Bold-65" transform="translate(1656.294922 0)"/>
     <use xlink:href="#DejaVuSans-Bold-61" transform="translate(1724.117188 0)"/>
     <use xlink:href="#DejaVuSans-Bold-6e" transform="translate(1791.597656 0)"/>
     <use xlink:href="#DejaVuSans-Bold-20" transform="translate(1862.789062 0)"/>
     <use xlink:href="#DejaVuSans-Bold-52" transform="translate(1897.603516 0)"/>
     <use xlink:href="#DejaVuSans-Bold-75" transform="translate(1974.605469 0)"/>
     <use xlink:href="#DejaVuSans-Bold-6e" transform="translate(2045.796875 0)"/>
     <use xlink:href="#DejaVuSans-Bold-74" transform="translate(2116.988281 0)"/>
     <use xlink:href="#DejaVuSans-Bold-69" transform="translate(2164.791016 0)"/>
     <use xlink:href="#DejaVuSans-Bold-6d" transform="translate(2199.068359 0)"/>
     <use xlink:href="#DejaVuSans-Bold-65" transform="translate(2303.267578 0)"/>
     <use xlink:href="#DejaVuSans-Bold-20" transform="translate(2371.089844 0)"/>
     <use xlink:href="#DejaVuSans-Bold-76" transform="translate(2405.904297 0)"/>
     <use xlink:href="#DejaVuSans-Bold-73" transform="translate(2471.089844 0)"/>
     <use xlink:href="#DejaVuSans-Bold-20" transform="translate(2530.611328 0)"/>
     <use xlink:href="#DejaVuSans-Bold-49" transform="translate(2565.425781 0)"/>
     <use xlink:href="#DejaVuSans-Bold-6e" transform="translate(2602.632812 0)"/>
     <use xlink:href="#DejaVuSans-Bold-70" transform="translate(2673.824219 0)"/>
     <use xlink:href="#DejaVuSans-Bold-75" transform="translate(2745.40625 0)"/>
     <use xlink:href="#DejaVuSans-Bold-74" transform="translate(2816.597656 0)"/>
     <use xlink:href="#DejaVuSans-Bold-20" transform="translate(2864.400391 0)"/>
     <use xlink:href="#DejaVuSans-Bold-53" transform="translate(2899.214844 0)"/>
     <use xlink:href="#DejaVuSans-Bold-69" transform="translate(2971.236328 0)"/>
     <use xlink:href="#DejaVuSans-Bold-7a" transform="translate(3005.513672 0)"/>
     <use xlink:href="#DejaVuSans-Bold-65" transform="translate(3063.716797 0)"/>
     <use xlink:href="#DejaVuSans-Bold-20" transform="translate(3131.539062 0)"/>
     <use xlink:href="#DejaVuSans-Bold-28" transform="translate(3166.353516 0)"/>
     <use xlink:href="#DejaVuSans-Bold-6e" transform="translate(3212.056641 0)"/>
     <use xlink:href="#DejaVuSans-Bold-d7" transform="translate(3283.248047 0)"/>
     <use xlink:href="#DejaVuSans-Bold-6d" transform="translate(3367.037109 0)"/>
     <use xlink:href="#DejaVuSans-Bold-29" transform="translate(3471.236328 0)"/>
    </g>
   </g>
  </g>
 </g>
 <defs>
  <clipPath id="pa04f7e73e8">
   <rect x="42.53875" y="23.837812" width="949.75" height="394.037571"/>
  </clipPath>
 </defs>
</svg>
